<?xml version="1.0" encoding="UTF-8"?>
<svg width="30px" height="30px" viewBox="0 0 21 20" version="1.1" xmlns="http://www.w3.org/2000/svg" xmlns:xlink="http://www.w3.org/1999/xlink">
    <!-- Generator: Sketch 64 (93537) - https://sketch.com -->
    <title>Untitled</title>
    <desc>Created with Sketch.</desc>
    <g id="Page-1" stroke="none" stroke-width="1" fill="none" fill-rule="evenodd">
        <circle id="Oval" fill="#000000" cx="11" cy="10" r="9"></circle>
        <g id="instagram-squircle-icon-theme-2" fill="#FFFFFF" fill-rule="nonzero">
            <path d="M14.9763184,6.61346438 C14.8843079,6.36413574 14.7375183,6.13845824 14.5467834,5.95321656 C14.3615418,5.76248168 14.1360168,5.61569215 13.8865356,5.52368164 C13.6842041,5.44509887 13.380249,5.3515625 12.8204041,5.32608031 C12.2147827,5.29846191 12.0332031,5.29251098 10.5,5.29251098 C8.9666443,5.29251098 8.78506469,5.29830934 8.17959594,5.32592773 C7.61975098,5.3515625 7.31564332,5.44509887 7.11346437,5.52368164 C6.86398316,5.61569215 6.63830566,5.76248168 6.45321656,5.95321656 C6.26248168,6.13845824 6.11569215,6.36398316 6.02352906,6.61346438 C5.94494629,6.8157959 5.85140992,7.11990355 5.82592773,7.67974852 C5.79830934,8.28521727 5.7923584,8.46679688 5.7923584,10.0001526 C5.7923584,11.5333557 5.79830934,11.7149353 5.82592773,12.3205566 C5.85140992,12.8804016 5.94494629,13.1843567 6.02352906,13.3866882 C6.11569215,13.6361695 6.2623291,13.8616943 6.45306398,14.046936 C6.63830566,14.2376709 6.86383055,14.3844605 7.11331176,14.4764709 C7.31564332,14.5552063 7.61975098,14.6487427 8.17959594,14.6742248 C8.78506469,14.7018433 8.96649172,14.7076416 10.4998474,14.7076416 C12.0333557,14.7076416 12.2149353,14.7018433 12.8202515,14.6742248 C13.3800964,14.6487427 13.6842041,14.5552063 13.8865356,14.4764709 C14.3873291,14.2832947 14.7831421,13.8874817 14.9763184,13.3866882 C15.0549011,13.1843567 15.1484375,12.8804016 15.1740723,12.3205566 C15.2016907,11.7149353 15.207489,11.5333557 15.207489,10.0001526 C15.207489,8.46679688 15.2016907,8.28521727 15.1740723,7.67974852 C15.1485901,7.11990355 15.0550537,6.8157959 14.9763184,6.61346438 L14.9763184,6.61346438 Z M10.5,12.9486084 C8.87142945,12.9486084 7.55123902,11.6285705 7.55123902,10 C7.55123902,8.37142945 8.87142945,7.0513916 10.5,7.0513916 C12.128418,7.0513916 13.4486084,8.37142945 13.4486084,10 C13.4486084,11.6285705 12.128418,12.9486084 10.5,12.9486084 Z M13.5651855,7.62390137 C13.1846313,7.62390137 12.8760986,7.31536867 12.8760986,6.93481445 C12.8760986,6.55426023 13.1846313,6.24572754 13.5651855,6.24572754 C13.9457398,6.24572754 14.2542725,6.55426023 14.2542725,6.93481445 C14.2541199,7.31536867 13.9457398,7.62390137 13.5651855,7.62390137 Z" id="Shape"></path>
            <path d="M12.4140625,10 C12.4140625,11.0571289 11.5571289,11.9140625 10.5,11.9140625 C9.44287109,11.9140625 8.5859375,11.0571289 8.5859375,10 C8.5859375,8.94287109 9.44287109,8.0859375 10.5,8.0859375 C11.5571289,8.0859375 12.4140625,8.94287109 12.4140625,10 Z" id="Path"></path>
            <path d="M19.0575867,0 L1.94241332,0 C1.14575195,0 0.5,0.645751953 0.5,1.44241332 L0.5,18.5575867 C0.5,19.354248 1.14575195,20 1.94241332,20 L19.0575867,20 C19.854248,20 20.5,19.354248 20.5,18.5575867 L20.5,1.44241332 C20.5,0.645751953 19.854248,0 19.0575867,0 Z M16.20755,12.3674011 C16.1797791,12.9786682 16.0825805,13.3959961 15.9406738,13.7612915 C15.6423645,14.5326233 15.0326233,15.1423645 14.2612915,15.4406738 C13.8961487,15.5825805 13.4786682,15.6796265 12.8675537,15.70755 C12.2552185,15.7354736 12.0596008,15.7421875 10.5001526,15.7421875 C8.94055176,15.7421875 8.74508668,15.7354736 8.13259887,15.70755 C7.52148438,15.6796265 7.10400391,15.5825805 6.73886109,15.4406738 C6.35556031,15.2964783 6.00857543,15.0704956 5.7217102,14.7782898 C5.42965699,14.4915771 5.2036743,14.1444397 5.05947875,13.7612915 C4.91757203,13.3961487 4.82037352,12.9786682 4.79260254,12.3675537 C4.76437379,11.7550659 4.7578125,11.5594482 4.7578125,10 C4.7578125,8.44055176 4.76437379,8.24493406 4.79244996,7.63259887 C4.82022094,7.0213318 4.91726684,6.60400391 5.05917359,6.23870852 C5.20336914,5.85556031 5.42950438,5.50842285 5.7217102,5.2217102 C6.00842285,4.92950438 6.35556031,4.70352172 6.73870852,4.55932617 C7.10400391,4.41741945 7.5213318,4.32037352 8.13259887,4.29244996 C8.74493406,4.26452637 8.94055176,4.2578125 10.5,4.2578125 C12.0594482,4.2578125 12.2550659,4.26452637 12.8674011,4.29260254 C13.4786682,4.32037352 13.8959961,4.41741945 14.2612915,4.55917359 C14.6444397,4.70336914 14.9915771,4.92950438 15.2784424,5.2217102 C15.5704956,5.50857543 15.7966309,5.85556031 15.9406738,6.23870852 C16.0827332,6.60400391 16.1797791,7.0213318 16.2077027,7.63259887 C16.2356262,8.24493406 16.2421875,8.44055176 16.2421875,10 C16.2421875,11.5594482 16.2356262,11.7550659 16.20755,12.3674011 L16.20755,12.3674011 Z" id="Shape"></path>
        </g>
    </g>
</svg>