<?xml version="1.0" encoding="UTF-8"?>
<svg width="30px" height="30px" viewBox="0 0 20 21" version="1.1" xmlns="http://www.w3.org/2000/svg" xmlns:xlink="http://www.w3.org/1999/xlink">
    <!-- Generator: Sketch 64 (93537) - https://sketch.com -->
    <title>Untitled</title>
    <desc>Created with Sketch.</desc>
    <g id="Page-1" stroke="none" stroke-width="1" fill="none" fill-rule="evenodd">
        <circle id="Oval" fill="#000000" cx="10.5" cy="10.5" r="8.5"></circle>
        <g id="round-black-instagram" fill="#CCCCCC" fill-rule="nonzero">
            <path d="M11.9140625,10.5 C11.9140625,11.5571289 11.0571289,12.4140625 10,12.4140625 C8.94287109,12.4140625 8.0859375,11.5571289 8.0859375,10.5 C8.0859375,9.44287109 8.94287109,8.5859375 10,8.5859375 C11.0571289,8.5859375 11.9140625,9.44287109 11.9140625,10.5 Z" id="Path"></path>
            <path d="M14.4763184,7.11346437 C14.3843079,6.86413574 14.2375183,6.63845824 14.0467834,6.45321656 C13.8615418,6.26248168 13.6360168,6.11569215 13.3865356,6.02368164 C13.1842041,5.94509887 12.880249,5.8515625 12.3204041,5.82608031 C11.7147827,5.79846191 11.5332031,5.79251098 10,5.79251098 C8.4666443,5.79251098 8.28506469,5.79830934 7.67959594,5.82592773 C7.11975098,5.8515625 6.81564332,5.94509887 6.61346438,6.02368164 C6.36398316,6.11569215 6.13830566,6.26248168 5.95321656,6.45321656 C5.76248168,6.63845824 5.61569215,6.86398316 5.52352906,7.11346437 C5.44494629,7.3157959 5.35140992,7.61990355 5.32592773,8.17974852 C5.29830934,8.78521727 5.2923584,8.96679687 5.2923584,10.5001526 C5.2923584,12.0333557 5.29830934,12.2149353 5.32592773,12.8205566 C5.35140992,13.3804016 5.44494629,13.6843567 5.52352906,13.8866882 C5.61569215,14.1361695 5.7623291,14.3616943 5.95306398,14.546936 C6.13830566,14.7376709 6.36383055,14.8844605 6.61331176,14.9764709 C6.81564332,15.0552063 7.11975098,15.1487427 7.67959594,15.1742248 C8.28506469,15.2018433 8.46649172,15.2076416 9.99984742,15.2076416 C11.5333557,15.2076416 11.7149353,15.2018433 12.3202515,15.1742248 C12.8800964,15.1487427 13.1842041,15.0552063 13.3865356,14.9764709 C13.8873291,14.7832947 14.2831421,14.3874817 14.4763184,13.8866882 C14.5549011,13.6843567 14.6484375,13.3804016 14.6740723,12.8205566 C14.7016907,12.2149353 14.707489,12.0333557 14.707489,10.5001526 C14.707489,8.96679687 14.7016907,8.78521727 14.6740723,8.17974852 C14.6485901,7.61990355 14.5550537,7.3157959 14.4763184,7.11346437 L14.4763184,7.11346437 Z M10,13.4486084 C8.37142945,13.4486084 7.05123902,12.1285705 7.05123902,10.5 C7.05123902,8.87142945 8.37142945,7.5513916 10,7.5513916 C11.628418,7.5513916 12.9486084,8.87142945 12.9486084,10.5 C12.9486084,12.1285705 11.628418,13.4486084 10,13.4486084 Z M13.0651855,8.12390137 C12.6846313,8.12390137 12.3760986,7.81536867 12.3760986,7.43481445 C12.3760986,7.05426023 12.6846313,6.74572754 13.0651855,6.74572754 C13.4457398,6.74572754 13.7542725,7.05426023 13.7542725,7.43481445 C13.7541199,7.81536867 13.4457398,8.12390137 13.0651855,8.12390137 Z" id="Shape"></path>
            <path d="M10,0.5 C4.47799684,0.5 0,4.97799684 0,10.5 C0,16.0220032 4.47799684,20.5 10,20.5 C15.5220032,20.5 20,16.0220032 20,10.5 C20,4.97799684 15.5220032,0.5 10,0.5 Z M15.70755,12.8674011 C15.6797791,13.4786682 15.5825805,13.8959961 15.4406738,14.2612915 C15.1423645,15.0326233 14.5326233,15.6423645 13.7612915,15.9406738 C13.3961487,16.0825805 12.9786682,16.1796265 12.3675537,16.20755 C11.7552185,16.2354736 11.5596008,16.2421875 10.0001526,16.2421875 C8.44055176,16.2421875 8.24508668,16.2354736 7.63259887,16.20755 C7.02148438,16.1796265 6.60400391,16.0825805 6.23886109,15.9406738 C5.85556031,15.7964783 5.50857543,15.5704956 5.2217102,15.2782898 C4.92965699,14.9915771 4.7036743,14.6444397 4.55947875,14.2612915 C4.41757203,13.8961487 4.32037352,13.4786682 4.29260254,12.8675537 C4.26437379,12.2550659 4.2578125,12.0594482 4.2578125,10.5 C4.2578125,8.94055176 4.26437379,8.74493406 4.29244996,8.13259887 C4.32022094,7.5213318 4.41726684,7.10400391 4.55917359,6.73870852 C4.70336914,6.35556031 4.92950438,6.00842285 5.2217102,5.7217102 C5.50842285,5.42950438 5.85556031,5.20352172 6.23870852,5.05932617 C6.60400391,4.91741945 7.0213318,4.82037352 7.63259887,4.79244996 C8.24493406,4.76452637 8.44055176,4.7578125 10,4.7578125 C11.5594482,4.7578125 11.7550659,4.76452637 12.3674011,4.79260254 C12.9786682,4.82037352 13.3959961,4.91741945 13.7612915,5.05917359 C14.1444397,5.20336914 14.4915771,5.42950438 14.7784424,5.7217102 C15.0704956,6.00857543 15.2966309,6.35556031 15.4406738,6.73870852 C15.5827332,7.10400391 15.6797791,7.5213318 15.7077027,8.13259887 C15.7356262,8.74493406 15.7421875,8.94055176 15.7421875,10.5 C15.7421875,12.0594482 15.7356262,12.2550659 15.70755,12.8674011 L15.70755,12.8674011 Z" id="Shape"></path>
        </g>
    </g>
</svg>