<?xml version="1.0" encoding="UTF-8"?>
<svg width="281px" height="132px" viewBox="0 0 281 132" version="1.1" xmlns="http://www.w3.org/2000/svg" xmlns:xlink="http://www.w3.org/1999/xlink">
    <!-- Generator: Sketch 46.2 (44496) - http://www.bohemiancoding.com/sketch -->
    <title>Access Enabled</title>
    <desc>Created with Sketch.</desc>
    <defs></defs>
    <g id="Page-1" stroke="none" stroke-width="1" fill="none" fill-rule="evenodd">
        <g id="Access-Mail-2-" transform="translate(-193.000000, -105.000000)">
            <g id="Access-Enabled" transform="translate(192.978021, 104.374596)">
                <g id="No-Incoming-of-Data--(Analysis)" transform="translate(0.838287, 0.092629)">
                    <g id="Group-14" transform="translate(15.273778, 0.762796)" fill="#F5F5F5">
                        <g id="Group-3" transform="translate(0.000000, 109.660410)">
                            <path d="M158.307351,21.819012 L11.4256421,21.819012 C5.43193387,21.819012 0.527002986,16.9140811 0.527002986,10.9203729 C0.527002986,4.92557811 5.43193387,0.020647227 11.4256421,0.020647227 L158.307351,0.020647227 C164.302145,0.020647227 169.20599,4.92557811 169.20599,10.9203729 C169.20599,16.9140811 164.302145,21.819012 158.307351,21.819012" id="Fill-1"></path>
                        </g>
                        <path d="M221.959641,65.7154252 L75.077932,65.7154252 C69.0842238,65.7154252 64.179293,60.8104943 64.179293,54.8167861 C64.179293,48.8230779 69.0842238,43.918147 75.077932,43.918147 L221.959641,43.918147 C227.954435,43.918147 232.85828,48.8230779 232.85828,54.8167861 C232.85828,60.8104943 227.954435,65.7154252 221.959641,65.7154252" id="Fill-4"></path>
                        <g id="Group-8" transform="translate(64.109642, 0.000000)">
                            <path d="M157.849999,22.1207602 L10.9682904,22.1207602 C4.97458221,22.1207602 0.0696513225,17.2158293 0.0696513225,11.2221211 C0.0696513225,5.22732632 4.97458221,0.322395435 10.9682904,0.322395435 L157.849999,0.322395435 C163.844794,0.322395435 168.748638,5.22732632 168.748638,11.2221211 C168.748638,17.2158293 163.844794,22.1207602 157.849999,22.1207602" id="Fill-6"></path>
                        </g>
                        <path d="M158.307351,43.9186903 L11.4256421,43.9186903 C5.43193387,43.9186903 0.527002986,39.0137594 0.527002986,33.0200512 C0.527002986,27.0252564 5.43193387,22.1203256 11.4256421,22.1203256 L158.307351,22.1203256 C164.302145,22.1203256 169.20599,27.0252564 169.20599,33.0200512 C169.20599,39.0137594 164.302145,43.9186903 158.307351,43.9186903" id="Fill-9"></path>
                        <g id="Group-13" transform="translate(95.621160, 65.196246)">
                            <path d="M158.165223,22.3171096 L11.2835142,22.3171096 C5.28980606,22.3171096 0.384875171,17.4121787 0.384875171,11.4184705 C0.384875171,5.42367568 5.28980606,0.518744795 11.2835142,0.518744795 L158.165223,0.518744795 C164.160018,0.518744795 169.063862,5.42367568 169.063862,11.4184705 C169.063862,17.4121787 164.160018,22.3171096 158.165223,22.3171096" id="Fill-11"></path>
                        </g>
                    </g>
                    <g id="Group-43" transform="translate(0.000000, 8.369025)">
                        <path d="M206.38625,120.732255 L71.2485583,120.732255 C65.6655864,120.732255 61.1398804,116.206549 61.1398804,110.623577 L61.1398804,25.1187009 C61.1398804,19.5357291 65.6655864,15.010023 71.2485583,15.010023 L206.38625,15.010023 C211.969222,15.010023 216.494928,19.5357291 216.494928,25.1187009 L216.494928,110.623577 C216.494928,116.206549 211.969222,120.732255 206.38625,120.732255 Z" id="Fill-18" fill="#FFFFFF"></path>
                        <polygon id="Fill-38" fill="#F4F4F4" points="63.8081086 70.0183076 213.345231 70.0183076 213.345231 30.2289739 63.8081086 30.2289739"></polygon>
                        <polygon id="Fill-39" fill="#F4F4F4" points="63.8451095 111.979477 112.057175 111.979477 112.057175 73.3438962 63.8451095 73.3438962"></polygon>
                        <polygon id="Fill-51" fill="#F4F4F4" points="114.082129 111.979477 162.293073 111.979477 162.293073 73.3438962 114.082129 73.3438962"></polygon>
                        <polygon id="Fill-52" fill="#F4F4F4" points="164.090415 111.979477 212.302481 111.979477 212.302481 73.3438962 164.090415 73.3438962"></polygon>
                        <path d="M206.38625,120.732255 L71.2485583,120.732255 C65.6655864,120.732255 61.1398804,116.206549 61.1398804,110.623577 L61.1398804,25.1187009 C61.1398804,19.5357291 65.6655864,15.010023 71.2485583,15.010023 L206.38625,15.010023 C211.969222,15.010023 216.494928,19.5357291 216.494928,25.1187009 L216.494928,110.623577 C216.494928,116.206549 211.969222,120.732255 206.38625,120.732255 Z" id="Stroke-20" stroke="#F59D00"></path>
                        <path d="M62.4589091,28.4526196 C62.4589091,28.4526196 63.4900964,15.7708632 75.9632248,15.7708632 L200.32941,15.7708632 C200.32941,15.7708632 212.511328,14.7472821 213.835899,28.4526196 L62.4589091,28.4526196 Z" id="Fill-22" fill="#FFE3BB"></path>
                        <polygon id="Fill-24" fill="#FFFFFF" points="75.1760888 23.3826335 77.7350414 23.3826335 77.7350414 20.8236809 75.1760888 20.8236809"></polygon>
                        <polygon id="Fill-26" fill="#FFFFFF" points="80.2961673 23.3826335 82.8551199 23.3826335 82.8551199 20.8236809 80.2961673 20.8236809"></polygon>
                        <polygon id="Fill-27" fill="#FFFFFF" points="85.4151592 23.3826335 87.9751984 23.3826335 87.9751984 20.8236809 85.4151592 20.8236809"></polygon>
                        <polygon id="Fill-28" fill="#FDFFFE" points="59.0726161 78.0909765 62.8051012 78.0909765 62.8051012 65.1440887 59.0726161 65.1440887"></polygon>
                        <polygon id="Fill-29" fill="#FDFFFE" points="51.4663874 59.5730695 55.1988725 59.5730695 55.1988725 46.6272683 51.4663874 46.6272683"></polygon>
                        <path d="M256.006026,121.297833 L16.850984,121.297833 C16.5532545,121.297833 16.307682,121.542318 16.307682,121.841135 C16.307682,122.138864 16.5532545,122.384437 16.850984,122.384437 L256.006026,122.384437 C256.304842,122.384437 256.549328,122.138864 256.549328,121.841135 C256.549328,121.542318 256.304842,121.297833 256.006026,121.297833" id="Fill-31" fill="#9B9B9B"></path>
                        <path d="M12.8761863,122.384437 L0.604079609,122.384437 C0.306350087,122.384437 0.0607775615,122.138864 0.0607775615,121.841135 C0.0607775615,121.542318 0.306350087,121.297833 0.604079609,121.297833 L12.8761863,121.297833 C13.1750024,121.297833 13.4194883,121.542318 13.4194883,121.841135 C13.4194883,122.138864 13.1750024,122.384437 12.8761863,122.384437" id="Fill-32" fill="#9B9B9B"></path>
                        <path d="M275.11711,122.384437 L260.153485,122.384437 C259.855756,122.384437 259.610183,122.138864 259.610183,121.841135 C259.610183,121.542318 259.855756,121.297833 260.153485,121.297833 L275.11711,121.297833 C275.415926,121.297833 275.660412,121.542318 275.660412,121.841135 C275.660412,122.138864 275.415926,122.384437 275.11711,122.384437" id="Fill-33" fill="#9B9B9B"></path>
                        <path d="M125.610383,8.99556067 C124.779131,8.99556067 124.003296,8.54679317 123.581693,7.82528805 C123.489332,7.66664386 123.326341,7.5731959 123.144879,7.5731959 C122.932991,7.5731959 122.780866,7.704675 122.710237,7.82528805 C122.288635,8.54679317 121.511713,8.99556067 120.678287,8.99556067 C119.845949,8.99556067 119.06794,8.54679317 118.646338,7.82528805 C118.55289,7.66664386 118.390986,7.5731959 118.210609,7.5731959 C117.998722,7.5731959 117.84551,7.704675 117.773795,7.82637466 C117.353279,8.54679317 116.57527,8.99556067 115.742931,8.99556067 C114.910593,8.99556067 114.132584,8.54679317 113.710982,7.82528805 C113.617534,7.66664386 113.45563,7.5731959 113.274167,7.5731959 C113.062279,7.5731959 112.910155,7.704675 112.838439,7.82637466 C112.417923,8.54679317 111.639914,8.99556067 110.807576,8.99556067 C109.976324,8.99556067 109.198315,8.54679317 108.777799,7.82528805 C108.520274,7.3863 108.668052,6.81909266 109.109213,6.5637407 C109.551461,6.30512893 110.115409,6.45290708 110.374021,6.89406834 C110.575042,7.24286826 111.113998,7.1222552 111.24439,6.89406834 C111.667079,6.17364983 112.445088,5.72596894 113.275254,5.72596894 C114.111939,5.72596894 114.891034,6.17473643 115.309376,6.89732816 C115.377832,7.01794121 115.53213,7.1483337 115.744018,7.1483337 C115.954819,7.1483337 116.10803,7.01794121 116.17866,6.89406834 C116.601349,6.17364983 117.38153,5.72596894 118.211696,5.72596894 C119.046208,5.72596894 119.824216,6.17473643 120.244732,6.89624155 C120.313188,7.01794121 120.467486,7.1483337 120.679374,7.1483337 C120.891262,7.1483337 121.045559,7.01794121 121.115102,6.89406834 C121.535618,6.17364983 122.3158,5.72596894 123.145965,5.72596894 C123.980477,5.72596894 124.759572,6.17473643 125.180088,6.89624155 C125.248544,7.01794121 125.401755,7.1483337 125.61147,7.1483337 C125.824444,7.1483337 125.977655,7.01902782 126.048285,6.89624155 C126.304723,6.45616689 126.867584,6.30512893 127.310919,6.5626541 C127.75208,6.81691945 127.900945,7.38412679 127.644506,7.82420145 C127.22399,8.54679317 126.444895,8.99556067 125.610383,8.99556067" id="Fill-35" fill="#F59D00" opacity="0.330446105"></path>
                        <polygon id="Fill-36" fill="#999999" opacity="0.330446105" points="48.6810951 75.9278738 51.467148 73.1418209 54.2521143 75.9267872 51.4660614 78.7128401"></polygon>
                        <polygon id="Fill-37" fill="#999999" opacity="0.330446105" points="223.070512 56.202315 225.857652 53.4162621 228.642618 56.2001418 225.855479 58.9872813"></polygon>
                        <path d="M250.541168,108.053758 L249.00797,110.705072 L252.072193,110.706159 L250.541168,108.053758 Z M247.124885,111.792763 L250.541168,105.881637 L253.956365,111.79385 L247.124885,111.792763 Z" id="Fill-39" fill="#58DDA0" opacity="0.330446105"></path>
                        <path d="M196.67679,1.75334437 L198.208902,4.40574497 L199.741014,1.75334437 L196.67679,1.75334437 Z M198.208902,6.58003976 L194.793705,0.667826877 L201.624099,0.667826877 L198.208902,6.58003976 Z" id="Fill-42" fill="#F59D00" opacity="0.330446105"></path>
                    </g>
                    <path d="M214.988894,128.907104 L214.988894,105.215875 L214.988894,128.907104 Z" id="Fill-51" fill="#FFFFFF"></path>
                </g>
                <path d="M136.483756,56.436795 L120.168059,61.597351 C119.177649,61.9101119 118.5,62.8483948 118.5,63.8909314 L118.5,70.0418971 C118.5,84.1161407 125.380741,97.3042283 136.90077,105.383887 C138.203941,106.270564 139.924126,106.270564 141.227297,105.383887 C152.747326,97.3042283 159.628067,84.1161407 159.628067,70.0418971 L159.628067,63.8388046 C159.628067,62.796268 158.950419,61.8579851 157.960009,61.5452241 L141.644312,56.3846682 C139.924126,55.8633999 138.151814,55.8633999 136.483756,56.436795" id="Fill-1" fill="#4CD093"></path>
                <path d="M144.72345,75.6288094 C143.440634,75.6288094 142.459691,74.6478671 142.459691,73.3650508 C142.459691,72.0822345 143.440634,71.1012922 144.72345,71.1012922 C146.006266,71.1012922 146.987209,72.0822345 146.987209,73.3650508 C146.987209,74.6478671 146.006266,75.6288094 144.72345,75.6288094 M142.836965,68.8375336 C139.290429,68.8375336 136.423002,71.7049612 136.423002,75.2514966 C136.423002,76.0060828 136.573919,76.760669 136.800275,77.5152552 L128.87714,85.43843 L128.87714,89.211361 L132.650071,89.211361 L132.650071,86.9476024 L134.913829,86.9476024 L134.913829,84.6838438 L137.177588,84.6838438 L140.573206,81.2881862 C141.252353,81.5145818 142.00694,81.665499 142.836965,81.665499 C146.38354,81.665499 149.250928,78.7980715 149.250928,75.251536 C149.250928,71.7050006 146.38354,68.8375336 142.836965,68.8375336" id="Page-1" fill="#FFFFFF" transform="translate(139.064034, 79.024447) rotate(-45.000000) translate(-139.064034, -79.024447) "></path>
                <g id="AB-Test" opacity="0.7" transform="translate(233.304135, 30.364503) rotate(-15.000000) translate(-233.304135, -30.364503) translate(224.304135, 19.864503)">
                    <polygon id="Fill-1" fill="#999999" points="0 1.00047207 7.75564948 1.00047207 7.75564948 0.0283452037 0 0.0283452037"></polygon>
                    <g id="Group-9" transform="translate(0.000000, 0.029167)">
                        <path d="M11.217588,0.971387291 L11.217588,16.6248485 C11.217588,17.7974817 12.1699929,18.7498866 13.3418043,18.7498866 C14.512794,18.7498866 15.4668424,17.7974817 15.4668424,16.6248485 L15.4668424,0.971387291 L11.217588,0.971387291 Z M13.3418043,19.7211917 C11.6342138,19.7211917 10.2454611,18.3324391 10.2454611,16.6248485 L10.2454611,8.21747137e-05 L16.4381476,8.21747137e-05 L16.4381476,16.6248485 C16.4381476,18.3324391 15.0493949,19.7211917 13.3418043,19.7211917 Z" id="Fill-2" fill="#FE7330"></path>
                        <polygon id="Fill-4" fill="#FE7330" points="9.46488352 0.971305116 17.220533 0.971305116 17.220533 0 9.46488352 0"></polygon>
                        <polygon id="Fill-6" fill="#999999" points="6.37651503 8.21579395 1.33288148 8.20158323 1.33933224 7.46112026 6.5163392 7.46112026"></polygon>
                        <polygon id="Fill-7" fill="#FE7330" points="15.8065784 5.72124416 10.6755071 5.72124416 10.7536296 4.87623503 15.9306365 4.87623503"></polygon>
                        <path d="M1.75262229,0.971387291 L1.75262229,16.6248485 C1.75262229,17.7974817 2.70502723,18.7498866 3.87683864,18.7498866 C5.04782831,18.7498866 6.00187674,17.7974817 6.00187674,16.6248485 L6.00187674,0.971387291 L1.75262229,0.971387291 Z M3.87683864,19.7211917 C2.17006984,19.6981828 0.781317178,18.3324391 0.781317178,16.6248485 L0.781317178,8.21747137e-05 L6.97318186,8.21747137e-05 L6.97318186,16.6248485 C6.94442071,18.3866744 5.57210299,19.7450224 3.87683864,19.7211917 L3.87683864,19.7211917 Z" id="Fill-8" fill="#999999"></path>
                    </g>
                    <path d="M4.67063107,13.9381551 L3.29498735,13.9381551 L2.99639802,14.844587 L2.32723799,14.844587 L3.6815539,10.9629257 L4.29739441,10.9629257 L5.63571446,14.844587 L4.96655443,14.844587 L4.67063107,13.9381551 Z M3.47360776,13.3969619 L4.49467664,13.3969619 L3.99613909,11.8666916 L3.98014324,11.8666916 L3.47360776,13.3969619 Z" id="A" fill="#999999"></path>
                    <path d="M11.9970584,14.8542745 L11.9970584,10.9241042 L13.284621,10.9241042 C13.7183096,10.9241042 14.0575173,11.0136298 14.3022544,11.1926838 C14.5469915,11.3717378 14.6693582,11.639415 14.6693582,11.9957234 C14.6693582,12.168479 14.6203216,12.3241367 14.5222468,12.4627011 C14.424172,12.6012655 14.2878591,12.7065368 14.1133039,12.7785183 C14.3652392,12.8199077 14.5591364,12.9287781 14.6950015,13.1051327 C14.8308666,13.2814874 14.8987981,13.4884311 14.8987981,13.7259701 C14.8987981,14.0948753 14.7782309,14.375149 14.5370929,14.5667998 C14.2959549,14.7584505 13.9630454,14.8542745 13.5383546,14.8542745 L11.9970584,14.8542745 Z M12.6529865,13.0673426 L12.6529865,14.3306117 L13.5383546,14.3306117 C13.7650963,14.3306117 13.9396488,14.2788757 14.0620174,14.1754023 C14.1843859,14.0719289 14.2455693,13.9221197 14.2455693,13.7259701 C14.2455693,13.528021 14.1852857,13.3705638 14.0647167,13.2535939 C13.9441476,13.1366239 13.7749937,13.0745408 13.5572496,13.0673426 L12.6529865,13.0673426 Z M12.6529865,12.5787707 L13.3548027,12.5787707 C13.5581504,12.5787707 13.7187567,12.5306337 13.8366264,12.4343585 C13.9544961,12.3380832 14.0134301,12.2017703 14.0134301,12.0254156 C14.0134301,11.8310656 13.951347,11.6866549 13.8271789,11.5921791 C13.7030108,11.4977034 13.52216,11.4504663 13.284621,11.4504663 L12.6529865,11.4504663 L12.6529865,12.5787707 Z" id="B" fill="#FE7330"></path>
                </g>
                <path d="M53.742283,109.829273 C54.1220327,110.745575 53.6860837,111.797172 52.7697814,112.177153 C51.8518602,112.557365 50.8011885,112.121648 50.4221326,111.204651 C50.1533938,110.555932 50.1730519,109.860032 50.4221326,109.258954 C51.5255345,106.592612 50.2600105,103.534725 47.5927428,102.429935 C48.5129767,103.350632 49.0814449,104.62055 49.0814449,106.024375 C49.0814449,107.016997 48.2766161,107.821132 47.284225,107.821132 C46.2916028,107.821132 45.4872364,107.016997 45.4872364,106.024375 C45.4872364,105.322462 45.7717018,104.687388 46.2312406,104.227386 C44.547113,104.924442 43.7469096,106.8558 44.4446592,108.539928 C44.6435537,109.020744 44.6595115,109.577879 44.4446592,110.096855 C44.1409982,110.830221 43.2998595,111.178518 42.5660314,110.874394 C41.8326657,110.570733 41.4841378,109.729826 41.7877988,108.99646 C39.1758053,111.60776 39.1755741,115.843056 41.7875676,118.454818 C45.0882911,121.756698 50.4408657,121.757392 53.742283,118.456437 C56.1239289,116.073172 56.1239289,112.211381 53.742283,109.829273 Z" id="heatmap" stroke="#FE7330" opacity="0.7" stroke-linecap="round" stroke-linejoin="round" transform="translate(47.678603, 111.680813) rotate(-12.000000) translate(-47.678603, -111.680813) "></path>
                <g id="Funnel" opacity="0.7" transform="translate(48.483211, 34.592868) rotate(-21.000000) translate(-48.483211, -34.592868) translate(40.983211, 25.092868)">
                    <path d="M1.23455876,0.920876767 L13.4949568,0.920876767 L8.80354137,9.43983876 C8.76532117,9.5098324 8.74505985,9.58995669 8.74598082,9.67008098 L8.74598082,15.8005102 L5.98353471,17.1962385 L5.98353471,9.67008098 C5.98353471,9.58995669 5.96419436,9.5098324 5.92597416,9.43983876 L1.23455876,0.920876767 Z M0.054337163,0.676359534 L5.06256585,9.78520209 L5.06256585,17.9588008 C5.06671021,18.2737721 5.46088488,18.5090797 5.73855699,18.3617246 L9.42243245,16.4912369 C9.57255037,16.4115731 9.67109404,16.2430358 9.66694968,16.0735775 L9.66694968,9.78520209 L14.6747179,0.676359534 C14.8225334,0.398226937 14.5867654,0.00267080971 14.271794,-9.20968864e-05 L0.457721526,-9.20968864e-05 C0.0787428379,0.00635468516 -0.0976226996,0.40789711 0.054337163,0.676359534 L0.054337163,0.676359534 Z" id="Fill-1" fill="#FE7730"></path>
                    <polygon id="Fill-4" fill="#999999" points="4.39890792 3.90117527 10.3952525 3.90117527 7.26981904 7.70310219"></polygon>
                </g>
                <g id="Page-1" opacity="0.7" transform="translate(233.086997, 106.599279) rotate(-401.000000) translate(-233.086997, -106.599279) translate(222.086997, 96.599279)">
                    <polygon id="Fill-1" fill="#FE7330" points="15.6305611 12.9639168 18.6976414 16.031834 15.6305611 19.0721349 16.3234786 19.7658892 20.0851501 16.031834 16.3234786 12.2709993"></polygon>
                    <g id="Group-11" transform="translate(0.000000, 0.518098)">
                        <path d="M7.94829895,9.30409072 L10.5090809,13.1444268 C11.1492764,14.1051384 12.1894894,14.6649957 13.3359833,14.6649957 L19.3906426,14.6649957 L19.3906426,15.6257073 L13.3359833,15.6257073 C11.8698101,15.6257073 10.5090809,14.9051736 9.68226633,13.6783415 L6.77502565,9.30409072 L7.94829895,9.30409072 Z" id="Fill-2" fill="#FE7330"></path>
                        <g id="Group-6" transform="translate(15.063423, 0.000000)" fill="#999999">
                            <polygon id="Fill-4" points="1.44140223 0.318926144 0.734258196 0.998453902 3.74359541 4.0973348 0.617935095 7.10583516 1.29829971 7.81297919 5.13026721 4.12411422"></polygon>
                        </g>
                        <path d="M7.94829895,9.7327288 L10.5818874,5.94176729 C11.2404938,4.99360848 12.2907491,4.45299896 13.437243,4.4755941 L19.4910654,4.59024348 L19.5094763,3.63036868 L13.4556538,3.51488244 C11.9894807,3.48726616 10.6153617,4.18102049 9.76511516,5.39195234 L6.77502565,9.71013366" id="Fill-7" fill="#999999"></path>
                        <polygon id="Fill-9" fill="#FE7330" points="0 10.1519104 8.12420626 10.1519104 8.12420626 9.16525617 0 9.16525617"></polygon>
                    </g>
                </g>
            </g>
        </g>
    </g>
</svg>