<svg width="350" height="250" viewBox="0 0 245 147" version="1.1" xmlns="http://www.w3.org/2000/svg" xmlns:xlink="http://www.w3.org/1999/xlink">
    <defs></defs>
    <g id="Page-1" stroke="none" stroke-width="1" fill="none" fill-rule="evenodd">
        <g id="Illustrations" transform="translate(-138.000000, -98.000000)">
            <g id="new-experiment" transform="translate(137.000000, 98.000000)">
                <g id="New-Experiment" transform="translate(0.976562, 10.421875)">
                    <g id="Group-14" transform="translate(17.000000, 12.949000)"></g>
                    <g id="Group-13" transform="translate(17.000000, 12.949000)" fill="#F5F5F5">
                        <path d="M53.3380699,20.8606 L14.8595,20.8606 C9.3425,20.8606 4.8295,25.3746 4.8295,30.8916 C4.8295,36.4076 9.3425,40.9216 14.8595,40.9216 L150.0345,40.9216 C155.5505,40.9216 160.0645,36.4076 160.0645,30.8916 C160.0645,25.4081497 155.605234,20.9155378 150.135019,20.8611 L188.6136,20.8611 C194.1306,20.8611 198.6436,16.3481 198.6436,10.8311 C198.6436,5.3151 194.1306,0.8011 188.6136,0.8011 L53.4386,0.8011 C47.9226,0.8011 43.4086,5.3151 43.4086,10.8311 C43.4086,16.3145465 47.8678602,20.8061683 53.3380699,20.8606 Z M217.9032,81.0417 L82.7282,81.0417 C77.2122,81.0417 72.6982,76.5277 72.6982,71.0117 C72.6982,65.4957 77.2122,60.9817 82.7282,60.9817 L217.9032,60.9817 C223.4202,60.9817 227.9332,65.4957 227.9332,71.0117 C227.9332,76.5277 223.4202,81.0417 217.9032,81.0417 Z M130.0345,121.4089 L10.9455,121.4089 C5.4295,121.4089 0.9155,116.8949 0.9155,111.3789 C0.9155,105.8619 5.4295,101.3489 10.9455,101.3489 L130.0345,101.3489 C135.5505,101.3489 140.0645,105.8619 140.0645,111.3789 C140.0645,116.8949 135.5505,121.4089 130.0345,121.4089 Z M171.0399,101.1018 L35.8649,101.1018 C30.3489,101.1018 25.8349,96.5888 25.8349,91.0718 C25.8349,85.5558 30.3489,81.0418 35.8649,81.0418 L171.0399,81.0418 C176.5569,81.0418 181.0699,85.5558 181.0699,91.0718 C181.0699,96.5888 176.5569,101.1018 171.0399,101.1018 Z M188.6136,60.9817 L53.4386,60.9817 C47.9226,60.9817 43.4086,56.4677 43.4086,50.9517 C43.4086,45.4347 47.9226,40.9217 53.4386,40.9217 L188.6136,40.9217 C194.1306,40.9217 198.6436,45.4347 198.6436,50.9517 C198.6436,56.4677 194.1306,60.9817 188.6136,60.9817 Z" id="Fill-11"></path>
                    </g>
                    <path d="M76.9047,59.4209 L94.5417,59.4209" id="Stroke-15" stroke="#999999"></path>
                    <g id="Group-48" transform="translate(0.000000, 0.949000)">
                        <path d="M68.2147,98.2517 C68.2147,98.2517 75.8367,91.7087 87.1687,98.2517 C87.1687,98.2517 92.4447,100.7517 102.1237,97.5727 L109.3387,109.3777 L115.3997,120.2207 C115.3997,120.2207 118.5697,127.4977 113.1287,132.4307 C113.1287,132.4307 110.2187,134.0157 107.4487,133.5767 L93.0057,133.6557 L73.2147,133.6557 L60.5907,133.6557 C60.5907,133.6557 53.3687,129.7127 55.4457,121.8207 L68.2147,98.2517 Z" id="Fill-16" fill="#F59D00"></path>
                        <path d="M102.1234,97.573 C99.6424,98.649 92.5154,101.083 84.7154,97.096 C81.7834,95.595 78.9544,95.213 76.5614,95.323 L76.5614,95.322 C72.5714,95.507 69.7954,97.062 69.7954,97.062 C69.6474,97.142 69.4884,97.203 69.3224,97.242" id="Stroke-18" stroke="#999999"></path>
                        <path d="M79.3392,49.3752 C76.6812,49.3752 74.4912,51.5652 74.4912,54.2232 C74.4912,56.3132 75.8522,58.0942 77.7232,58.7682 L77.7232,82.8952 L56.6452,120.4802 L56.1782,121.2892 C54.7362,123.7862 54.7362,126.8712 56.1782,129.3692 C57.6202,131.8662 60.2952,133.4092 63.1782,133.4092 L108.4272,133.4092 C111.3122,133.4092 113.9802,131.8662 115.4222,129.3692 C116.8602,126.8772 116.8602,123.8022 115.4282,121.3072 L115.4222,121.3072 L115.3712,121.2202 C115.2962,121.0832 102.4892,97.9882 93.8832,82.9142 L93.8832,58.7692 C95.7552,58.0942 97.1152,56.3132 97.1152,54.2232 C97.1152,51.5652 94.9252,49.3752 92.2672,49.3752 L79.3392,49.3752 Z" id="Stroke-20" stroke="#999999"></path>
                        <path d="M193.0712,116.7229 L183.4832,125.3429 C183.4832,125.3429 173.2342,130.8539 173.1852,130.8689 C172.0602,131.2279 170.4802,132.3079 169.2922,132.4329 C167.3642,132.6369 158.4212,133.6969 156.4832,133.6169 C151.5122,133.4109 146.4102,131.2389 141.7692,129.4709 C131.8962,125.7079 123.6512,116.1739 119.7482,106.5029 C117.1362,100.0299 116.9372,92.7809 116.8812,85.8949 L200.6392,85.8949 L200.0922,99.6379 L195.0492,112.5509 L193.0712,116.7229" id="Fill-22" fill="#4CD093"></path>
                        <path d="M116.8993,85.8952 L200.6393,85.8952 L116.8993,85.8952 Z M183.4823,125.3432 C188.5993,121.6062 192.8383,116.7462 195.8453,111.1312 L197.4713,107.7172 C199.5953,102.7092 200.7863,97.2132 200.7863,91.4312 C200.7833,87.2782 200.1373,83.2502 198.9803,79.4312 C198.6883,78.3122 198.3263,77.2382 197.9293,76.1992 L197.8573,76.1992 C193.3333,64.7662 183.8693,55.6462 171.6973,51.6812 L171.6973,21.2532 L173.3133,21.2532 C175.9713,21.2532 178.1613,19.0632 178.1613,16.4062 C178.1613,13.7482 175.9713,11.5582 173.3133,11.5582 L144.2253,11.5582 C141.5663,11.5582 139.3773,13.7482 139.3773,16.4062 C139.3773,19.0632 141.5663,21.2532 144.2253,21.2532 L145.8403,21.2532 L145.8403,51.6812 C128.6143,57.2932 116.7633,73.2152 116.7523,91.4312 C116.7523,114.6182 135.5833,133.4482 158.7693,133.4482 C166.8523,133.4482 174.3773,131.1182 180.7873,127.1542 L183.4823,125.3432 Z" id="Stroke-24" stroke="#F59D00"></path>
                        <g id="Group-28" transform="translate(14.000000, 134.000000)" fill="#9B9B9B">
                            <path d="M212.1952,0.0002 L0.6962,0.0002 C0.4212,0.0002 0.1962,0.2252 0.1962,0.5002 C0.1962,0.7752 0.4212,1.0002 0.6962,1.0002 L212.1952,1.0002 C212.4702,1.0002 212.6952,0.7752 212.6952,0.5002 C212.6952,0.2252 212.4702,0.0002 212.1952,0.0002" id="Fill-26"></path>
                        </g>
                        <g id="Group-31" transform="translate(0.000000, 134.000000)" fill="#9B9B9B">
                            <path d="M11.3158,1.0002 L0.4998,1.0002 C0.2248,1.0002 -0.0002,0.7752 -0.0002,0.5002 C-0.0002,0.2252 0.2248,0.0002 0.4998,0.0002 L11.3158,0.0002 C11.5908,0.0002 11.8158,0.2252 11.8158,0.5002 C11.8158,0.7752 11.5908,1.0002 11.3158,1.0002" id="Fill-29"></path>
                        </g>
                        <g id="Group-34" transform="translate(229.000000, 134.000000)" fill="#9B9B9B">
                            <path d="M14.9574,1.0002 L1.1874,1.0002 C0.9124,1.0002 0.6874,0.7752 0.6874,0.5002 C0.6874,0.2252 0.9124,0.0002 1.1874,0.0002 L14.9574,0.0002 C15.2324,0.0002 15.4574,0.2252 15.4574,0.5002 C15.4574,0.7752 15.2324,1.0002 14.9574,1.0002" id="Fill-32"></path>
                        </g>
                        <path d="M126.894444,42.4674625 C126.129444,42.4674625 125.414444,42.0544625 125.026444,41.3904625 C124.941444,41.2444625 124.792444,41.1584625 124.625444,41.1584625 C124.430444,41.1584625 124.290444,41.2784625 124.225444,41.3904625 C123.837444,42.0544625 123.121444,42.4674625 122.355444,42.4674625 C121.589444,42.4674625 120.872444,42.0544625 120.484444,41.3904625 C120.399444,41.2444625 120.250444,41.1584625 120.084444,41.1584625 C119.889444,41.1584625 119.748444,41.2784625 119.682444,41.3914625 C119.295444,42.0544625 118.578444,42.4674625 117.813444,42.4674625 C117.047444,42.4674625 116.330444,42.0544625 115.942444,41.3904625 C115.857444,41.2444625 115.708444,41.1584625 115.541444,41.1584625 C115.346444,41.1584625 115.206444,41.2784625 115.140444,41.3914625 C114.753444,42.0544625 114.036444,42.4674625 113.271444,42.4674625 C112.506444,42.4674625 111.790444,42.0544625 111.402444,41.3904625 C111.166444,40.9854625 111.302444,40.4644625 111.708444,40.2284625 C112.114444,39.9914625 112.634444,40.1274625 112.871444,40.5334625 C113.057444,40.8534625 113.553444,40.7434625 113.673444,40.5334625 C114.062444,39.8704625 114.777444,39.4584625 115.542444,39.4584625 C116.312444,39.4584625 117.028444,39.8714625 117.413444,40.5364625 C117.477444,40.6464625 117.618444,40.7674625 117.814444,40.7674625 C118.008444,40.7674625 118.149444,40.6464625 118.214444,40.5334625 C118.603444,39.8704625 119.320444,39.4584625 120.085444,39.4584625 C120.853444,39.4584625 121.568444,39.8714625 121.955444,40.5354625 C122.019444,40.6464625 122.160444,40.7674625 122.356444,40.7674625 C122.551444,40.7674625 122.692444,40.6464625 122.757444,40.5334625 C123.144444,39.8704625 123.861444,39.4584625 124.626444,39.4584625 C125.394444,39.4584625 126.110444,39.8714625 126.497444,40.5354625 C126.561444,40.6464625 126.701444,40.7674625 126.895444,40.7674625 C127.091444,40.7674625 127.232444,40.6474625 127.297444,40.5354625 C127.532444,40.1304625 128.051444,39.9914625 128.459444,40.2274625 C128.864444,40.4624625 129.002444,40.9834625 128.766444,41.3894625 C128.379444,42.0544625 127.661444,42.4674625 126.894444,42.4674625" id="Fill-35" fill="#F59D00"></path>
                        <path d="M188.6244,44.6125 L191.4444,44.6125 L190.0344,42.1705 L188.6244,44.6125 Z M193.1774,45.6125 L186.8924,45.6125 L190.0354,40.1705 L193.1774,45.6125 Z" id="Fill-37" fill="#58DDA0"></path>
                        <polygon id="Fill-39" fill="#999999" points="53.1527 76.8362 55.7177 74.2722 58.2807 76.8352 55.7157 79.3992"></polygon>
                        <path d="M107.5228,68.0632 L109.9628,69.4742 L109.9638,66.6542 L107.5228,68.0632 Z M110.9638,71.2072 L105.5238,68.0632 L110.9648,64.9212 L110.9638,71.2072 Z" id="Fill-41" fill="#58DDA0"></path>
                        <polygon id="Fill-43" fill="#58DDA0" points="69.335 22.831 72.961 22.831 72.961 19.205 69.335 19.205"></polygon>
                        <polygon id="Fill-45" fill="#999999" points="206.2318 102.594 208.7968 100.03 211.3598 102.593 208.7948 105.157"></polygon>
                        <path d="M43.3978,124.6364 C42.6328,124.6364 41.9178,124.2234 41.5298,123.5594 C41.4448,123.4134 41.2958,123.3274 41.1288,123.3274 C40.9338,123.3274 40.7938,123.4474 40.7288,123.5594 C40.3408,124.2234 39.6248,124.6364 38.8588,124.6364 C38.0928,124.6364 37.3758,124.2234 36.9878,123.5594 C36.9028,123.4134 36.7538,123.3274 36.5878,123.3274 C36.3928,123.3274 36.2518,123.4474 36.1858,123.5604 C35.7988,124.2234 35.0818,124.6364 34.3168,124.6364 C33.5508,124.6364 32.8338,124.2234 32.4458,123.5594 C32.3608,123.4134 32.2118,123.3274 32.0448,123.3274 C31.8498,123.3274 31.7098,123.4474 31.6438,123.5604 C31.2568,124.2234 30.5398,124.6364 29.7748,124.6364 C29.0098,124.6364 28.2938,124.2234 27.9058,123.5594 C27.6698,123.1544 27.8058,122.6334 28.2118,122.3974 C28.6178,122.1604 29.1378,122.2964 29.3748,122.7024 C29.5608,123.0224 30.0568,122.9124 30.1768,122.7024 C30.5658,122.0394 31.2808,121.6274 32.0458,121.6274 C32.8158,121.6274 33.5318,122.0404 33.9168,122.7054 C33.9808,122.8154 34.1218,122.9364 34.3178,122.9364 C34.5118,122.9364 34.6528,122.8154 34.7178,122.7024 C35.1068,122.0394 35.8238,121.6274 36.5888,121.6274 C37.3568,121.6274 38.0718,122.0404 38.4588,122.7044 C38.5228,122.8154 38.6638,122.9364 38.8598,122.9364 C39.0548,122.9364 39.1958,122.8154 39.2608,122.7024 C39.6478,122.0394 40.3648,121.6274 41.1298,121.6274 C41.8978,121.6274 42.6138,122.0404 43.0008,122.7044 C43.0648,122.8154 43.2048,122.9364 43.3988,122.9364 C43.5948,122.9364 43.7358,122.8164 43.8008,122.7044 C44.0358,122.2994 44.5548,122.1604 44.9628,122.3964 C45.3678,122.6314 45.5058,123.1524 45.2698,123.5584 C44.8828,124.2234 44.1648,124.6364 43.3978,124.6364" id="Fill-46" fill="#999999"></path>
                        <path d="M122.4706,1.05 L123.8806,3.491 L125.2906,1.05 L122.4706,1.05 Z M123.8806,5.492 L120.7376,0.051 L127.0236,0.051 L123.8806,5.492 Z" id="Fill-47" fill="#F59D00"></path>
                    </g>
                </g>
                <circle id="Oval" fill="#4CD093" cx="160.978779" cy="15.1294233" r="3.95862928"></circle>
                <circle id="Oval" fill="#4CD093" cx="166.477936" cy="7.43083517" r="2.64400338"></circle>
                <circle id="Oval" fill="#4CD093" cx="162.561351" cy="1.87861497" r="1.21605718"></circle>
                <g id="Group" transform="translate(86.552246, 51.785819) scale(1, -1) translate(-86.552246, -51.785819) translate(81.552246, 45.285819)" fill="#F59D00">
                    <circle id="Oval" transform="translate(3.461531, 10.127237) scale(-1, -1) rotate(92.000000) translate(-3.461531, -10.127237) " cx="3.46153111" cy="10.1272374" r="2.72183376"></circle>
                    <circle id="Oval" transform="translate(7.242585, 4.833921) scale(-1, -1) rotate(92.000000) translate(-7.242585, -4.833921) " cx="7.24258499" cy="4.83392103" r="1.81793675"></circle>
                    <circle id="Oval" transform="translate(4.549659, 1.016382) scale(-1, -1) rotate(92.000000) translate(-4.549659, -1.016382) " cx="4.54965946" cy="1.01638235" r="1"></circle>
                </g>
                <circle id="Oval" fill="#4CD093" cx="160.978779" cy="15.1294233" r="3.95862928"></circle>
                <circle id="Oval" fill="#4CD093" cx="166.477936" cy="7.43083517" r="2.64400338"></circle>
                <circle id="Oval" fill="#4CD093" cx="162.561351" cy="1.87861497" r="1.21605718"></circle>
                <g id="Group" transform="translate(86.552246, 51.785819) scale(1, -1) translate(-86.552246, -51.785819) translate(81.552246, 45.285819)" fill="#F59D00">
                    <circle id="Oval" transform="translate(3.461531, 10.127237) scale(-1, -1) rotate(92.000000) translate(-3.461531, -10.127237) " cx="3.46153111" cy="10.1272374" r="2.72183376"></circle>
                    <circle id="Oval" transform="translate(7.242585, 4.833921) scale(-1, -1) rotate(92.000000) translate(-7.242585, -4.833921) " cx="7.24258499" cy="4.83392103" r="1.81793675"></circle>
                    <circle id="Oval" transform="translate(4.549659, 1.016382) scale(-1, -1) rotate(92.000000) translate(-4.549659, -1.016382) " cx="4.54965946" cy="1.01638235" r="1"></circle>
                </g>
            </g>
        </g>
    </g>
</svg>
