<?xml version="1.0" encoding="UTF-8"?>
<svg width="244px" height="113px" viewBox="0 0 244 113" version="1.1" xmlns="http://www.w3.org/2000/svg" xmlns:xlink="http://www.w3.org/1999/xlink">
    <!-- Generator: Sketch 46.1 (44463) - http://www.bohemiancoding.com/sketch -->
    <title>404</title>
    <desc>Created with Sketch.</desc>
    <defs></defs>
    <g id="Page-1" stroke="none" stroke-width="1" fill="none" fill-rule="evenodd">
        <g id="Illustration-2" transform="translate(-594.000000, -123.000000)">
            <g id="404" transform="translate(593.000000, 122.000000)">
                <g transform="translate(0.083235, 0.672852)">
                    <g id="Group-14" transform="translate(19.415094, 0.909736)" fill="#EFEFEF">
                        <path d="M134.392023,111.607762 L9.41890943,111.607762 C4.31921132,111.607762 0.145890566,107.434442 0.145890566,102.334743 C0.145890566,97.2341208 4.31921132,93.0608 9.41890943,93.0608 L134.392023,93.0608 C139.492645,93.0608 143.665042,97.2341208 143.665042,102.334743 C143.665042,107.434442 139.492645,111.607762 134.392023,111.607762" id="Fill-1"></path>
                        <path d="M172.302675,92.745166 L47.3295623,92.745166 C42.2298642,92.745166 38.0565434,88.5727698 38.0565434,83.4730717 C38.0565434,78.3724491 42.2298642,74.1991283 47.3295623,74.1991283 L172.302675,74.1991283 C177.403298,74.1991283 181.575694,78.3724491 181.575694,83.4730717 C181.575694,88.5727698 177.403298,92.745166 172.302675,92.745166" id="Fill-3"></path>
                        <path d="M188.550058,55.6529981 L63.5769453,55.6529981 C58.4772472,55.6529981 54.3039264,51.4796774 54.3039264,46.3799792 C54.3039264,41.2802811 58.4772472,37.1069604 63.5769453,37.1069604 L188.550058,37.1069604 C193.650681,37.1069604 197.823077,41.2802811 197.823077,46.3799792 C197.823077,51.4796774 193.650681,55.6529981 188.550058,55.6529981" id="Fill-5"></path>
                        <g id="Group-9" transform="translate(53.622642, 0.000000)">
                            <path d="M134.927417,18.5608302 L9.95430377,18.5608302 C4.85460566,18.5608302 0.681284906,14.3875094 0.681284906,9.28781132 C0.681284906,4.18718868 4.85460566,0.0138679245 9.95430377,0.0138679245 L134.927417,0.0138679245 C140.02804,0.0138679245 144.200436,4.18718868 144.200436,9.28781132 C144.200436,14.3875094 140.02804,18.5608302 134.927417,18.5608302" id="Fill-7"></path>
                        </g>
                        <path d="M134.392023,37.1074226 L9.41890943,37.1074226 C4.31921132,37.1074226 0.145890566,32.9341019 0.145890566,27.8344038 C0.145890566,22.7337811 4.31921132,18.5604604 9.41890943,18.5604604 L134.392023,18.5604604 C139.492645,18.5604604 143.665042,22.7337811 143.665042,27.8344038 C143.665042,32.9341019 139.492645,37.1074226 134.392023,37.1074226" id="Fill-10"></path>
                        <path d="M215.629585,74.1995906 L90.6564717,74.1995906 C85.5558491,74.1995906 81.3834528,70.0262698 81.3834528,64.9265717 C81.3834528,59.8259491 85.5558491,55.6526283 90.6564717,55.6526283 L215.629585,55.6526283 C220.729283,55.6526283 224.902604,59.8259491 224.902604,64.9265717 C224.902604,70.0262698 220.729283,74.1995906 215.629585,74.1995906" id="Fill-12"></path>
                    </g>
                    <g id="Group-45" transform="translate(0.000000, 2.758792)">
                        <path d="M184.330604,108.612013 L69.3488679,108.612013 C64.599566,108.612013 60.7489057,104.761353 60.7489057,100.011126 L60.7489057,27.2599943 C60.7489057,22.5097679 64.599566,18.6591075 69.3488679,18.6591075 L184.330604,18.6591075 C189.08083,18.6591075 192.931491,22.5097679 192.931491,27.2599943 L192.931491,100.011126 C192.931491,104.761353 189.08083,108.612013 184.330604,108.612013 Z" id="Fill-18" fill="#FFFFFF"></path>
                        <path d="M184.330604,108.612013 L69.3488679,108.612013 C64.599566,108.612013 60.7489057,104.761353 60.7489057,100.011126 L60.7489057,27.2599943 C60.7489057,22.5097679 64.599566,18.6591075 69.3488679,18.6591075 L184.330604,18.6591075 C189.08083,18.6591075 192.931491,22.5097679 192.931491,27.2599943 L192.931491,100.011126 C192.931491,104.761353 189.08083,108.612013 184.330604,108.612013 Z" id="Stroke-20" stroke="#F59D00"></path>
                        <path d="M62.1167453,30.8884906 C62.1167453,30.8884906 62.9941226,20.0983208 73.6058585,20.0983208 L179.421821,20.0983208 C179.421821,20.0983208 189.787632,19.2283396 190.915557,30.8884906 L62.1167453,30.8884906 Z" id="Fill-22" fill="#FFE3BB"></path>
                        <polygon id="Fill-24" fill="#FFFFFF" points="73.2966038 26.575566 75.4747925 26.575566 75.4747925 24.3973774 73.2966038 24.3973774"></polygon>
                        <polygon id="Fill-26" fill="#FFFFFF" points="77.6529811 26.575566 79.8302453 26.575566 79.8302453 24.3973774 77.6529811 24.3973774"></polygon>
                        <polygon id="Fill-27" fill="#FFFFFF" points="82.008434 26.575566 84.1866226 26.575566 84.1866226 24.3973774 82.008434 24.3973774"></polygon>
                        <polygon id="Fill-28" fill="#FDFFFE" points="59.5960189 73.123717 62.7717736 73.123717 62.7717736 62.1088868 59.5960189 62.1088868"></polygon>
                        <polygon id="Fill-29" fill="#FDFFFE" points="53.1243208 57.3679057 56.3000755 57.3679057 56.3000755 46.3530755 53.1243208 46.3530755"></polygon>
                        <path d="M227.155032,109.094155 L15.7459189,109.094155 C15.4925981,109.094155 15.2836547,109.303098 15.2836547,109.556419 C15.2836547,109.810664 15.4925981,110.018683 15.7459189,110.018683 L227.155032,110.018683 C227.409277,110.018683 227.617296,109.810664 227.617296,109.556419 C227.617296,109.303098 227.409277,109.094155 227.155032,109.094155" id="Fill-30" fill="#9B9B9B"></path>
                        <path d="M12.2689528,110.018683 L1.38633019,110.018683 C1.13300943,110.018683 0.924066038,109.810664 0.924066038,109.556419 C0.924066038,109.303098 1.13300943,109.094155 1.38633019,109.094155 L12.2689528,109.094155 C12.5231981,109.094155 12.731217,109.303098 12.731217,109.556419 C12.731217,109.810664 12.5231981,110.018683 12.2689528,110.018683" id="Fill-31" fill="#9B9B9B"></path>
                        <path d="M243.415543,110.018683 L230.683864,110.018683 C230.430543,110.018683 230.2216,109.810664 230.2216,109.556419 C230.2216,109.303098 230.430543,109.094155 230.683864,109.094155 L243.415543,109.094155 C243.669789,109.094155 243.877808,109.303098 243.877808,109.556419 C243.877808,109.810664 243.669789,110.018683 243.415543,110.018683" id="Fill-32" fill="#9B9B9B"></path>
                        <polygon id="Fill-33" fill="#999999" points="201.994549 54.5515151 204.365964 52.1810245 206.73553 54.5505906 204.364115 56.9210811"></polygon>
                        <path d="M201.849675,23.7134113 L201.849675,26.3196566 L204.107374,25.0160717 L201.849675,23.7134113 Z M200.925147,27.9227887 L200.925147,22.1121283 L205.95643,25.0179208 L200.925147,27.9227887 Z" id="Fill-34" fill="#58DDA0"></path>
                        <path d="M47.0434792,68.8736189 L49.2993283,70.1781283 L49.3002528,67.5709585 L47.0434792,68.8736189 Z M50.2247811,71.7812604 L45.1953472,68.8736189 L50.2257057,65.9687509 L50.2247811,71.7812604 Z" id="Fill-36" fill="#58DDA0"></path>
                        <path d="M220.075642,90.0799358 L222.331491,91.3844453 L222.332415,88.7782 L220.075642,90.0799358 Z M223.256943,92.9875774 L218.227509,90.0799358 L223.257868,87.1750679 L223.256943,92.9875774 Z" id="Fill-37" fill="#58DDA0"></path>
                        <path d="M204.791155,9.09976226 C204.083891,9.09976226 203.422853,8.71793208 203.064136,8.10404528 C202.985551,7.96906415 202.847796,7.88955472 202.6934,7.88955472 C202.513117,7.88955472 202.383683,8.00142264 202.323589,8.10404528 C201.964872,8.71793208 201.302909,9.09976226 200.594721,9.09976226 C199.886532,9.09976226 199.223645,8.71793208 198.864928,8.10404528 C198.786343,7.96906415 198.648589,7.88955472 198.495117,7.88955472 C198.314834,7.88955472 198.184475,8.00142264 198.123457,8.10496981 C197.765664,8.71793208 197.102777,9.09976226 196.395513,9.09976226 C195.687325,9.09976226 195.024438,8.71793208 194.665721,8.10404528 C194.587136,7.96906415 194.449381,7.88955472 194.294985,7.88955472 C194.114702,7.88955472 193.985268,8.00142264 193.924249,8.10496981 C193.566457,8.71793208 192.90357,9.09976226 192.196306,9.09976226 C191.489042,9.09976226 190.827079,8.71793208 190.468362,8.10404528 C190.250174,7.73053585 190.375909,7.24793208 190.751268,7.0297434 C191.126626,6.81063019 191.607381,6.93636604 191.826494,7.31172453 C191.998457,7.60757358 192.457023,7.50587547 192.567966,7.31172453 C192.927608,6.69876226 193.588645,6.3178566 194.295909,6.3178566 C195.007796,6.3178566 195.669758,6.69968679 196.025702,7.31449811 C196.084872,7.41619623 196.21523,7.52806415 196.396438,7.52806415 C196.575796,7.52806415 196.706155,7.41619623 196.766249,7.31172453 C197.125891,6.69876226 197.788777,6.3178566 198.496042,6.3178566 C199.206079,6.3178566 199.867117,6.69968679 200.224909,7.31357358 C200.284079,7.41619623 200.414438,7.52806415 200.595645,7.52806415 C200.775928,7.52806415 200.906287,7.41619623 200.966381,7.31172453 C201.324174,6.69876226 201.98706,6.3178566 202.694325,6.3178566 C203.404362,6.3178566 204.066325,6.69968679 204.424117,7.31357358 C204.483287,7.41619623 204.612721,7.52806415 204.792079,7.52806415 C204.973287,7.52806415 205.103645,7.41712075 205.16374,7.31357358 C205.381004,6.93913962 205.860834,6.81063019 206.238042,7.02881887 C206.612475,7.24608302 206.74006,7.72868679 206.521872,8.10312075 C206.164079,8.71793208 205.500268,9.09976226 204.791155,9.09976226" id="Fill-38" fill="#999999"></path>
                        <path d="M45.2088792,101.876732 C44.5016151,101.876732 43.8405774,101.494902 43.4818604,100.881015 C43.4032755,100.745109 43.2655208,100.6656 43.1111245,100.6656 C42.9308415,100.6656 42.8014075,100.777468 42.7413132,100.881015 C42.3825962,101.494902 41.720634,101.876732 41.0124453,101.876732 C40.3042566,101.876732 39.6413698,101.494902 39.2826528,100.881015 C39.2040679,100.745109 39.0663132,100.6656 38.9128415,100.6656 C38.7325585,100.6656 38.6022,100.777468 38.5411811,100.88194 C38.1833887,101.494902 37.5205019,101.876732 36.8132377,101.876732 C36.1050491,101.876732 35.4421623,101.494902 35.0834453,100.881015 C35.0048604,100.745109 34.8671057,100.6656 34.7127094,100.6656 C34.5324264,100.6656 34.4029925,100.777468 34.3419736,100.88194 C33.9841811,101.494902 33.3212943,101.876732 32.6140302,101.876732 C31.906766,101.876732 31.2448038,101.494902 30.8860868,100.881015 C30.6678981,100.506581 30.793634,100.023977 31.1689925,99.8067132 C31.5443509,99.5866755 32.0251057,99.7124113 32.2442189,100.08777 C32.4161811,100.384543 32.8747472,100.281921 32.9856906,100.08777 C33.3453321,99.4748075 34.0063698,99.0939019 34.713634,99.0939019 C35.4255208,99.0939019 36.087483,99.4757321 36.4434264,100.090543 C36.5025962,100.193166 36.6329547,100.305034 36.8141623,100.305034 C36.9935208,100.305034 37.1238792,100.193166 37.1839736,100.08777 C37.5436151,99.4748075 38.2065019,99.0939019 38.913766,99.0939019 C39.6238038,99.0939019 40.2848415,99.4757321 40.642634,100.089619 C40.7018038,100.193166 40.8321623,100.305034 41.0133698,100.305034 C41.1936528,100.305034 41.3240113,100.193166 41.3841057,100.08777 C41.7418981,99.4748075 42.4047849,99.0939019 43.1120491,99.0939019 C43.8220868,99.0939019 44.4840491,99.4757321 44.8418415,100.089619 C44.9010113,100.193166 45.0304453,100.305034 45.2098038,100.305034 C45.3910113,100.305034 45.5213698,100.194091 45.5814642,100.089619 C45.7987283,99.7151849 46.2785585,99.5866755 46.655766,99.8057887 C47.0302,100.022128 47.1577849,100.504732 46.9395962,100.880091 C46.5818038,101.494902 45.9179925,101.876732 45.2088792,101.876732" id="Fill-39" fill="#F59D00"></path>
                        <polygon id="Fill-40" fill="#58DDA0" points="89.4717456 9.56079334 92.8240852 9.56079334 92.8240852 6.20845371 89.4717456 6.20845371"></polygon>
                        <path d="M144.206538,1.23137925 L145.510123,3.48815283 L146.813708,1.23137925 L144.206538,1.23137925 Z M145.510123,5.33813396 L142.60433,0.307775472 L148.415915,0.307775472 L145.510123,5.33813396 Z" id="Fill-41" fill="#F59D00"></path>
                    </g>
                    <g id="Page-1" transform="translate(108.913754, 50.742188)">
                        <g id="Group-4" transform="translate(0.000000, 0.000000)"></g>
                    </g>
                    <path d="M60.6638169,104.372547 L66.38452,96.4711799 L70.9255356,102.268055 L74.4675278,96.4711799 L77.650145,100.421864 L80.4138169,104.372547 L84.4353013,96.4711799 L88.6872544,100.421864 L93.3669419,94.8246955 L100.44702,102.268055 L102.994872,96.4711799 L107.597411,102.268055 L112.748778,94.8246955 L120.51245,102.268055 L123.719481,96.4711799 L131.247801,102.268055 L138.240965,91.3139534 L142.498778,96.4711799 L146.261473,102.268055 L149.351317,97.8432502 L153.658934,102.268055 L156.841551,106.072742 L159.455809,98.6933479 L161.942137,102.268055 L164.81909,96.4711799 L169.551512,104.372547 C172.28133,98.44937 173.813882,95.815581 174.149168,96.4711799 C174.484455,97.1267789 176.460366,99.0590705 180.076903,102.268055 L182.428465,97.8432502 L185.336668,104.372547 L188.568114,97.8432502 L191.458739,102.268055 L193.055907,98.7011604" id="Path-3" stroke="#F59D00"></path>
                    <polygon id="Path-5" fill="#FFFFFF" points="60.6641609 105.939779 185.318458 108.118164 191.438901 106.328776 192.759864 101.812826 196.145281 101.054362 193.503354 110.035482 187.134864 111.822591 63.7709318 111.926758"></polygon>
                </g>
                <path d="" id="Path-6" stroke="#979797"></path>
                <g id="Page-1" transform="translate(109.500000, 50.437988)" fill="#4CD093">
                    <path d="M2.01508217,4.92604001 C2.01508217,3.69150748 3.01923131,2.68735834 4.25376383,2.68735834 C5.48829636,2.68735834 6.4924455,3.69217915 6.4924455,4.92604001 C6.4924455,5.48285582 6.94380886,5.93354751 7.499953,5.93354751 C8.05609714,5.93354751 8.5074605,5.48285582 8.5074605,4.92604001 C8.5074605,2.58056254 6.59924129,0.672343339 4.25376383,0.672343339 C1.90828637,0.672343339 6.71671667e-05,2.58056254 6.71671667e-05,4.92604001 C6.71671667e-05,5.48285582 0.451430527,5.93354751 1.00757467,5.93354751 C1.56371881,5.93354751 2.01508217,5.48285582 2.01508217,4.92604001" id="Fill-1"></path>
                    <g id="Group-5" transform="translate(23.508508, 0.559502)">
                        <path d="M0.371031429,4.36586583 C0.371031429,4.92268165 0.822394789,5.37337334 1.37853893,5.37337334 C1.93468307,5.37337334 2.38604643,4.92268165 2.38604643,4.36586583 C2.38604643,3.13133331 3.39019557,2.12718417 4.6247281,2.12718417 C5.85926062,2.12718417 6.86340976,3.13200498 6.86340976,4.36586583 C6.86340976,4.92268165 7.31477312,5.37337334 7.87091726,5.37337334 C8.42638973,5.37337334 8.87842476,4.92268165 8.87842476,4.36586583 C8.87842476,2.02106005 6.97020556,0.112169168 4.6247281,0.112169168 C2.27925063,0.112169168 0.371031429,2.02038837 0.371031429,4.36586583 Z" id="Fill-3"></path>
                    </g>
                    <path d="M16.1933322,18.2473042 C10.2617997,18.2473042 4.71312009,21.441103 1.71276275,26.5827496 C1.43267567,27.0629948 1.59454854,27.6802611 2.07546545,27.9603482 C2.55436735,28.2397636 3.17230528,28.0785624 3.45373571,27.5976454 C6.09407703,23.0739368 10.975115,20.2623192 16.1933322,20.2623192 C21.4115494,20.2623192 26.2925874,23.0732651 28.9329287,27.5983171 C29.1203251,27.9193762 29.4575043,28.0980408 29.8040869,28.0980408 C29.9767065,28.0980408 30.1520128,28.0537105 30.311199,27.9603482 C30.7921159,27.6802611 30.9539888,27.0629948 30.6739017,26.5827496 C27.6735443,21.4417746 22.1248647,18.2473042 16.1933322,18.2473042" id="Fill-6"></path>
                </g>
            </g>
        </g>
    </g>
</svg>