<?xml version="1.0" encoding="UTF-8"?>
<svg width="228px" height="123px" viewBox="0 0 228 123" version="1.1" xmlns="http://www.w3.org/2000/svg" xmlns:xlink="http://www.w3.org/1999/xlink">
    <!-- Generator: Sketch 46.1 (44463) - http://www.bohemiancoding.com/sketch -->
    <title>New Projects</title>
    <desc>Created with Sketch.</desc>
    <defs></defs>
    <g id="Page-1" stroke="none" stroke-width="1" fill="none" fill-rule="evenodd">
        <g id="Illustration-2" transform="translate(-189.000000, -116.000000)">
            <g id="New-Projects" transform="translate(187.000000, 113.000000)">
                <g id="New-projects" transform="translate(0.753035, 0.476562)">
                    <g id="New-Experiment" transform="translate(0.343750, 0.796875)">
                        <g id="Group-14" transform="translate(0.000000, 0.949000)"></g>
                        <g id="Group-13" transform="translate(0.000000, 0.949000)" fill="#F3F3F3">
                            <path d="M53.3380699,20.8606 L14.8595,20.8606 C9.3425,20.8606 4.8295,25.3746 4.8295,30.8916 C4.8295,36.4076 9.3425,40.9216 14.8595,40.9216 L150.0345,40.9216 C155.5505,40.9216 160.0645,36.4076 160.0645,30.8916 C160.0645,25.4081497 155.605234,20.9155378 150.135019,20.8611 L188.6136,20.8611 C194.1306,20.8611 198.6436,16.3481 198.6436,10.8311 C198.6436,5.3151 194.1306,0.8011 188.6136,0.8011 L53.4386,0.8011 C47.9226,0.8011 43.4086,5.3151 43.4086,10.8311 C43.4086,16.3145465 47.8678602,20.8061683 53.3380699,20.8606 Z M217.9032,81.0417 L82.7282,81.0417 C77.2122,81.0417 72.6982,76.5277 72.6982,71.0117 C72.6982,65.4957 77.2122,60.9817 82.7282,60.9817 L217.9032,60.9817 C223.4202,60.9817 227.9332,65.4957 227.9332,71.0117 C227.9332,76.5277 223.4202,81.0417 217.9032,81.0417 Z M130.0345,121.4089 L10.9455,121.4089 C5.4295,121.4089 0.9155,116.8949 0.9155,111.3789 C0.9155,105.8619 5.4295,101.3489 10.9455,101.3489 L130.0345,101.3489 C135.5505,101.3489 140.0645,105.8619 140.0645,111.3789 C140.0645,116.8949 135.5505,121.4089 130.0345,121.4089 Z M171.0399,101.1018 L35.8649,101.1018 C30.3489,101.1018 25.8349,96.5888 25.8349,91.0718 C25.8349,85.5558 30.3489,81.0418 35.8649,81.0418 L171.0399,81.0418 C176.5569,81.0418 181.0699,85.5558 181.0699,91.0718 C181.0699,96.5888 176.5569,101.1018 171.0399,101.1018 Z M188.6136,60.9817 L53.4386,60.9817 C47.9226,60.9817 43.4086,56.4677 43.4086,50.9517 C43.4086,45.4347 47.9226,40.9217 53.4386,40.9217 L188.6136,40.9217 C194.1306,40.9217 198.6436,45.4347 198.6436,50.9517 C198.6436,56.4677 194.1306,60.9817 188.6136,60.9817 Z" id="Fill-11"></path>
                        </g>
                        <g id="Group-48" transform="translate(4.000000, 8.949000)">
                            <g id="Group-28" transform="translate(15.000000, 114.000000)" fill="#9B9B9B">
                                <path d="M179.772669,0.0002 L0.619731405,0.0002 C0.386789132,0.0002 0.1962,0.2252 0.1962,0.5002 C0.1962,0.7752 0.386789132,1.0002 0.619731405,1.0002 L179.772669,1.0002 C180.005611,1.0002 180.1962,0.7752 180.1962,0.5002 C180.1962,0.2252 180.005611,0.0002 179.772669,0.0002" id="Fill-26"></path>
                            </g>
                            <g id="Group-31" transform="translate(0.000000, 114.000000)" fill="#9B9B9B">
                                <path d="M11.3158,1.0002 L0.4998,1.0002 C0.2248,1.0002 -0.0002,0.7752 -0.0002,0.5002 C-0.0002,0.2252 0.2248,0.0002 0.4998,0.0002 L11.3158,0.0002 C11.5908,0.0002 11.8158,0.2252 11.8158,0.5002 C11.8158,0.7752 11.5908,1.0002 11.3158,1.0002" id="Fill-29"></path>
                            </g>
                            <g id="Group-34" transform="translate(198.000000, 114.000000)" fill="#9B9B9B">
                                <path d="M14.9574,1.0002 L1.1874,1.0002 C0.9124,1.0002 0.6874,0.7752 0.6874,0.5002 C0.6874,0.2252 0.9124,0.0002 1.1874,0.0002 L14.9574,0.0002 C15.2324,0.0002 15.4574,0.2252 15.4574,0.5002 C15.4574,0.7752 15.2324,1.0002 14.9574,1.0002" id="Fill-32"></path>
                            </g>
                            <polygon id="Fill-39" fill="#999999" points="14.7633771 21.8313172 17.3283771 19.2673172 19.8913771 21.8303172 17.3263771 24.3943172"></polygon>
                            <path d="M45.5787896,44.3324057 L48.0187896,45.7434057 L48.0197896,42.9234057 L45.5787896,44.3324057 Z M49.0197896,47.4764057 L43.5797896,44.3324057 L49.0207896,41.1904057 L49.0197896,47.4764057 Z" id="Fill-41" fill="#58DDA0"></path>
                            <polygon id="Fill-43" fill="#58DDA0" points="69.9284245 84.7854271 73.5544245 84.7854271 73.5544245 81.1594271 69.9284245 81.1594271"></polygon>
                            <polygon id="Fill-45" fill="#C49AE9" points="165.104304 83.7932187 167.669304 81.2292188 170.232304 83.7922188 167.667304 86.3562187"></polygon>
                            <path d="M39.8782688,106.753587 C39.1132688,106.753587 38.3982688,106.340587 38.0102688,105.676587 C37.9252688,105.530587 37.7762688,105.444587 37.6092688,105.444587 C37.4142688,105.444587 37.2742688,105.564587 37.2092688,105.676587 C36.8212688,106.340587 36.1052688,106.753587 35.3392688,106.753587 C34.5732688,106.753587 33.8562688,106.340587 33.4682688,105.676587 C33.3832688,105.530587 33.2342688,105.444587 33.0682688,105.444587 C32.8732688,105.444587 32.7322688,105.564587 32.6662688,105.677587 C32.2792688,106.340587 31.5622688,106.753587 30.7972688,106.753587 C30.0312688,106.753587 29.3142688,106.340587 28.9262688,105.676587 C28.8412688,105.530587 28.6922688,105.444587 28.5252688,105.444587 C28.3302688,105.444587 28.1902688,105.564587 28.1242688,105.677587 C27.7372688,106.340587 27.0202688,106.753587 26.2552688,106.753587 C25.4902688,106.753587 24.7742688,106.340587 24.3862688,105.676587 C24.1502688,105.271587 24.2862688,104.750587 24.6922688,104.514587 C25.0982688,104.277587 25.6182688,104.413587 25.8552688,104.819587 C26.0412688,105.139587 26.5372688,105.029587 26.6572688,104.819587 C27.0462688,104.156588 27.7612688,103.744587 28.5262688,103.744587 C29.2962688,103.744587 30.0122688,104.157587 30.3972688,104.822587 C30.4612688,104.932587 30.6022688,105.053587 30.7982688,105.053587 C30.9922688,105.053587 31.1332688,104.932587 31.1982688,104.819587 C31.5872688,104.156588 32.3042688,103.744587 33.0692688,103.744587 C33.8372688,103.744587 34.5522688,104.157587 34.9392688,104.821587 C35.0032688,104.932587 35.1442688,105.053587 35.3402688,105.053587 C35.5352688,105.053587 35.6762688,104.932587 35.7412688,104.819587 C36.1282688,104.156588 36.8452688,103.744587 37.6102688,103.744587 C38.3782688,103.744587 39.0942688,104.157587 39.4812688,104.821587 C39.5452688,104.932587 39.6852688,105.053587 39.8792688,105.053587 C40.0752688,105.053587 40.2162688,104.933587 40.2812688,104.821587 C40.5162688,104.416587 41.0352688,104.277587 41.4432688,104.513587 C41.8482688,104.748587 41.9862688,105.269588 41.7502688,105.675587 C41.3632688,106.340587 40.6452688,106.753587 39.8782688,106.753587" id="Fill-46" fill="#7EE1E6"></path>
                            <path d="M182.569675,3.89128281 C181.804675,3.89128281 181.089675,3.47828281 180.701675,2.81428281 C180.616675,2.66828281 180.467675,2.58228281 180.300675,2.58228281 C180.105675,2.58228281 179.965675,2.70228281 179.900675,2.81428281 C179.512675,3.47828281 178.796675,3.89128281 178.030675,3.89128281 C177.264675,3.89128281 176.547675,3.47828281 176.159675,2.81428281 C176.074675,2.66828281 175.925675,2.58228281 175.759675,2.58228281 C175.564675,2.58228281 175.423675,2.70228281 175.357675,2.81528281 C174.970675,3.47828281 174.253675,3.89128281 173.488675,3.89128281 C172.722675,3.89128281 172.005675,3.47828281 171.617675,2.81428281 C171.532675,2.66828281 171.383675,2.58228281 171.216675,2.58228281 C171.021675,2.58228281 170.881675,2.70228281 170.815675,2.81528281 C170.428675,3.47828281 169.711675,3.89128281 168.946675,3.89128281 C168.181675,3.89128281 167.465675,3.47828281 167.077675,2.81428281 C166.841675,2.40928281 166.977675,1.88828281 167.383675,1.65228281 C167.789675,1.41528281 168.309675,1.55128281 168.546675,1.95728281 C168.732675,2.27728281 169.228675,2.16728281 169.348675,1.95728281 C169.737675,1.29428281 170.452675,0.882282812 171.217675,0.882282812 C171.987675,0.882282812 172.703675,1.29528281 173.088675,1.96028281 C173.152675,2.07028281 173.293675,2.19128281 173.489675,2.19128281 C173.683675,2.19128281 173.824675,2.07028281 173.889675,1.95728281 C174.278675,1.29428281 174.995675,0.882282812 175.760675,0.882282812 C176.528675,0.882282812 177.243675,1.29528281 177.630675,1.95928281 C177.694675,2.07028281 177.835675,2.19128281 178.031675,2.19128281 C178.226675,2.19128281 178.367675,2.07028281 178.432675,1.95728281 C178.819675,1.29428281 179.536675,0.882282812 180.301675,0.882282812 C181.069675,0.882282812 181.785675,1.29528281 182.172675,1.95928281 C182.236675,2.07028281 182.376675,2.19128281 182.570675,2.19128281 C182.766675,2.19128281 182.907675,2.07128281 182.972675,1.95928281 C183.207675,1.55428281 183.726675,1.41528281 184.134675,1.65128281 C184.539675,1.88628281 184.677675,2.40728281 184.441675,2.81328281 C184.054675,3.47828281 183.336675,3.89128281 182.569675,3.89128281" id="Fill-46" fill="#F59D00"></path>
                        </g>
                    </g>
                    <circle id="Oval" fill="#4CD093" cx="74.5692056" cy="25.8663412" r="3.57311188"></circle>
                    <circle id="Oval" fill="#4CD093" cx="107.569206" cy="16.8663412" r="3.57311188"></circle>
                    <circle id="Oval" fill="#4CD093" cx="79.4042856" cy="19.5133442" r="1.45035594"></circle>
                    <circle id="Oval" fill="#4CD093" cx="112.404286" cy="24.5133442" r="1.45035594"></circle>
                    <circle id="Oval" fill="#4CD093" cx="77.1005747" cy="15.5270161" r="1"></circle>
                    <circle id="Oval" fill="#4CD093" cx="144.569206" cy="25.8663412" r="3.57311188"></circle>
                    <circle id="Oval" fill="#4CD093" cx="149.404286" cy="19.5133442" r="1.45035594"></circle>
                    <circle id="Oval" fill="#4CD093" cx="147.100575" cy="15.5270161" r="1"></circle>
                    <circle id="Oval" fill="#4CD093" cx="109.100575" cy="29.5270161" r="1"></circle>
                </g>
                <g id="Group-3" transform="translate(54.936167, 31.261719)">
                    <g id="Group-2" transform="translate(8.082267, 0.000000)">
                        <g id="Page-1" transform="translate(47.769152, 38.846668) rotate(-360.000000) translate(-47.769152, -38.846668) translate(0.269152, 0.846668)">
                            <g id="Group" fill="#F59D00">
                                <path d="M22.7973114,6.11680361 L20.1556729,8.75701723 C20.0231635,8.89095143 19.9476474,9.07190509 19.9476474,9.26140774 L19.9476474,39.8952949 L4.27449588,39.8952949 L4.27449588,9.26140774 C4.27449588,9.07190509 4.19897979,8.89095143 4.06647041,8.75701723 L1.42483196,6.11680361 L1.42483196,1.42483196 L22.7973114,1.42483196 L22.7973114,6.11680361 Z M12.1110717,74.0912619 C7.78955633,74.0912619 4.27449588,70.5747767 4.27449588,66.2546862 L4.27449588,41.3201268 L19.9476474,41.3201268 L19.9476474,66.2546862 C19.9476474,70.5747767 16.432587,74.0912619 12.1110717,74.0912619 L12.1110717,74.0912619 Z M0.71241598,0 C0.319162359,0 5.68434189e-14,0.319162359 5.68434189e-14,0.71241598 L5.68434189e-14,6.41174382 C5.68434189e-14,6.60124647 0.0755160939,6.78220013 0.208025466,6.91613434 L2.84966392,9.55634796 L2.84966392,66.2546862 C2.84966392,71.3612839 7.00447392,75.5160939 12.1110717,75.5160939 C17.2176694,75.5160939 21.3724794,71.3612839 21.3724794,66.2546862 L21.3724794,9.55634796 L24.0141179,6.91613434 C24.1466272,6.78220013 24.2221433,6.60124647 24.2221433,6.41174382 L24.2221433,0.71241598 C24.2221433,0.319162359 23.902981,0 23.5097273,0 L0.71241598,0 Z" id="Fill-1"></path>
                            </g>
                            <g id="Group" transform="translate(35.185294, 0.000000)">
                                <path d="M22.7973114,6.11680361 L20.1556729,8.75701723 C20.0231635,8.89095143 19.9476474,9.07190509 19.9476474,9.26140774 L19.9476474,39.8952949 L4.27449588,39.8952949 L4.27449588,9.26140774 C4.27449588,9.07190509 4.19897979,8.89095143 4.06647041,8.75701723 L1.42483196,6.11680361 L1.42483196,1.42483196 L22.7973114,1.42483196 L22.7973114,6.11680361 Z M12.1110717,74.0912619 C7.78955633,74.0912619 4.27449588,70.5747767 4.27449588,66.2546862 L4.27449588,41.3201268 L19.9476474,41.3201268 L19.9476474,66.2546862 C19.9476474,70.5747767 16.432587,74.0912619 12.1110717,74.0912619 L12.1110717,74.0912619 Z M0.71241598,0 C0.319162359,0 5.68434189e-14,0.319162359 5.68434189e-14,0.71241598 L5.68434189e-14,6.41174382 C5.68434189e-14,6.60124647 0.0755160939,6.78220013 0.208025466,6.91613434 L2.84966392,9.55634796 L2.84966392,66.2546862 C2.84966392,71.3612839 7.00447392,75.5160939 12.1110717,75.5160939 C17.2176694,75.5160939 21.3724794,71.3612839 21.3724794,66.2546862 L21.3724794,9.55634796 L24.0141179,6.91613434 C24.1466272,6.78220013 24.2221433,6.60124647 24.2221433,6.41174382 L24.2221433,0.71241598 C24.2221433,0.319162359 23.902981,0 23.5097273,0 L0.71241598,0 Z" id="Fill-1" fill="#F59D00"></path>
                                <rect id="Rectangle" fill="#FFFFFF" x="4.27183836" y="36.2848346" width="15.6862859" height="9.89586397"></rect>
                            </g>
                            <path d="M93.1678996,6.11680361 L90.5262611,8.75701723 C90.3937518,8.89095143 90.3182357,9.07190509 90.3182357,9.26140774 L90.3182357,39.8952949 L74.6450841,39.8952949 L74.6450841,9.26140774 C74.6450841,9.07190509 74.569568,8.89095143 74.4370586,8.75701723 L71.7954202,6.11680361 L71.7954202,1.42483196 L93.1678996,1.42483196 L93.1678996,6.11680361 Z M82.4816599,74.0912619 C78.1601446,74.0912619 74.6450841,70.5747767 74.6450841,66.2546862 L74.6450841,41.3201268 L90.3182357,41.3201268 L90.3182357,66.2546862 C90.3182357,70.5747767 86.8031752,74.0912619 82.4816599,74.0912619 L82.4816599,74.0912619 Z M71.0830042,0 C70.6897506,0 70.3705882,0.319162359 70.3705882,0.71241598 L70.3705882,6.41174382 C70.3705882,6.60124647 70.4461043,6.78220013 70.5786137,6.91613434 L73.2202522,9.55634796 L73.2202522,66.2546862 C73.2202522,71.3612839 77.3750622,75.5160939 82.4816599,75.5160939 C87.5882576,75.5160939 91.7430676,71.3612839 91.7430676,66.2546862 L91.7430676,9.55634796 L94.3847061,6.91613434 C94.5172155,6.78220013 94.5927316,6.60124647 94.5927316,6.41174382 L94.5927316,0.71241598 C94.5927316,0.319162359 94.2735692,0 93.8803156,0 L71.0830042,0 Z" id="Fill-1" fill="#F59D00"></path>
                        </g>
                        <rect id="Rectangle" fill="#F5F5F5" x="4.54098995" y="37.1315022" width="15.6862859" height="9.89586397"></rect>
                        <path d="M4.53884484,47.8581685 C4.69139316,47.9343786 4.84394147,48.0150716 5.01174462,48.1002475 C5.92194957,48.5844056 7.0508071,49.1806374 9.16614373,49.1806374 C11.2763954,49.1806374 12.4103379,48.5844056 13.3205428,48.1002475 C14.032435,47.7281631 14.5002498,47.4771181 15.6087676,47.4771181 C16.7223703,47.4771181 17.1901851,47.7281631 17.9020772,48.1002475 C18.5071855,48.4230196 19.2139927,48.7951041 20.2462363,49.0058025 L20.2462363,68.0314227 C20.2462363,71.8508921 16.7223703,74.9575733 12.3899981,74.9575733 C8.06271092,74.9575733 4.53884484,71.8508921 4.53884484,68.0314227 L4.53884484,47.8581685 Z" id="Fill-6" fill="#4CD093"></path>
                        <rect id="Rectangle" fill="#F5F5F5" x="74.9115782" y="37.1315022" width="15.6862859" height="9.89586397"></rect>
                        <path d="M74.9094331,47.8581685 C75.0619814,47.9343786 75.2145297,48.0150716 75.3823329,48.1002475 C76.2925378,48.5844056 77.4213953,49.1806374 79.536732,49.1806374 C81.6469837,49.1806374 82.7809261,48.5844056 83.6911311,48.1002475 C84.4030232,47.7281631 84.870838,47.4771181 85.9793558,47.4771181 C87.0929585,47.4771181 87.5607733,47.7281631 88.2726655,48.1002475 C88.8777738,48.4230196 89.584581,48.7951041 90.6168246,49.0058025 L90.6168246,68.0314227 C90.6168246,71.8508921 87.0929585,74.9575733 82.7605864,74.9575733 C78.4332992,74.9575733 74.9094331,71.8508921 74.9094331,68.0314227 L74.9094331,47.8581685 Z" id="Fill-6" fill="#4CD093"></path>
                        <path d="M39.7044181,36.4610839 C39.8569664,36.5695408 40.0095147,36.6843776 40.1773179,36.8055942 C41.0875228,37.494615 42.2163803,38.3431312 44.331717,38.3431312 C46.4419687,38.3431312 47.5759111,37.494615 48.4861161,36.8055942 C49.1980082,36.276069 49.6658231,35.918799 50.7743408,35.918799 C51.8879435,35.918799 52.3557583,36.276069 53.0676505,36.8055942 C53.6727588,37.2649414 54.379566,37.7944666 55.4118096,38.0943182 L55.3696406,67.0330227 C55.3696406,72.4686307 51.859403,74.9889225 47.5270309,74.9889225 C43.1997437,74.9889225 39.6525321,71.9936516 39.6525321,66.5580436 L39.7044181,36.4610839 Z" id="Fill-6" fill="#4CD093"></path>
                    </g>
                    <rect id="Rectangle-7" stroke="#979797" stroke-width="1.3" x="1.10957354" y="30.6937716" width="110.704945" height="57.7512172" rx="6"></rect>
                    <rect id="Rectangle-8" fill="#979797" x="16.2047994" y="88.6912513" width="3.29862132" height="4.39816176"></rect>
                    <rect id="Rectangle-8" fill="#979797" x="95.3464776" y="88.6912513" width="3.29862132" height="4.39816176"></rect>
                </g>
            </g>
        </g>
    </g>
</svg>