<?xml version="1.0" encoding="UTF-8"?>
<svg width="246px" height="123px" viewBox="0 0 246 123" version="1.1" xmlns="http://www.w3.org/2000/svg" xmlns:xlink="http://www.w3.org/1999/xlink">
    <!-- Generator: Sketch 46.1 (44463) - http://www.bohemiancoding.com/sketch -->
    <title>New Goal</title>
    <desc>Created with Sketch.</desc>
    <defs></defs>
    <g id="Page-1" stroke="none" stroke-width="1" fill="none" fill-rule="evenodd">
        <g id="Illustrations" transform="translate(-582.000000, -117.000000)">
            <g id="New-Goal" transform="translate(582.613281, 117.964844)">
                <path d="M148.944578,120.472747 L28.3401554,120.472747 C22.956988,120.472747 18.5508924,116.066651 18.5508924,110.682508 C18.5508924,105.297388 22.956988,100.891293 28.3401554,100.891293 L148.944578,100.891293 C154.329697,100.891293 158.734817,105.297388 158.734817,110.682508 C158.734817,116.066651 154.329697,120.472747 148.944578,120.472747 Z" id="Fill-1" fill="#F5F5F5"></path>
                <path d="M188.970159,100.558542 L57.0264343,100.558542 C51.6422908,100.558542 47.2361952,96.1524462 47.2361952,90.7683028 C47.2361952,85.3841594 51.6422908,80.9780637 57.0264343,80.9780637 L188.970159,80.9780637 C194.355279,80.9780637 198.760398,85.3841594 198.760398,90.7683028 C198.760398,96.1524462 194.355279,100.558542 188.970159,100.558542" id="Fill-3" fill="#EAEAEA"></path>
                <path d="M206.12338,61.397488 L74.1796554,61.397488 C68.795512,61.397488 64.3903924,56.9913924 64.3903924,51.607249 C64.3903924,46.2221295 68.795512,41.8160339 74.1796554,41.8160339 L206.12338,41.8160339 C211.5085,41.8160339 215.91362,46.2221295 215.91362,51.607249 C215.91362,56.9913924 211.5085,61.397488 206.12338,61.397488" id="Fill-5" fill="#F5F5F5"></path>
                <path d="M206.12338,22.2359462 L74.1796554,22.2359462 C68.795512,22.2359462 64.3903924,17.8308267 64.3903924,12.4457072 C64.3903924,7.06156375 68.795512,2.65546813 74.1796554,2.65546813 L206.12338,2.65546813 C211.5085,2.65546813 215.91362,7.06156375 215.91362,12.4457072 C215.91362,17.8308267 211.5085,22.2359462 206.12338,22.2359462" id="Fill-7" fill="#F5F5F5"></path>
                <path d="M148.944578,41.8165219 L17.0008526,41.8165219 C11.6167092,41.8165219 7.21061355,37.4114024 7.21061355,32.0262829 C7.21061355,26.6421394 11.6167092,22.2360438 17.0008526,22.2360438 L148.944578,22.2360438 C154.329697,22.2360438 158.734817,26.6421394 158.734817,32.0262829 C158.734817,37.4114024 154.329697,41.8165219 148.944578,41.8165219" id="Fill-9" fill="#F5F5F5"></path>
                <g id="Group-13" transform="translate(92.729084, 60.088446)" fill="#F5F5F5">
                    <path d="M141.984137,19.9135219 L10.0404124,19.9135219 C4.65626892,19.9135219 0.250173307,15.5074263 0.250173307,10.1232829 C0.250173307,4.73816335 4.65626892,0.333043825 10.0404124,0.333043825 L141.984137,0.333043825 C147.369257,0.333043825 151.774376,4.73816335 151.774376,10.1232829 C151.774376,15.5074263 147.369257,19.9135219 141.984137,19.9135219" id="Fill-11"></path>
                </g>
                <path d="M174.977926,114.242036 L53.5838426,114.242036 C48.5686633,114.242036 44.5032251,110.176598 44.5032251,105.162394 L44.5032251,28.3524542 C44.5032251,23.3372749 48.5686633,19.2718367 53.5838426,19.2718367 L174.977926,19.2718367 C179.993106,19.2718367 184.058544,23.3372749 184.058544,28.3524542 L184.058544,105.162394 C184.058544,110.176598 179.993106,114.242036 174.977926,114.242036" id="Fill-14" fill="#FFFFFF"></path>
                <path d="M174.977926,114.242036 L53.5838426,114.242036 C48.5686633,114.242036 44.5032251,110.176598 44.5032251,105.162394 L44.5032251,28.3524542 C44.5032251,23.3372749 48.5686633,19.2718367 53.5838426,19.2718367 L174.977926,19.2718367 C179.993106,19.2718367 184.058544,23.3372749 184.058544,28.3524542 L184.058544,105.162394 C184.058544,110.176598 179.993106,114.242036 174.977926,114.242036 Z" id="Stroke-16" stroke="#888888"></path>
                <path d="M45.4946454,32.4715777 C45.4946454,32.4715777 46.4209602,21.0795657 57.6255618,21.0795657 L169.34361,21.0795657 C169.34361,21.0795657 180.287594,20.1600837 181.477454,32.4715777 L45.4946454,32.4715777 Z" id="Fill-18" fill="#E0E0E0"></path>
                <path d="M181.810596,120.09861 L60.416512,120.09861 C55.4013327,120.09861 51.3358944,116.033171 51.3358944,111.018968 L51.3358944,34.2090279 C51.3358944,29.1938486 55.4013327,25.1284104 60.416512,25.1284104 L181.810596,25.1284104 C186.825775,25.1284104 190.891213,29.1938486 190.891213,34.2090279 L190.891213,111.018968 C190.891213,116.033171 186.825775,120.09861 181.810596,120.09861" id="Fill-26" fill="#FFFFFF"></path>
                <path d="M181.810596,120.09861 L60.416512,120.09861 C55.4013327,120.09861 51.3358944,116.033171 51.3358944,111.018968 L51.3358944,34.2090279 C51.3358944,29.1938486 55.4013327,25.1284104 60.416512,25.1284104 L181.810596,25.1284104 C186.825775,25.1284104 190.891213,29.1938486 190.891213,34.2090279 L190.891213,111.018968 C190.891213,116.033171 186.825775,120.09861 181.810596,120.09861 Z" id="Stroke-28" stroke="#F59D00"></path>
                <path d="M52.1728964,37.2033964 C52.1728964,37.2033964 53.1001873,25.8123606 64.3038127,25.8123606 L176.021861,25.8123606 C176.021861,25.8123606 186.965845,24.8928785 188.155705,37.2033964 L52.1728964,37.2033964 Z" id="Fill-30" fill="#FFE3BB"></path>
                <polygon id="Fill-32" fill="#FFFFFF" points="63.9440239 32.6494223 66.2437052 32.6494223 66.2437052 30.349741 63.9440239 30.349741"></polygon>
                <polygon id="Fill-34" fill="#FFFFFF" points="68.5433865 32.6494223 70.8420916 32.6494223 70.8420916 30.349741 68.5433865 30.349741"></polygon>
                <polygon id="Fill-35" fill="#FFFFFF" points="73.1417729 32.6494223 75.4404781 32.6494223 75.4404781 30.349741 73.1417729 30.349741"></polygon>
                <polygon id="Fill-36" fill="#FDFFFE" points="49.4773108 81.7938845 52.8311753 81.7938845 52.8311753 70.1646813 49.4773108 70.1646813"></polygon>
                <polygon id="Fill-37" fill="#FDFFFE" points="42.6446414 65.1592629 45.998506 65.1592629 45.998506 53.5290837 42.6446414 53.5290837"></polygon>
                <polygon id="Fill-38" fill="#F4F4F4" points="56.023008 75.9792829 186.202928 75.9792829 186.202928 41.3405777 56.023008 41.3405777"></polygon>
                <polygon id="Fill-39" fill="#F4F4F4" points="56.0552191 112.508685 98.0263546 112.508685 98.0263546 78.8743825 56.0552191 78.8743825"></polygon>
                <path d="M226.384002,120.606179 L14.8592012,120.606179 C14.5907749,120.606179 14.3711534,120.825801 14.3711534,121.094227 C14.3711534,121.362653 14.5907749,121.582275 14.8592012,121.582275 L226.384002,121.582275 C226.651452,121.582275 226.87205,121.362653 226.87205,121.094227 C226.87205,120.825801 226.651452,120.606179 226.384002,120.606179" id="Fill-40" fill="#9B9B9B"></path>
                <path d="M11.327492,121.582275 L0.488926295,121.582275 C0.219523904,121.582275 0.000878486056,121.362653 0.000878486056,121.094227 C0.000878486056,120.825801 0.219523904,120.606179 0.488926295,120.606179 L11.327492,120.606179 C11.5959183,120.606179 11.8155398,120.825801 11.8155398,121.094227 C11.8155398,121.362653 11.5959183,121.582275 11.327492,121.582275" id="Fill-41" fill="#9B9B9B"></path>
                <path d="M243.551474,121.582275 L230.109661,121.582275 C229.841235,121.582275 229.621614,121.362653 229.621614,121.094227 C229.621614,120.825801 229.841235,120.606179 230.109661,120.606179 L243.551474,120.606179 C243.818924,120.606179 244.039522,120.825801 244.039522,121.094227 C244.039522,121.362653 243.818924,121.582275 243.551474,121.582275" id="Fill-42" fill="#9B9B9B"></path>
                <polygon id="Fill-43" fill="#FFFFFF" points="179.250199 120.606375 194.006813 120.606375 194.006813 112.508685 179.250199 112.508685"></polygon>
                <path d="M205.103458,37.5684562 L207.855072,37.5684562 L206.479753,35.1848307 L205.103458,37.5684562 Z M209.547622,38.5445518 L203.412861,38.5445518 L206.480729,33.2326394 L209.547622,38.5445518 Z" id="Fill-44" fill="#58DDA0"></path>
                <polygon id="Fill-45" fill="#999999" points="24.6353845 90.4778167 27.1380936 87.9741315 29.6408028 90.4768406 27.1371175 92.9795498"></polygon>
                <path d="M29.5291375,61.8635737 L31.9108108,63.2408446 L31.9117869,60.488255 L29.5291375,61.8635737 Z M32.8878825,64.9324183 L27.5779223,61.8635737 L32.8888586,58.7966813 L32.8878825,64.9324183 Z" id="Fill-46" fill="#58DDA0"></path>
                <path d="M223.385241,112.284574 C222.637552,112.284574 221.94062,111.881446 221.561894,111.233319 C221.478926,111.090809 221.332512,111.006865 221.169504,111.006865 C220.980141,111.006865 220.843488,111.123996 220.780042,111.233319 C220.400341,111.881446 219.702432,112.284574 218.954743,112.284574 C218.206078,112.284574 217.507193,111.881446 217.128468,111.233319 C217.0455,111.090809 216.899086,111.006865 216.737054,111.006865 C216.547691,111.006865 216.410062,111.123996 216.345639,111.234295 C215.966914,111.881446 215.26803,112.284574 214.521317,112.284574 C213.772651,112.284574 213.073767,111.881446 212.695042,111.233319 C212.612074,111.090809 212.465659,111.006865 212.302651,111.006865 C212.113289,111.006865 211.976635,111.123996 211.912213,111.234295 C211.533488,111.881446 210.834604,112.284574 210.08789,112.284574 C209.340201,112.284574 208.642293,111.881446 208.263568,111.233319 C208.032233,110.838 208.164982,110.329454 208.561277,110.099096 C208.958548,109.867761 209.465141,110.00051 209.697452,110.396805 C209.879006,110.709155 210.362173,110.601785 210.479305,110.396805 C210.859982,109.749653 211.55789,109.347502 212.303627,109.347502 C213.056197,109.347502 213.755082,109.750629 214.130878,110.399733 C214.193349,110.507104 214.330978,110.625211 214.522293,110.625211 C214.710679,110.625211 214.849285,110.507104 214.911755,110.396805 C215.292432,109.749653 215.992293,109.347502 216.73803,109.347502 C217.488647,109.347502 218.186556,109.750629 218.564305,110.398757 C218.626775,110.507104 218.764404,110.625211 218.955719,110.625211 C219.145082,110.625211 219.283687,110.507104 219.346157,110.396805 C219.724882,109.749653 220.424743,109.347502 221.17048,109.347502 C221.921098,109.347502 222.619982,109.750629 222.997731,110.398757 C223.060201,110.507104 223.196855,110.625211 223.386217,110.625211 C223.576556,110.625211 223.715161,110.50808 223.777631,110.398757 C224.00799,110.003438 224.513608,109.867761 224.911855,110.09812 C225.308149,110.327502 225.441875,110.836048 225.212492,111.232343 C224.833767,111.881446 224.133906,112.284574 223.385241,112.284574" id="Fill-47" fill="#999999"></path>
                <path d="M33.7853048,32.9687032 C33.0385916,32.9687032 32.3416594,32.5655757 31.9619582,31.9174482 C31.87899,31.7749382 31.7335518,31.690994 31.5705438,31.690994 C31.3802052,31.690994 31.2435518,31.8081255 31.1801056,31.9174482 C30.8013805,32.5655757 30.102496,32.9687032 29.3548068,32.9687032 C28.6071175,32.9687032 27.9082331,32.5655757 27.5285319,31.9174482 C27.4455637,31.7749382 27.3001255,31.690994 27.1380936,31.690994 C26.947755,31.690994 26.8101255,31.8081255 26.7457032,31.9184243 C26.3679542,32.5655757 25.6680936,32.9687032 24.9213805,32.9687032 C24.1736912,32.9687032 23.4748068,32.5655757 23.0951056,31.9174482 C23.0121375,31.7749382 22.8666992,31.690994 22.7036912,31.690994 C22.5133526,31.690994 22.3766992,31.8081255 22.3122769,31.9184243 C21.9345279,32.5655757 21.2346673,32.9687032 20.4879542,32.9687032 C19.741241,32.9687032 19.0423566,32.5655757 18.6636315,31.9174482 C18.4332729,31.5221295 18.5660219,31.0135837 18.9623167,30.7832251 C19.3586116,30.5518904 19.8661813,30.6846394 20.0975159,31.0809343 C20.2790697,31.3932849 20.7632131,31.2859143 20.8803446,31.0809343 C21.2600458,30.4337829 21.9579542,30.0316315 22.7046673,30.0316315 C23.456261,30.0316315 24.1551454,30.434759 24.5319183,31.0838625 C24.5934124,31.1912331 24.7310418,31.3093406 24.9223566,31.3093406 C25.1117191,31.3093406 25.2493486,31.1912331 25.3127948,31.0809343 C25.692496,30.4337829 26.3923566,30.0316315 27.1390697,30.0316315 C27.8887112,30.0316315 28.5866195,30.434759 28.9653446,31.0828865 C29.0268386,31.1912331 29.1644681,31.3093406 29.3557829,31.3093406 C29.5461215,31.3093406 29.683751,31.1912331 29.7471972,31.0809343 C30.1249462,30.4337829 30.8248068,30.0316315 31.5715199,30.0316315 C32.3211614,30.0316315 33.0200458,30.434759 33.3987709,31.0828865 C33.4602649,31.1912331 33.5969183,31.3093406 33.7862809,31.3093406 C33.9775956,31.3093406 34.1152251,31.1922092 34.1786713,31.0828865 C34.4080538,30.6875677 34.9146474,30.5518904 35.3128944,30.782249 C35.7082131,31.0116315 35.8429143,31.5201773 35.6125558,31.9164721 C35.2348068,32.5655757 34.5339701,32.9687032 33.7853048,32.9687032" id="Fill-48" fill="#F59D00"></path>
                <polygon id="Fill-49" fill="#58DDA0" points="84.7426693 7.54814741 88.281992 7.54814741 88.281992 4.0088247 84.7426693 4.0088247"></polygon>
                <path d="M168.257703,0.974924303 L169.633022,3.35757371 L171.009317,0.974924303 L168.257703,0.974924303 Z M169.633022,5.31074104 L166.566129,-0.000195219123 L172.701867,-0.000195219123 L169.633022,5.31074104 Z" id="Fill-50" fill="#F59D00"></path>
                <polygon id="Fill-51" fill="#F4F4F4" points="99.7891833 112.508685 141.759343 112.508685 141.759343 78.8743825 99.7891833 78.8743825"></polygon>
                <polygon id="Fill-52" fill="#F4F4F4" points="143.324024 112.508685 185.295159 112.508685 185.295159 78.8743825 143.324024 78.8743825"></polygon>
                <polygon id="Fill-53" fill="#4CD093" points="125.844104 73.2628088 153.492988 73.2628088 153.492988 66.711255 125.844104 66.711255"></polygon>
                <polygon id="Fill-54" fill="#4CD093" points="155.136733 73.2628088 182.785618 73.2628088 182.785618 66.711255 155.136733 66.711255"></polygon>
                <path d="M215.070273,87.1391793 C215.069297,88.7204542 214.418241,90.1445777 213.361129,91.1821673 C212.302066,92.2178048 210.847683,92.8551952 209.234197,92.8561713 L208.399635,92.8561713 L208.399635,91.1021275 L208.399635,91.1011514 L208.399635,79.7882032 L209.234197,79.7882032 C210.848659,79.7882032 212.302066,80.4265697 213.361129,81.4622072 C214.418241,82.4997968 215.069297,83.9239203 215.070273,85.5051952 L215.070273,87.1391793 Z M173.381229,92.8561713 L172.547643,92.8561713 C170.933181,92.8551952 169.478799,92.2178048 168.420711,91.1821673 C167.3636,90.1445777 166.711568,88.7204542 166.711568,87.1391793 L166.711568,85.5061713 C166.711568,83.9239203 167.3636,82.4997968 168.420711,81.4631833 C169.478799,80.4275458 170.933181,79.7891793 172.547643,79.7882032 L173.381229,79.7882032 L173.381229,91.1021275 L173.381229,92.8561713 Z M197.17356,115.287825 C197.929058,116.029657 198.394655,117.044797 198.394655,118.175116 L198.394655,118.992108 L183.386209,118.992108 L183.386209,118.175116 C183.387185,117.044797 183.851807,116.029657 184.607305,115.287825 C185.363779,114.547944 186.401369,114.092108 187.55609,114.092108 L194.225751,114.092108 C195.379496,114.092108 196.417086,114.547944 197.17356,115.287825 L197.17356,115.287825 Z M198.794855,69.9872271 L174.215791,69.9872271 C173.996169,69.9872271 173.781428,70.0740996 173.626229,70.2263705 C173.47103,70.3786414 173.382205,70.588502 173.382205,70.803243 L173.382205,78.1542191 L172.54862,78.1542191 C168.403141,78.1551952 165.044396,81.4456135 165.04342,85.5061713 L165.04342,87.1391793 C165.044396,91.198761 168.403141,94.4891793 172.547643,94.4901554 L173.739456,94.4901554 C175.326588,101.915315 182.019675,107.497606 190.055871,107.555195 L190.055871,112.458124 L187.555114,112.458124 C184.33107,112.4591 181.719038,115.018422 181.718062,118.175116 L181.718062,119.8091 C181.718062,120.023841 181.807863,120.233701 181.963062,120.385972 C182.117285,120.538243 182.333002,120.625116 182.552624,120.625116 L199.227265,120.625116 C199.44591,120.625116 199.661627,120.538243 199.816827,120.385972 C199.97105,120.233701 200.060851,120.023841 200.060851,119.8091 L200.060851,118.175116 C200.059875,115.018422 197.447843,112.4591 194.224775,112.458124 L191.723042,112.458124 L191.723042,107.555195 C199.759237,107.497606 206.453301,101.914339 208.039456,94.4901554 L209.232245,94.4901554 C213.378699,94.4891793 216.736468,91.198761 216.737444,87.1391793 L216.737444,85.5061713 C216.736468,81.4456135 213.378699,78.1551952 209.234197,78.1542191 L208.399635,78.1542191 L208.399635,70.8042191 C208.399635,70.5894781 208.309835,70.3786414 208.154635,70.2263705 C208.000412,70.0740996 207.784695,69.9872271 207.56605,69.9872271 L198.794855,69.9872271 L198.794855,69.9872271 Z" id="Fill-55" fill="#FFC569"></path>
                <path d="M206.262572,72.8270797 C206.123966,72.6914024 205.933627,72.6133147 205.738408,72.6133147 L197.928667,72.6133147 L176.043627,72.6133147 C175.848408,72.6133147 175.65807,72.6914024 175.519464,72.8270797 C175.380859,72.9617809 175.301795,73.1491912 175.301795,73.340506 L175.301795,79.8852271 L175.300819,92.9756454 L176.048508,95.9615219 C177.99289,101.791741 183.557612,106.015307 190.147233,106.062159 L191.631875,106.062159 C198.788608,106.011402 204.746695,101.040147 206.160082,94.4300279 L206.459743,77.7670996 C206.459743,77.7670996 206.475361,77.7719801 206.480241,77.7739323 L206.480241,73.340506 C206.480241,73.1501673 206.401177,72.962757 206.262572,72.8270797" id="Fill-56" fill="#F59D00"></path>
                <path d="M190.89092,86.8908606 L192.132514,90.3140279 L195.773351,90.437992 L192.901677,92.6781315 L193.909008,96.1784104 L190.89092,94.1393466 L187.872833,96.1784104 L188.879187,92.6781315 L186.007514,90.437992 L189.648351,90.3140279 L190.89092,86.8908606 Z M190.89092,85.4228127 C187.229586,85.4228127 184.261279,88.3911195 184.261279,92.0524542 C184.261279,95.7137888 187.229586,98.6820956 190.89092,98.6820956 C194.552255,98.6820956 197.520562,95.7137888 197.520562,92.0524542 C197.520562,88.3911195 194.552255,85.4228127 190.89092,85.4228127 L190.89092,85.4228127 Z" id="Fill-57" fill="#FFFFFF"></path>
            </g>
        </g>
    </g>
</svg>