<?xml version="1.0" encoding="UTF-8"?>
<svg width="244px" height="115px" viewBox="0 0 244 115" version="1.1" xmlns="http://www.w3.org/2000/svg" xmlns:xlink="http://www.w3.org/1999/xlink">
    <!-- Generator: Sketch 46.1 (44463) - http://www.bohemiancoding.com/sketch -->
    <title>No Access</title>
    <desc>Created with Sketch.</desc>
    <defs></defs>
    <g id="Page-1" stroke="none" stroke-width="1" fill="none" fill-rule="evenodd">
        <g id="Illustration-2" transform="translate(-592.000000, -395.000000)">
            <g id="No-Access" transform="translate(591.000000, 394.000000)">
                <g id="No-Incoming-of-Data--(Analysis)" transform="translate(0.269635, 0.656961)">
                    <g id="Group-14" transform="translate(14.189189, 0.664054)" fill="#F5F5F5">
                        <g id="Group-3" transform="translate(0.000000, 94.594595)">
                            <path d="M137.814865,19.8651486 L9.94662162,19.8651486 C4.72878378,19.8651486 0.458783784,15.5951486 0.458783784,10.3773108 C0.458783784,5.15852703 4.72878378,0.888527027 9.94662162,0.888527027 L137.814865,0.888527027 C143.033649,0.888527027 147.302703,5.15852703 147.302703,10.3773108 C147.302703,15.5951486 143.033649,19.8651486 137.814865,19.8651486" id="Fill-1"></path>
                        </g>
                        <path d="M193.227527,57.2087297 L65.3592838,57.2087297 C60.1414459,57.2087297 55.8714459,52.9387297 55.8714459,47.7208919 C55.8714459,42.5030541 60.1414459,38.2330541 65.3592838,38.2330541 L193.227527,38.2330541 C198.446311,38.2330541 202.715365,42.5030541 202.715365,47.7208919 C202.715365,52.9387297 198.446311,57.2087297 193.227527,57.2087297" id="Fill-4"></path>
                        <g id="Group-8" transform="translate(55.810811, 0.000000)">
                            <path d="M137.416716,19.2572838 L9.54847297,19.2572838 C4.33063514,19.2572838 0.0606351351,14.9872838 0.0606351351,9.76944595 C0.0606351351,4.55066216 4.33063514,0.280662162 9.54847297,0.280662162 L137.416716,0.280662162 C142.6355,0.280662162 146.904554,4.55066216 146.904554,9.76944595 C146.904554,14.9872838 142.6355,19.2572838 137.416716,19.2572838" id="Fill-6"></path>
                        </g>
                        <path d="M137.814865,38.233527 L9.94662162,38.233527 C4.72878378,38.233527 0.458783784,33.963527 0.458783784,28.7456892 C0.458783784,23.5269054 4.72878378,19.2569054 9.94662162,19.2569054 L137.814865,19.2569054 C143.033649,19.2569054 147.302703,23.5269054 147.302703,28.7456892 C147.302703,33.963527 143.033649,38.233527 137.814865,38.233527" id="Fill-9"></path>
                        <g id="Group-13" transform="translate(83.243243, 56.756757)">
                            <path d="M137.691135,19.4282162 L9.82289189,19.4282162 C4.60505405,19.4282162 0.335054054,15.1582162 0.335054054,9.94037838 C0.335054054,4.72159459 4.60505405,0.451594595 9.82289189,0.451594595 L137.691135,0.451594595 C142.909919,0.451594595 147.178973,4.72159459 147.178973,9.94037838 C147.178973,15.1582162 142.909919,19.4282162 137.691135,19.4282162" id="Fill-11"></path>
                        </g>
                    </g>
                    <g id="Group-43" transform="translate(0.000000, 7.285676)">
                        <path d="M180.562635,105.10377 L62.9181757,105.10377 C58.0579054,105.10377 54.1180405,101.163905 54.1180405,96.3036351 L54.1180405,21.8671486 C54.1180405,17.0068784 58.0579054,13.0670135 62.9181757,13.0670135 L180.562635,13.0670135 C185.422905,13.0670135 189.36277,17.0068784 189.36277,21.8671486 L189.36277,96.3036351 C189.36277,101.163905 185.422905,105.10377 180.562635,105.10377 Z" id="Fill-18" fill="#FFFFFF"></path>
                        <polygon id="Fill-38" fill="#F4F4F4" points="56.4408734 60.9546149 186.620794 60.9546149 186.620794 26.3159097 56.4408734 26.3159097"></polygon>
                        <polygon id="Fill-39" fill="#F4F4F4" points="56.4730846 97.4840173 98.44422 97.4840173 98.44422 63.8497145 56.4730846 63.8497145"></polygon>
                        <polygon id="Fill-51" fill="#F4F4F4" points="100.207049 97.4840173 142.177208 97.4840173 142.177208 63.8497145 100.207049 63.8497145"></polygon>
                        <polygon id="Fill-52" fill="#F4F4F4" points="143.741889 97.4840173 185.713025 97.4840173 185.713025 63.8497145 143.741889 63.8497145"></polygon>
                        <path d="M180.562635,105.10377 L62.9181757,105.10377 C58.0579054,105.10377 54.1180405,101.163905 54.1180405,96.3036351 L54.1180405,21.8671486 C54.1180405,17.0068784 58.0579054,13.0670135 62.9181757,13.0670135 L180.562635,13.0670135 C185.422905,13.0670135 189.36277,17.0068784 189.36277,21.8671486 L189.36277,96.3036351 C189.36277,101.163905 185.422905,105.10377 180.562635,105.10377 Z" id="Stroke-20" stroke="#F59D00"></path>
                        <path d="M55.2663243,24.7695 C55.2663243,24.7695 56.164027,13.7293649 67.0225405,13.7293649 L175.289838,13.7293649 C175.289838,13.7293649 185.894838,12.8382838 187.047946,24.7695 L55.2663243,24.7695 Z" id="Fill-22" fill="#FFE3BB"></path>
                        <polygon id="Fill-24" fill="#FFFFFF" points="66.3372973 20.3558108 68.565 20.3558108 68.565 18.1281081 66.3372973 18.1281081"></polygon>
                        <polygon id="Fill-26" fill="#FFFFFF" points="70.7945946 20.3558108 73.0222973 20.3558108 73.0222973 18.1281081 70.7945946 18.1281081"></polygon>
                        <polygon id="Fill-27" fill="#FFFFFF" points="75.2509459 20.3558108 77.4795946 20.3558108 77.4795946 18.1281081 75.2509459 18.1281081"></polygon>
                        <polygon id="Fill-28" fill="#FDFFFE" points="52.3183784 67.9822973 55.5677027 67.9822973 55.5677027 56.7113514 52.3183784 56.7113514"></polygon>
                        <polygon id="Fill-29" fill="#FDFFFE" points="45.6967568 51.8614865 48.9460811 51.8614865 48.9460811 40.5914865 45.6967568 40.5914865"></polygon>
                        <path d="M223.759257,105.596135 L15.5622297,105.596135 C15.3030405,105.596135 15.0892568,105.808973 15.0892568,106.069108 C15.0892568,106.328297 15.3030405,106.542081 15.5622297,106.542081 L223.759257,106.542081 C224.019392,106.542081 224.23223,106.328297 224.23223,106.069108 C224.23223,105.808973 224.019392,105.596135 223.759257,105.596135" id="Fill-31" fill="#9B9B9B"></path>
                        <path d="M12.1019595,106.542081 L1.41844595,106.542081 C1.15925676,106.542081 0.945472973,106.328297 0.945472973,106.069108 C0.945472973,105.808973 1.15925676,105.596135 1.41844595,105.596135 L12.1019595,105.596135 C12.3620946,105.596135 12.5749324,105.808973 12.5749324,106.069108 C12.5749324,106.328297 12.3620946,106.542081 12.1019595,106.542081" id="Fill-32" fill="#9B9B9B"></path>
                        <path d="M240.396459,106.542081 L227.369838,106.542081 C227.110649,106.542081 226.896865,106.328297 226.896865,106.069108 C226.896865,105.808973 227.110649,105.596135 227.369838,105.596135 L240.396459,105.596135 C240.656595,105.596135 240.869432,105.808973 240.869432,106.069108 C240.869432,106.328297 240.656595,106.542081 240.396459,106.542081" id="Fill-33" fill="#9B9B9B"></path>
                        <path d="M110.243,7.83110811 C109.519351,7.83110811 108.843946,7.44043243 108.476919,6.81232432 C108.396514,6.67421622 108.254622,6.59286486 108.096649,6.59286486 C107.912189,6.59286486 107.779757,6.70732432 107.71827,6.81232432 C107.351243,7.44043243 106.674892,7.83110811 105.949351,7.83110811 C105.224757,7.83110811 104.547459,7.44043243 104.180432,6.81232432 C104.099081,6.67421622 103.958135,6.59286486 103.801108,6.59286486 C103.616649,6.59286486 103.48327,6.70732432 103.420838,6.81327027 C103.054757,7.44043243 102.377459,7.83110811 101.652865,7.83110811 C100.92827,7.83110811 100.250973,7.44043243 99.8839459,6.81232432 C99.8025946,6.67421622 99.6616486,6.59286486 99.5036757,6.59286486 C99.3192162,6.59286486 99.1867838,6.70732432 99.1243514,6.81327027 C98.7582703,7.44043243 98.080973,7.83110811 97.3563784,7.83110811 C96.6327297,7.83110811 95.9554324,7.44043243 95.5893514,6.81232432 C95.3651622,6.43016216 95.4938108,5.93637838 95.8778649,5.71408108 C96.2628649,5.48894595 96.7538108,5.61759459 96.9789459,6.00164865 C97.1539459,6.3052973 97.6231351,6.2002973 97.7366486,6.00164865 C98.1046216,5.37448649 98.7819189,4.98475676 99.5046216,4.98475676 C100.233,4.98475676 100.911243,5.37543243 101.275432,6.00448649 C101.335027,6.10948649 101.469351,6.223 101.653811,6.223 C101.837324,6.223 101.970703,6.10948649 102.032189,6.00164865 C102.400162,5.37448649 103.079351,4.98475676 103.802054,4.98475676 C104.528541,4.98475676 105.205838,5.37543243 105.571919,6.00354054 C105.631514,6.10948649 105.765838,6.223 105.950297,6.223 C106.134757,6.223 106.269081,6.10948649 106.329622,6.00164865 C106.695703,5.37448649 107.374892,4.98475676 108.097595,4.98475676 C108.824081,4.98475676 109.502324,5.37543243 109.868405,6.00354054 C109.928,6.10948649 110.061378,6.223 110.243946,6.223 C110.429351,6.223 110.56273,6.11043243 110.624216,6.00354054 C110.847459,5.62043243 111.337459,5.48894595 111.723405,5.71313514 C112.107459,5.93448649 112.237054,6.42827027 112.013811,6.81137838 C111.64773,7.44043243 110.969486,7.83110811 110.243,7.83110811" id="Fill-35" fill="#F59D00"></path>
                        <polygon id="Fill-36" fill="#999999" points="43.2720135 66.0992027 45.6974189 63.6737973 48.1218784 66.0982568 45.696473 68.5236622"></polygon>
                        <polygon id="Fill-37" fill="#999999" points="195.087162 48.9270676 197.513514 46.5016622 199.937973 48.9251757 197.511622 51.351527"></polygon>
                        <path d="M196.980851,19.0744324 L194.673689,17.7397027 L194.671797,20.4072703 L196.980851,19.0744324 Z M193.725851,16.0994324 L198.871797,19.0744324 L193.724905,22.0465946 L193.725851,16.0994324 Z" id="Fill-38" fill="#58DDA0"></path>
                        <path d="M219.001811,94.066473 L217.667081,96.3745811 L220.334649,96.375527 L219.001811,94.066473 Z M216.027757,97.321473 L219.001811,92.175527 L221.974919,97.3224189 L216.027757,97.321473 Z" id="Fill-39" fill="#58DDA0"></path>
                        <path d="M43.8253919,34.6002432 L46.1325541,35.934973 L46.1335,33.2674054 L43.8253919,34.6002432 Z M47.0794459,37.5742973 L41.9344459,34.6002432 L47.0803919,31.6280811 L47.0794459,37.5742973 Z" id="Fill-40" fill="#58DDA0"></path>
                        <path d="M43.8170676,97.4687568 C43.0934189,97.4687568 42.4170676,97.0780811 42.0500405,96.4509189 C41.9696351,96.3118649 41.8286892,96.2305135 41.6707162,96.2305135 C41.4862568,96.2305135 41.3538243,96.344973 41.2923378,96.4509189 C40.9253108,97.0780811 40.2480135,97.4687568 39.5234189,97.4687568 C38.7988243,97.4687568 38.1205811,97.0780811 37.7535541,96.4509189 C37.6731486,96.3118649 37.5322027,96.2305135 37.3751757,96.2305135 C37.1907162,96.2305135 37.0573378,96.344973 36.9949054,96.4518649 C36.6288243,97.0780811 35.9505811,97.4687568 35.2269324,97.4687568 C34.5023378,97.4687568 33.8240946,97.0780811 33.4570676,96.4509189 C33.3766622,96.3118649 33.2357162,96.2305135 33.0777432,96.2305135 C32.8932838,96.2305135 32.7608514,96.344973 32.6984189,96.4518649 C32.3323378,97.0780811 31.6540946,97.4687568 30.9304459,97.4687568 C30.2067973,97.4687568 29.5295,97.0780811 29.162473,96.4509189 C28.9392297,96.0678108 29.0678784,95.574027 29.4519324,95.3517297 C29.8359865,95.1265946 30.3278784,95.2552432 30.5520676,95.6392973 C30.7280135,95.9429459 31.1972027,95.8379459 31.3107162,95.6392973 C31.6786892,95.0121351 32.3550405,94.6224054 33.0786892,94.6224054 C33.8070676,94.6224054 34.4843649,95.0130811 34.8485541,95.6421351 C34.9090946,95.7471351 35.042473,95.8615946 35.2278784,95.8615946 C35.4113919,95.8615946 35.5447703,95.7471351 35.6062568,95.6392973 C35.9742297,95.0121351 36.652473,94.6224054 37.3761216,94.6224054 C38.1026081,94.6224054 38.7789595,95.0130811 39.1450405,95.6411892 C39.2055811,95.7471351 39.3389595,95.8615946 39.5243649,95.8615946 C39.7088243,95.8615946 39.8422027,95.7471351 39.9036892,95.6392973 C40.2697703,95.0121351 40.9480135,94.6224054 41.6716622,94.6224054 C42.3981486,94.6224054 43.0754459,95.0130811 43.441527,95.6411892 C43.5020676,95.7471351 43.6345,95.8615946 43.8180135,95.8615946 C44.0034189,95.8615946 44.1367973,95.7480811 44.1982838,95.6411892 C44.4205811,95.2580811 44.911527,95.1265946 45.297473,95.3507838 C45.6805811,95.5721351 45.8111216,96.0659189 45.5878784,96.449027 C45.2217973,97.0780811 44.5426081,97.4687568 43.8170676,97.4687568" id="Fill-41" fill="#999999"></path>
                        <path d="M172.110041,1.52637838 L173.443824,3.83543243 L174.777608,1.52637838 L172.110041,1.52637838 Z M173.443824,5.72827027 L170.470716,0.581378378 L176.416932,0.581378378 L173.443824,5.72827027 Z" id="Fill-42" fill="#F59D00"></path>
                    </g>
                    <path d="M188.051689,112.220405 L188.051689,91.5959459 L188.051689,112.220405 Z" id="Fill-51" fill="#FFFFFF"></path>
                </g>
                <g id="Page-1" transform="translate(101.651063, 46.700182)">
                    <path d="M18.6813043,0.472869725 L2.36560711,5.63342571 C1.37519738,5.94618668 0.69754861,6.88446959 0.69754861,7.92700615 L0.69754861,14.0779719 C0.69754861,28.1522155 7.57828993,41.340303 19.098319,49.4199614 C20.4014897,50.3066387 22.121675,50.3066387 23.4248457,49.4199614 C34.9448747,41.340303 41.825616,28.1522155 41.825616,14.0779719 L41.825616,7.87487932 C41.825616,6.83234276 41.1479673,5.89405985 40.1575575,5.58129889 L23.8418603,0.420742897 C22.121675,-0.100525385 20.3493628,-0.100525385 18.6813043,0.472869725" id="Fill-1" fill="#4CD093"></path>
                    <g transform="translate(12.338404, 11.696098)" id="Fill-1" fill="#FFFEFE">
                        <path d="M11.2262575,7.8768449 L7.34686758,7.8768449 L7.34686758,5.92150722 C7.21038501,4.85037324 7.96866496,3.87114013 9.03979894,3.73504863 C10.1109329,3.59856606 11.089775,4.35645494 11.2262575,5.42797999 C11.2473752,5.59183729 11.2473752,5.75764992 11.2262575,5.92150722 L11.2262575,7.8768449 Z M10.2955168,14.5875638 L10.2955168,15.9250148 C10.2955168,16.482286 9.84383379,16.933969 9.28656255,16.933969 C8.72929131,16.9343601 8.27760831,16.482286 8.27760831,15.9254058 L8.27760831,15.9250148 L8.27760831,14.5875638 C7.55921725,14.0302926 7.42820962,12.9959189 7.98548086,12.2775279 C8.5427521,11.5591368 9.57673466,11.4285203 10.2955168,11.9854004 C11.0139079,12.5426717 11.1449155,13.5770453 10.5876442,14.2954364 C10.5027826,14.4045442 10.4046246,14.5027021 10.2955168,14.5875638 L10.2955168,14.5875638 Z M9.28656255,0.618631441 C6.36528806,0.620586779 3.9977652,2.98850071 3.9954188,5.90977519 L3.9954188,7.86511287 L3.48312033,7.86511287 C1.95834801,7.86511287 0.722183528,9.10127735 0.722183528,10.6260497 L0.722183528,17.9390126 C0.722183528,19.4637849 1.95834801,20.6999494 3.48312033,20.6999494 L15.0900048,20.6999494 C16.6147771,20.6999494 17.8509416,19.4637849 17.8509416,17.9390126 L17.8509416,10.6377817 C17.8509416,9.11300938 16.6147771,7.8768449 15.0900048,7.8768449 L14.5737956,7.8768449 L14.5737956,5.92150722 C14.5780974,2.99710419 12.2109656,0.622933184 9.28656255,0.618631441 L9.28656255,0.618631441 Z"></path>
                    </g>
                </g>
            </g>
        </g>
    </g>
</svg>