<?xml version="1.0" encoding="UTF-8"?>
<svg width="245px" height="124px" viewBox="0 0 245 124" version="1.1" xmlns="http://www.w3.org/2000/svg" xmlns:xlink="http://www.w3.org/1999/xlink">
    <!-- Generator: Sketch 46.1 (44463) - http://www.bohemiancoding.com/sketch -->
    <title>No Clear Data</title>
    <desc>Created with Sketch.</desc>
    <defs></defs>
    <g id="Page-1" stroke="none" stroke-width="1" fill="none" fill-rule="evenodd">
        <g id="Illustrations" transform="translate(-586.000000, -383.000000)">
            <g id="No-Clear-Data" transform="translate(585.507812, 383.667969)">
                <path d="M150.677784,120.530534 L25.2312879,120.530534 C20.1122727,120.530534 15.9231439,116.342333 15.9231439,111.22239 C15.9231439,106.103375 20.1122727,101.914246 25.2312879,101.914246 L150.677784,101.914246 C155.797727,101.914246 159.985928,106.103375 159.985928,111.22239 C159.985928,116.342333 155.797727,120.530534 150.677784,120.530534 Z" id="Fill-1" fill="#F5F5F5"></path>
                <path d="M188.731574,101.597417 L63.2850777,101.597417 C58.1660625,101.597417 53.9769337,97.4082879 53.9769337,92.2892727 C53.9769337,87.1693295 58.1660625,82.9811288 63.2850777,82.9811288 L188.731574,82.9811288 C193.851517,82.9811288 198.039718,87.1693295 198.039718,92.2892727 C198.039718,97.4082879 193.851517,101.597417 188.731574,101.597417" id="Fill-3" fill="#F5F5F5"></path>
                <path d="M205.040964,64.3642841 L79.5944678,64.3642841 C74.4754527,64.3642841 70.2863239,60.1760833 70.2863239,55.0561402 C70.2863239,49.937125 74.4754527,45.7479962 79.5944678,45.7479962 L205.040964,45.7479962 C210.160907,45.7479962 214.349108,49.937125 214.349108,55.0561402 C214.349108,60.1760833 210.160907,64.3642841 205.040964,64.3642841" id="Fill-5" fill="#F5F5F5"></path>
                <path d="M205.040964,27.1316155 L79.5944678,27.1316155 C74.4754527,27.1316155 70.2863239,22.9424867 70.2863239,17.8234716 C70.2863239,12.7035284 74.4754527,8.51532765 79.5944678,8.51532765 L205.040964,8.51532765 C210.160907,8.51532765 214.349108,12.7035284 214.349108,17.8234716 C214.349108,22.9424867 210.160907,27.1316155 205.040964,27.1316155" id="Fill-7" fill="#F5F5F5"></path>
                <path d="M150.677784,45.7479034 L25.2312879,45.7479034 C20.1122727,45.7479034 15.9231439,41.5587746 15.9231439,36.4397595 C15.9231439,31.3207443 20.1122727,27.1316155 25.2312879,27.1316155 L150.677784,27.1316155 C155.797727,27.1316155 159.985928,31.3207443 159.985928,36.4397595 C159.985928,41.5587746 155.797727,45.7479034 150.677784,45.7479034" id="Fill-9" fill="#F5F5F5"></path>
                <path d="M232.223064,82.981036 L106.77564,82.981036 C101.657553,82.981036 97.4684242,78.7919072 97.4684242,73.672892 C97.4684242,68.5529489 101.657553,64.3638201 106.77564,64.3638201 L232.223064,64.3638201 C237.343008,64.3638201 241.53028,68.5529489 241.53028,73.672892 C241.53028,78.7919072 237.343008,82.981036 232.223064,82.981036" id="Fill-11" fill="#F5F5F5"></path>
                <path d="M172.644261,116.574991 L57.2279167,116.574991 C52.459697,116.574991 48.5944508,112.709744 48.5944508,107.941525 L48.5944508,34.913892 C48.5944508,30.1466004 52.459697,26.2813542 57.2279167,26.2813542 L172.644261,26.2813542 C177.412481,26.2813542 181.277727,30.1466004 181.277727,34.913892 L181.277727,107.941525 C181.277727,112.709744 177.412481,116.574991 172.644261,116.574991" id="Fill-13" fill="#FFFFFF"></path>
                <path d="M172.644261,116.574991 L57.2279167,116.574991 C52.459697,116.574991 48.5944508,112.709744 48.5944508,107.941525 L48.5944508,34.913892 C48.5944508,30.1466004 52.459697,26.2813542 57.2279167,26.2813542 L172.644261,26.2813542 C177.412481,26.2813542 181.277727,30.1466004 181.277727,34.913892 L181.277727,107.941525 C181.277727,112.709744 177.412481,116.574991 172.644261,116.574991 Z" id="Stroke-15" stroke="#888888"></path>
                <path d="M49.7173674,38.8307367 C49.7173674,38.8307367 50.5989962,28.0006231 61.250928,28.0006231 L167.467708,28.0006231 C167.467708,28.0006231 177.872784,27.1264186 179.004053,38.8307367 L49.7173674,38.8307367 Z" id="Fill-17" fill="#E0E0E0"></path>
                <path d="M179.09333,120.943786 L63.6760568,120.943786 C58.9078371,120.943786 55.0425909,117.07854 55.0425909,112.311248 L55.0425909,39.2826875 C55.0425909,34.5153958 58.9078371,30.6501496 63.6760568,30.6501496 L179.09333,30.6501496 C183.861549,30.6501496 187.725867,34.5153958 187.725867,39.2826875 L187.725867,112.311248 C187.725867,117.07854 183.861549,120.943786 179.09333,120.943786" id="Fill-25" fill="#FFFFFF"></path>
                <path d="M179.09333,120.943786 L63.6760568,120.943786 C58.9078371,120.943786 55.0425909,117.07854 55.0425909,112.311248 L55.0425909,39.2826875 C55.0425909,34.5153958 58.9078371,30.6501496 63.6760568,30.6501496 L179.09333,30.6501496 C183.861549,30.6501496 187.725867,34.5153958 187.725867,39.2826875 L187.725867,112.311248 C187.725867,117.07854 183.861549,120.943786 179.09333,120.943786 Z" id="Stroke-27" stroke="#F59D00"></path>
                <path d="M56.2289848,42.2899697 C56.2289848,42.2899697 57.1096856,31.4598561 67.7625455,31.4598561 L173.979326,31.4598561 C173.979326,31.4598561 184.384402,30.5856515 185.51567,42.2899697 L56.2289848,42.2899697 Z" id="Fill-29" fill="#FFE3BB"></path>
                <polygon id="Fill-31" fill="#FFFFFF" points="67.6524811 37.9601515 69.8379924 37.9601515 69.8379924 35.7746402 67.6524811 35.7746402"></polygon>
                <polygon id="Fill-33" fill="#FFFFFF" points="72.0253598 37.9601515 74.2108712 37.9601515 74.2108712 35.7746402 72.0253598 35.7746402"></polygon>
                <polygon id="Fill-34" fill="#FFFFFF" points="76.3973106 37.9601515 78.582822 37.9601515 78.582822 35.7746402 76.3973106 35.7746402"></polygon>
                <polygon id="Fill-35" fill="#FDFFFE" points="53.3246212 83.7565909 56.5124053 83.7565909 56.5124053 72.7000379 53.3246212 72.7000379"></polygon>
                <polygon id="Fill-36" fill="#FDFFFE" points="46.8284091 67.9410985 50.0161932 67.9410985 50.0161932 56.8845455 46.8284091 56.8845455"></polygon>
                <path d="M228.015189,121.451233 L15.8062121,121.451233 C15.5510038,121.451233 15.342197,121.66004 15.342197,121.915248 C15.342197,122.170456 15.5510038,122.379263 15.8062121,122.379263 L228.015189,122.379263 C228.270398,122.379263 228.479205,122.170456 228.479205,121.915248 C228.479205,121.66004 228.270398,121.451233 228.015189,121.451233" id="Fill-37" fill="#9B9B9B"></path>
                <path d="M12.3152405,122.379263 L1.39139583,122.379263 C1.13711553,122.379263 0.927380682,122.170456 0.927380682,121.915248 C0.927380682,121.66004 1.13711553,121.451233 1.39139583,121.451233 L12.3152405,121.451233 C12.5704489,121.451233 12.7792557,121.66004 12.7792557,121.915248 C12.7792557,122.170456 12.5704489,122.379263 12.3152405,122.379263" id="Fill-38" fill="#9B9B9B"></path>
                <path d="M244.337294,122.379263 L231.557388,122.379263 C231.303108,122.379263 231.093373,122.170456 231.093373,121.915248 C231.093373,121.66004 231.303108,121.451233 231.557388,121.451233 L244.337294,121.451233 C244.592502,121.451233 244.801309,121.66004 244.801309,121.915248 C244.801309,122.170456 244.592502,122.379263 244.337294,122.379263" id="Fill-39" fill="#9B9B9B"></path>
                <polygon id="Fill-40" fill="#FFFFFF" points="161.830852 121.410492 188.322405 121.410492 188.322405 119.063504 161.830852 119.063504"></polygon>
                <polygon id="Fill-41" fill="#999999" points="196.36518 65.5859432 198.74465 63.2055455 201.124119 65.5850152 198.743722 67.9644848"></polygon>
                <path d="M197.435477,37.5365985 L200.051595,37.5365985 L198.744,35.2703485 L197.435477,37.5365985 Z M201.660799,38.4646288 L195.828129,38.4646288 L198.744928,33.4142879 L201.660799,38.4646288 Z" id="Fill-42" fill="#58DDA0"></path>
                <polygon id="Fill-43" fill="#999999" points="31.6388731 112.470498 34.0183428 110.0901 36.3978125 112.46957 34.0174148 114.84904"></polygon>
                <path d="M40.7778371,65.8143314 L43.041303,67.1237822 L43.0422311,64.5067367 L40.7778371,65.8143314 Z M43.9702614,68.7320587 L38.9227045,65.8143314 L43.9711894,62.8984602 L43.9702614,68.7320587 Z" id="Fill-44" fill="#58DDA0"></path>
                <path d="M221.393044,100.693422 C220.6831,100.693422 220.020487,100.310146 219.659483,99.6939337 C219.5806,99.5584413 219.442324,99.4786307 219.287343,99.4786307 C219.106377,99.4786307 218.976453,99.5899943 218.916131,99.6939337 C218.556055,100.310146 217.892513,100.693422 217.180714,100.693422 C216.469843,100.693422 215.805373,100.310146 215.444369,99.6939337 C215.365487,99.5584413 215.22721,99.4786307 215.073157,99.4786307 C214.892191,99.4786307 214.761339,99.5899943 214.700089,99.6948617 C214.340941,100.310146 213.676472,100.693422 212.9656,100.693422 C212.254729,100.693422 211.590259,100.310146 211.229256,99.6939337 C211.150373,99.5584413 211.012097,99.4786307 210.857116,99.4786307 C210.67615,99.4786307 210.546225,99.5899943 210.484975,99.6948617 C210.125828,100.310146 209.461358,100.693422 208.750487,100.693422 C208.040544,100.693422 207.376074,100.310146 207.015998,99.6939337 C206.796983,99.3180814 206.923195,98.8345777 207.299975,98.6155625 C207.676756,98.3956193 208.159331,98.5218314 208.380203,98.8986117 C208.551888,99.1955814 209.012191,99.0934981 209.123555,98.8986117 C209.484559,98.2833277 210.1481,97.9009792 210.858044,97.9009792 C211.572627,97.9009792 212.237097,98.2842557 212.595316,98.9013958 C212.653782,99.0034792 212.785563,99.1157708 212.966528,99.1157708 C213.146566,99.1157708 213.277419,99.0034792 213.337741,98.8986117 C213.698744,98.2833277 214.364142,97.9009792 215.074085,97.9009792 C215.786813,97.9009792 216.450354,98.2842557 216.81043,98.9004678 C216.868896,99.0034792 217.000676,99.1157708 217.181642,99.1157708 C217.362608,99.1157708 217.49346,99.0034792 217.553782,98.8986117 C217.91293,98.2833277 218.578328,97.9009792 219.288271,97.9009792 C220.000998,97.9009792 220.665468,98.2842557 221.025544,98.9004678 C221.084009,99.0034792 221.214862,99.1157708 221.393972,99.1157708 C221.575866,99.1157708 221.706718,99.0044072 221.76704,98.9004678 C221.985127,98.5246155 222.466775,98.3956193 222.845411,98.6146345 C223.221263,98.8327216 223.349331,99.3162254 223.130316,99.6930057 C222.771169,100.310146 222.105771,100.693422 221.393044,100.693422" id="Fill-45" fill="#999999"></path>
                <path d="M42.7181629,38.4288068 C42.0072917,38.4288068 41.344678,38.0455303 40.9846023,37.4293182 C40.9057197,37.2938258 40.7665152,37.2140152 40.6115341,37.2140152 C40.4314962,37.2140152 40.301572,37.3253788 40.24125,37.4293182 C39.8802462,38.0455303 39.2167045,38.4288068 38.5058333,38.4288068 C37.7940341,38.4288068 37.1295644,38.0455303 36.7694886,37.4293182 C36.6906061,37.2938258 36.5514015,37.2140152 36.3973485,37.2140152 C36.2173106,37.2140152 36.0864583,37.3253788 36.0252083,37.4302462 C35.6651326,38.0455303 35.0006629,38.4288068 34.2907197,38.4288068 C33.5789205,38.4288068 32.9144508,38.0455303 32.554375,37.4293182 C32.4754924,37.2938258 32.3362879,37.2140152 32.1813068,37.2140152 C32.0012689,37.2140152 31.8713447,37.3253788 31.8100947,37.4302462 C31.4500189,38.0455303 30.7855492,38.4288068 30.0756061,38.4288068 C29.3647348,38.4288068 28.7011932,38.0455303 28.3411174,37.4293182 C28.1211742,37.0534659 28.2483144,36.5699621 28.6241667,36.350947 C29.001875,36.1310038 29.4835227,36.2572159 29.7043939,36.6339962 C29.8770076,36.9309659 30.3373106,36.8288826 30.4477462,36.6339962 C30.809678,36.0187121 31.4732197,35.6363636 32.1822348,35.6363636 C32.8977462,35.6363636 33.5622159,36.0196402 33.9195076,36.6367803 C33.9789015,36.7388636 34.1097538,36.8511553 34.2916477,36.8511553 C34.4707576,36.8511553 34.6025379,36.7388636 34.6619318,36.6339962 C35.0238636,36.0187121 35.6892614,35.6363636 36.3982765,35.6363636 C37.1119318,35.6363636 37.7754735,36.0196402 38.1346212,36.6358523 C38.1940152,36.7388636 38.3248674,36.8511553 38.5067614,36.8511553 C38.6867992,36.8511553 38.8185795,36.7388636 38.8779735,36.6339962 C39.2380492,36.0187121 39.903447,35.6363636 40.6124621,35.6363636 C41.3261174,35.6363636 41.9905871,36.0196402 42.3497348,36.6358523 C42.4091288,36.7388636 42.539053,36.8511553 42.7190909,36.8511553 C42.9000568,36.8511553 43.0318371,36.7397917 43.0912311,36.6358523 C43.3102462,36.26 43.7909659,36.1310038 44.1696023,36.3500189 C44.5463826,36.5681061 44.6735227,37.0516098 44.4554356,37.4283902 C44.0953598,38.0455303 43.4299621,38.4288068 42.7181629,38.4288068" id="Fill-46" fill="#F59D00"></path>
                <polygon id="Fill-47" fill="#58DDA0" points="84.6846212 17.1388636 88.0496591 17.1388636 88.0496591 13.7738258 84.6846212 13.7738258"></polygon>
                <path d="M143.925992,0.927380682 L145.234515,3.19270265 L146.543038,0.927380682 L143.925992,0.927380682 Z M145.234515,5.04969129 L142.317716,0.000278409091 L148.151314,0.000278409091 L145.234515,5.04969129 Z" id="Fill-48" fill="#F59D00"></path>
                <polygon id="Fill-49" fill="#4CD093" points="59.5786174 52.8643182 182.90642 52.8643182 182.90642 46.6196023 59.5786174 46.6196023"></polygon>
                <polygon id="Fill-50" fill="#F4F4F4" points="59.7577273 116.06875 183.012216 116.06875 183.012216 55.0563258 59.7577273 55.0563258"></polygon>
                <path d="M57.8793011,111.18629 L57.7039034,111.18629 L57.7094716,110.415097 L57.8783731,110.415097 C71.2002481,110.415097 80.0685057,97.8774072 88.6435057,85.7517633 C96.981858,73.9667064 104.853411,62.834983 116.466782,62.834983 C127.529831,62.834983 134.100286,73.1435436 141.054945,84.059036 C149.311631,97.0161951 157.853222,110.415097 174.802767,110.415097 L175.014358,110.415097 L175.021782,111.18629 L174.811119,111.18629 C157.317748,111.187218 148.262028,96.9735057 140.266119,84.428392 C133.441384,73.7207784 126.994358,63.6043201 116.466782,63.6043201 C105.361972,63.6043201 97.6147746,74.5569337 89.4128428,86.1498883 C80.7079186,98.4583542 71.7041686,111.18629 57.8793011,111.18629" id="Fill-51" fill="#FFC569"></path>
                <path d="M64.7978598,111.222576 L57.7030682,111.222576 L57.7086364,110.501496 L64.7960038,110.501496 C76.4140152,110.501496 84.1454356,98.7711932 91.6207197,87.4241667 C98.8909091,76.3982386 106.721629,65.1495833 116.846439,65.1495833 C126.492386,65.1495833 131.256894,75.6289015 137.319716,85.840947 C144.519375,97.9638068 160.051818,110.415189 174.830701,110.415189 L175.014451,110.415189 L175.020947,111.136269 L174.837197,111.136269 C159.585019,111.138125 143.605265,97.9248295 136.632973,86.1871023 C130.682443,76.1662311 126.027443,65.8697348 116.846439,65.8697348 C107.165227,65.8697348 99.4440152,76.9513447 92.2926136,87.7981629 C84.7022538,99.3150189 76.8511174,111.222576 64.7978598,111.222576" id="Fill-52" fill="#F59D00"></path>
                <path d="M64.8069545,111.222576 L57.7038106,111.222576 L57.7093788,110.526553 L64.8050985,110.526553 C76.4370303,110.526553 84.1777311,100.031458 91.6632235,89.0751326 C98.9436212,78.429697 106.782693,67.5671023 116.921424,67.5671023 C126.579436,67.5671023 131.349511,79.778125 137.420686,89.639375 C144.628697,101.344621 160.018223,110.526553 174.815667,110.526553 L174.999417,110.526553 L175.006841,111.222576 L174.823091,111.222576 C159.550496,111.224432 143.712731,101.306572 136.733015,89.9743939 C130.774133,80.297822 126.113564,68.263125 116.921424,68.263125 C107.22722,68.263125 99.4967273,78.9633144 92.3360455,89.4370644 C84.7364053,100.556723 76.8750606,111.222576 64.8069545,111.222576" id="Fill-53" fill="#D3D3D3"></path>
                <path d="M117.925739,62.8348902 C117.925739,63.6394924 117.226004,64.2918977 116.362008,64.2918977 C115.498939,64.2918977 114.798277,63.6394924 114.798277,62.8348902 C114.798277,62.0302879 115.498939,61.3778826 116.362008,61.3778826 C117.226004,61.3778826 117.925739,62.0302879 117.925739,62.8348902" id="Fill-54" fill="#FFC569"></path>
                <path d="M117.044852,62.1987254 C117.421633,62.5495208 117.421633,63.1193314 117.044852,63.4710549 C116.668072,63.8227784 116.0565,63.8227784 115.678792,63.4710549 C115.302011,63.1193314 115.302011,62.5495208 115.678792,62.1987254 C116.0565,61.8479299 116.668072,61.8479299 117.044852,62.1987254" id="Fill-55" fill="#FFE0B3"></path>
                <path d="M117.39472,65.6842216 C117.39472,66.4888239 116.694985,67.1412292 115.830989,67.1412292 C114.96792,67.1412292 114.267258,66.4888239 114.267258,65.6842216 C114.267258,64.8796193 114.96792,64.227214 115.830989,64.227214 C116.694985,64.227214 117.39472,64.8796193 117.39472,65.6842216" id="Fill-56" fill="#F59D00"></path>
                <path d="M116.796511,65.6842216 C116.796511,66.1807178 116.364049,66.583483 115.83136,66.583483 C115.297742,66.583483 114.86528,66.1807178 114.86528,65.6842216 C114.86528,65.1867973 115.297742,64.7849602 115.83136,64.7849602 C116.364049,64.7849602 116.796511,65.1867973 116.796511,65.6842216" id="Fill-57" fill="#FFCB78"></path>
                <path d="M115.812335,68.3496174 C115.678699,69.1449394 114.878737,69.6887652 114.024949,69.5644091 C113.172089,69.440053 112.588358,68.6948447 112.721994,67.8995227 C112.854703,67.1042008 113.655593,66.560375 114.508453,66.6856591 C115.362241,66.8090871 115.945972,67.5552235 115.812335,68.3496174" id="Fill-58" fill="#CECECE"></path>
                <path d="M115.22053,68.2634962 C115.138864,68.7544242 114.645152,69.0903712 114.11803,69.0133447 C113.590909,68.9372462 113.229905,68.4760152 113.3125,67.9860152 C113.395095,67.4950871 113.888807,67.1591402 114.415928,67.2361667 C114.943049,67.3131932 115.303125,67.7725682 115.22053,68.2634962" id="Fill-59" fill="#F4F4F4"></path>
                <path d="M100.361188,72.9726004 C100.361188,73.7772027 99.6614527,74.429608 98.7974564,74.429608 C97.9334602,74.429608 97.2337254,73.7772027 97.2337254,72.9726004 C97.2337254,72.1679981 97.9334602,71.5155928 98.7974564,71.5155928 C99.6614527,71.5155928 100.361188,72.1679981 100.361188,72.9726004" id="Fill-60" fill="#FFC569"></path>
                <path d="M99.763072,72.9726004 C99.763072,73.4690966 99.3306098,73.8718617 98.7979205,73.8718617 C98.264303,73.8718617 97.8318409,73.4690966 97.8318409,72.9726004 C97.8318409,72.4761042 98.264303,72.073339 98.7979205,72.073339 C99.3306098,72.073339 99.763072,72.4761042 99.763072,72.9726004" id="Fill-61" fill="#FFE0B3"></path>
                <path d="M101.497653,75.8867083 C101.497653,76.6913106 100.796991,77.3437159 99.9329943,77.3437159 C99.0699261,77.3437159 98.3701913,76.6913106 98.3701913,75.8867083 C98.3701913,75.0821061 99.0699261,74.4297008 99.9329943,74.4297008 C100.796991,74.4297008 101.497653,75.0821061 101.497653,75.8867083" id="Fill-62" fill="#F59D00"></path>
                <path d="M100.870491,76.1042386 C100.741494,76.5868144 100.217157,76.880072 99.7002443,76.759428 C99.1833314,76.6397121 98.8678011,76.1506402 98.9967973,75.6689924 C99.1257936,75.1873447 99.6501307,74.8931591 100.167044,75.013803 C100.684884,75.134447 101.000415,75.6225909 100.870491,76.1042386" id="Fill-63" fill="#FFCB78"></path>
                <path d="M104.626136,75.8867083 C104.626136,76.6913106 103.925473,77.3437159 103.061477,77.3437159 C102.198409,77.3437159 101.497746,76.6913106 101.497746,75.8867083 C101.497746,75.0821061 102.198409,74.4297008 103.061477,74.4297008 C103.925473,74.4297008 104.626136,75.0821061 104.626136,75.8867083" id="Fill-64" fill="#CECECE"></path>
                <path d="M104.027093,75.8867083 C104.027093,76.3832045 103.594631,76.7859697 103.061941,76.7859697 C102.528324,76.7859697 102.095862,76.3832045 102.095862,75.8867083 C102.095862,75.3902121 102.528324,74.987447 103.061941,74.987447 C103.594631,74.987447 104.027093,75.3902121 104.027093,75.8867083" id="Fill-65" fill="#F4F4F4"></path>
                <path d="M209.871455,117.978451 L189.620905,86.4643977 C188.754125,85.1104015 186.750508,85.1104015 185.83083,86.4643977 L165.578424,117.978451 C164.60492,119.494852 165.687932,121.443716 167.47439,121.443716 L208.03117,121.443716 C209.763803,121.443716 210.846814,119.494852 209.871455,117.978451" id="Fill-66" fill="#FFC569"></path>
                <path d="M206.942405,117.644917 L189.369223,90.2995758 C188.618447,89.1246894 186.880246,89.1246894 186.081212,90.2995758 L168.508958,117.644917 C167.663523,118.959936 168.602689,120.651735 170.1525,120.651735 L205.344337,120.651735 C206.847746,120.651735 207.787841,118.959936 206.942405,117.644917" id="Fill-67" fill="#F59D00"></path>
                <path d="M189.002559,109.682788 C189.033184,109.663299 189.060097,109.640098 189.088866,109.61597 L190.883676,108.074511 C190.902237,108.059663 190.918013,108.042958 190.936574,108.026254 C191.836763,107.138129 192.332331,105.95489 192.332331,104.698337 C192.332331,102.103564 190.19415,99.9922955 187.566896,99.9922955 C184.939642,99.9922955 182.80146,102.103564 182.80146,104.698337 C182.80146,105.261652 183.264547,105.71917 183.836214,105.71917 C184.406953,105.71917 184.87004,105.261652 184.87004,104.698337 C184.87004,103.229265 186.080191,102.033962 187.566896,102.033962 C189.054528,102.033962 190.263752,103.229265 190.263752,104.698337 C190.263752,105.399 189.991839,106.05883 189.497199,106.559038 L187.771062,108.04203 C186.54235,108.917163 186.434699,109.99739 186.430987,111.129587 L186.437483,112.350875 C186.440267,112.912333 186.902426,113.365212 187.472237,113.365212 L187.476877,113.365212 C188.048544,113.3615 188.508847,112.903053 188.506062,112.338811 L188.498638,111.127731 C188.500494,110.183924 188.571025,109.980686 189.002559,109.682788" id="Fill-68" fill="#FFFFFF"></path>
                <path d="M186.660767,114.703525 C186.469593,114.891915 186.361013,115.157331 186.361013,115.428316 C186.361013,115.693733 186.469593,115.95915 186.660767,116.148468 C186.857509,116.33593 187.120142,116.44915 187.393911,116.44915 C187.66304,116.44915 187.932169,116.33593 188.122415,116.148468 C188.313589,115.952653 188.427737,115.692805 188.427737,115.428316 C188.427737,115.157331 188.313589,114.891915 188.122415,114.703525 C187.740994,114.324888 187.048684,114.320248 186.660767,114.703525" id="Fill-69" fill="#FFFFFF"></path>
            </g>
        </g>
    </g>
</svg>