<?xml version="1.0" encoding="UTF-8"?>
<svg width="245px" height="127px" viewBox="0 0 245 127" version="1.1" xmlns="http://www.w3.org/2000/svg" xmlns:xlink="http://www.w3.org/1999/xlink">
    <!-- Generator: Sketch 46.1 (44463) - http://www.bohemiancoding.com/sketch -->
    <title>New Incoming Data</title>
    <desc>Created with Sketch.</desc>
    <defs></defs>
    <g id="Page-1" stroke="none" stroke-width="1" fill="none" fill-rule="evenodd">
        <g id="Illustrations" transform="translate(-146.000000, -381.000000)">
            <g id="New-Incoming-Data" transform="translate(146.015625, 381.375000)">
                <path d="M150.084598,124.784457 L27.7729118,124.784457 C22.4732255,124.784457 18.1362451,120.448437 18.1362451,115.14779 C18.1362451,109.848104 22.4732255,105.511124 27.7729118,105.511124 L150.084598,105.511124 C155.385245,105.511124 159.721265,109.848104 159.721265,115.14779 C159.721265,120.448437 155.385245,124.784457 150.084598,124.784457 Z" id="Fill-1" fill="#F5F5F5"></path>
                <path d="M189.481943,105.183208 L59.6079235,105.183208 C54.3082373,105.183208 49.9712569,100.846227 49.9712569,95.5465412 C49.9712569,90.2458941 54.3082373,85.9098745 59.6079235,85.9098745 L189.481943,85.9098745 C194.78259,85.9098745 199.11861,90.2458941 199.11861,95.5465412 C199.11861,100.846227 194.78259,105.183208 189.481943,105.183208" id="Fill-3" fill="#EAEAEA"></path>
                <path d="M206.366478,66.6359647 L76.4924588,66.6359647 C71.1927725,66.6359647 66.8557922,62.2999451 66.8557922,56.999298 C66.8557922,51.6996118 71.1927725,47.3626314 76.4924588,47.3626314 L206.366478,47.3626314 C211.667125,47.3626314 216.003145,51.6996118 216.003145,56.999298 C216.003145,62.2999451 211.667125,66.6359647 206.366478,66.6359647" id="Fill-5" fill="#F5F5F5"></path>
                <path d="M206.366478,28.0891059 L76.4924588,28.0891059 C71.1927725,28.0891059 66.8557922,23.7521255 66.8557922,18.4524392 C66.8557922,13.1517922 71.1927725,8.81577255 76.4924588,8.81577255 L206.366478,8.81577255 C211.667125,8.81577255 216.003145,13.1517922 216.003145,18.4524392 C216.003145,23.7521255 211.667125,28.0891059 206.366478,28.0891059" id="Fill-7" fill="#F5F5F5"></path>
                <path d="M150.084598,47.3625353 L20.2105784,47.3625353 C14.9099314,47.3625353 10.5739118,43.0255549 10.5739118,37.7258686 C10.5739118,32.4261824 14.9099314,28.089202 20.2105784,28.089202 L150.084598,28.089202 C155.385245,28.089202 159.721265,32.4261824 159.721265,37.7258686 C159.721265,43.0255549 155.385245,47.3625353 150.084598,47.3625353" id="Fill-9" fill="#F5F5F5"></path>
                <g id="Group-13" transform="translate(94.156863, 66.308529)" fill="#F5F5F5">
                    <path d="M140.350604,19.601249 L10.4765843,19.601249 C5.17689804,19.601249 0.839917647,15.2642686 0.839917647,9.96458235 C0.839917647,4.66393529 5.17689804,0.326954902 10.4765843,0.326954902 L140.350604,0.326954902 C145.651251,0.326954902 149.987271,4.66393529 149.987271,9.96458235 C149.987271,15.2642686 145.651251,19.601249 140.350604,19.601249" id="Fill-11"></path>
                </g>
                <path d="M175.709196,118.651963 L56.2183725,118.651963 C51.2828235,118.651963 47.2811569,114.650296 47.2811569,109.713786 L47.2811569,34.1087078 C47.2811569,29.1731588 51.2828235,25.1714922 56.2183725,25.1714922 L175.709196,25.1714922 C180.645706,25.1714922 184.647373,29.1731588 184.647373,34.1087078 L184.647373,109.713786 C184.647373,114.650296 180.645706,118.651963 175.709196,118.651963" id="Fill-14" fill="#FFFFFF"></path>
                <path d="M175.709196,118.651963 L56.2183725,118.651963 C51.2828235,118.651963 47.2811569,114.650296 47.2811569,109.713786 L47.2811569,34.1087078 C47.2811569,29.1731588 51.2828235,25.1714922 56.2183725,25.1714922 L175.709196,25.1714922 C180.645706,25.1714922 184.647373,29.1731588 184.647373,34.1087078 L184.647373,109.713786 C184.647373,114.650296 180.645706,118.651963 175.709196,118.651963 Z" id="Stroke-16" stroke="#888888"></path>
                <path d="M48.3489725,38.1637941 C48.3489725,38.1637941 49.2617176,26.9514412 60.2896,26.9514412 L170.255208,26.9514412 C170.255208,26.9514412 181.027522,26.0463824 182.198718,38.1637941 L48.3489725,38.1637941 Z" id="Fill-18" fill="#E0E0E0"></path>
                <path d="M182.434686,124.416669 L62.9438627,124.416669 C58.0083137,124.416669 54.0066471,120.415002 54.0066471,115.478492 L54.0066471,39.8734137 C54.0066471,34.9378647 58.0083137,30.936198 62.9438627,30.936198 L182.434686,30.936198 C187.371196,30.936198 191.372863,34.9378647 191.372863,39.8734137 L191.372863,115.478492 C191.372863,120.415002 187.371196,124.416669 182.434686,124.416669" id="Fill-26" fill="#FFFFFF"></path>
                <path d="M182.434686,124.416669 L62.9438627,124.416669 C58.0083137,124.416669 54.0066471,120.415002 54.0066471,115.478492 L54.0066471,39.8734137 C54.0066471,34.9378647 58.0083137,30.936198 62.9438627,30.936198 L182.434686,30.936198 C187.371196,30.936198 191.372863,34.9378647 191.372863,39.8734137 L191.372863,115.478492 C191.372863,120.415002 187.371196,124.416669 182.434686,124.416669 Z" id="Stroke-28" stroke="#F59D00"></path>
                <path d="M55.1719824,42.8217725 C55.1719824,42.8217725 56.0847275,31.6094196 67.1126098,31.6094196 L177.078218,31.6094196 C177.078218,31.6094196 187.850531,30.7043608 189.021727,42.8217725 L55.1719824,42.8217725 Z" id="Fill-30" fill="#FFE3BB"></path>
                <polygon id="Fill-32" fill="#FFFFFF" points="66.4161373 38.3391373 68.6797451 38.3391373 68.6797451 36.0764902 66.4161373 36.0764902"></polygon>
                <polygon id="Fill-34" fill="#FFFFFF" points="70.9433529 38.3391373 73.2069608 38.3391373 73.2069608 36.0764902 70.9433529 36.0764902"></polygon>
                <polygon id="Fill-35" fill="#FFFFFF" points="75.4705686 38.3391373 77.7341765 38.3391373 77.7341765 36.0764902 75.4705686 36.0764902"></polygon>
                <polygon id="Fill-36" fill="#FDFFFE" points="52.1782745 86.7127059 55.4785686 86.7127059 55.4785686 75.2659216 52.1782745 75.2659216"></polygon>
                <polygon id="Fill-37" fill="#FDFFFE" points="45.4527843 70.3390196 48.7530784 70.3390196 48.7530784 58.8922353 45.4527843 58.8922353"></polygon>
                <polygon id="Fill-38" fill="#4CD093" points="58.653 52.808549 186.332588 52.808549 186.332588 46.3434314 58.653 46.3434314"></polygon>
                <path d="M226.308902,124.916373 L14.8460392,124.916373 C14.5818235,124.916373 14.3656471,125.132549 14.3656471,125.396765 C14.3656471,125.66098 14.5818235,125.877157 14.8460392,125.877157 L226.308902,125.877157 C226.573118,125.877157 226.789294,125.66098 226.789294,125.396765 C226.789294,125.132549 226.573118,124.916373 226.308902,124.916373" id="Fill-39" fill="#9B9B9B"></path>
                <path d="M11.3310098,125.877157 L0.480872549,125.877157 C0.216656863,125.877157 0.000480392157,125.66098 0.000480392157,125.396765 C0.000480392157,125.132549 0.216656863,124.916373 0.480872549,124.916373 L11.3310098,124.916373 C11.5952255,124.916373 11.811402,125.132549 11.811402,125.396765 C11.811402,125.66098 11.5952255,125.877157 11.3310098,125.877157" id="Fill-40" fill="#9B9B9B"></path>
                <path d="M243.20708,125.877157 L229.97612,125.877157 C229.712865,125.877157 229.495727,125.66098 229.495727,125.396765 C229.495727,125.132549 229.712865,124.916373 229.97612,124.916373 L243.20708,124.916373 C243.471296,124.916373 243.687473,125.132549 243.687473,125.396765 C243.687473,125.66098 243.471296,125.877157 243.20708,125.877157" id="Fill-41" fill="#9B9B9B"></path>
                <polyline id="Fill-42" fill="#FFFFFF" points="187.53501 111.571367 187.53501 120.067582 184.6075 122.360975 183.397873 123.705112 183.397873 124.916661 194.756265 124.916661 194.756265 111.571367 187.53501 111.571367 187.53501 111.683778"></polyline>
                <path d="M135.96472,18.8932471 C135.22972,18.8932471 134.542759,18.4964431 134.169975,17.8584824 C134.088308,17.7182078 133.945151,17.6355804 133.7847,17.6355804 C133.597347,17.6355804 133.462837,17.7508745 133.400386,17.8584824 C133.027602,18.4964431 132.33968,18.8932471 131.60372,18.8932471 C130.867759,18.8932471 130.178876,18.4964431 129.806092,17.8584824 C129.724425,17.7182078 129.581269,17.6355804 129.421778,17.6355804 C129.234425,17.6355804 129.098955,17.7508745 129.035543,17.8594431 C128.66372,18.4964431 127.974837,18.8932471 127.239837,18.8932471 C126.503876,18.8932471 125.814994,18.4964431 125.44221,17.8584824 C125.360543,17.7182078 125.217386,17.6355804 125.056935,17.6355804 C124.869582,17.6355804 124.735073,17.7508745 124.671661,17.8594431 C124.299837,18.4964431 123.610955,18.8932471 122.875955,18.8932471 C122.140955,18.8932471 121.453033,18.4964431 121.080249,17.8584824 C120.853504,17.4693647 120.984171,16.9687961 121.374249,16.742051 C121.764327,16.5143451 122.263935,16.6450118 122.491641,17.0350902 C122.670347,17.3425412 123.146896,17.2368549 123.26219,17.0350902 C123.635935,16.3980902 124.322896,16.0022471 125.057896,16.0022471 C125.7977,16.0022471 126.485622,16.399051 126.855524,17.0379725 C126.917014,17.1436588 127.052484,17.2599137 127.240798,17.2599137 C127.42719,17.2599137 127.562661,17.1436588 127.625112,17.0350902 C127.998857,16.3980902 128.687739,16.0022471 129.422739,16.0022471 C130.160622,16.0022471 130.847582,16.399051 131.219406,17.0370118 C131.280896,17.1436588 131.416367,17.2599137 131.60468,17.2599137 C131.792033,17.2599137 131.927504,17.1436588 131.989955,17.0350902 C132.361778,16.3980902 133.050661,16.0022471 133.785661,16.0022471 C134.523543,16.0022471 135.211465,16.399051 135.583288,17.0370118 C135.644778,17.1436588 135.779288,17.2599137 135.96568,17.2599137 C136.153994,17.2599137 136.289465,17.1446196 136.351916,17.0370118 C136.5777,16.6478941 137.076347,16.5143451 137.468347,16.7410902 C137.857465,16.9668745 137.990053,17.4674431 137.763308,17.8575216 C137.391484,18.4964431 136.701641,18.8932471 135.96472,18.8932471" id="Fill-43" fill="#F59D00"></path>
                <polygon id="Fill-44" fill="#999999" points="26.3090608 93.6256451 28.7725118 91.1612333 31.2359627 93.6246843 28.771551 96.0881353"></polygon>
                <polygon id="Fill-45" fill="#999999" points="199.650404 72.8092922 202.113855 70.3458412 204.577306 72.8083314 202.112894 75.2717824"></polygon>
                <polygon id="Fill-46" fill="#999999" points="92.0425608 9.39752745 94.5060118 6.93407647 96.9694627 9.39656667 94.505051 11.8600176"></polygon>
                <path d="M202.9531,36.0770667 L200.608786,34.7214 L200.607825,37.4308118 L202.9531,36.0770667 Z M199.647041,33.0563608 L204.873708,36.0770667 L199.64608,39.095851 L199.647041,33.0563608 Z" id="Fill-47" fill="#58DDA0"></path>
                <path d="M221.476829,113.206333 L220.121163,115.550647 L222.830575,115.551608 L221.476829,113.206333 Z M218.456124,116.512392 L221.476829,111.285725 L224.495614,116.513353 L218.456124,116.512392 Z" id="Fill-48" fill="#58DDA0"></path>
                <path d="M30.1343275,62.6929059 L32.4786412,64.0485725 L32.479602,61.3391608 L30.1343275,62.6929059 Z M33.4403863,65.7136118 L28.2137196,62.6929059 L33.4413471,59.6741216 L33.4403863,65.7136118 Z" id="Fill-49" fill="#58DDA0"></path>
                <polygon id="Fill-50" fill="#58DDA0" points="55.9983529 18.9072745 59.4821569 18.9072745 59.4821569 15.4234706 55.9983529 15.4234706"></polygon>
                <path d="M43.7683373,116.662371 C43.0333373,116.662371 42.3463765,116.265567 41.9735922,115.627606 C41.8919255,115.487331 41.7487686,115.404704 41.5883176,115.404704 C41.4009647,115.404704 41.2664549,115.519998 41.2040039,115.627606 C40.8312196,116.265567 40.143298,116.662371 39.4073373,116.662371 C38.6713765,116.662371 37.9824941,116.265567 37.6097098,115.627606 C37.5280431,115.487331 37.3848863,115.404704 37.2253961,115.404704 C37.0380431,115.404704 36.9025725,115.519998 36.8391608,115.628567 C36.4673373,116.265567 35.7784549,116.662371 35.0434549,116.662371 C34.3074941,116.662371 33.6186118,116.265567 33.2458275,115.627606 C33.1641608,115.487331 33.0210039,115.404704 32.8605529,115.404704 C32.6732,115.404704 32.5386902,115.519998 32.4752784,115.628567 C32.1034549,116.265567 31.4145725,116.662371 30.6795725,116.662371 C29.9445725,116.662371 29.256651,116.265567 28.8838667,115.627606 C28.6571216,115.238488 28.7877882,114.73792 29.1778667,114.511175 C29.5679451,114.283469 30.0675529,114.414135 30.2952588,114.804214 C30.4739647,115.111665 30.9505137,115.005978 31.0658078,114.804214 C31.4395529,114.167214 32.1265137,113.771371 32.8615137,113.771371 C33.6013176,113.771371 34.2892392,114.168175 34.6591412,114.807096 C34.7206314,114.912782 34.856102,115.029037 35.0444157,115.029037 C35.2308078,115.029037 35.3662784,114.912782 35.4287294,114.804214 C35.8024745,114.167214 36.4913569,113.771371 37.2263569,113.771371 C37.9642392,113.771371 38.6512,114.168175 39.0230235,114.806135 C39.0845137,114.912782 39.2199843,115.029037 39.408298,115.029037 C39.595651,115.029037 39.7311216,114.912782 39.7935725,114.804214 C40.1653961,114.167214 40.8542784,113.771371 41.5892784,113.771371 C42.3271608,113.771371 43.0150824,114.168175 43.3869059,114.806135 C43.4483961,114.912782 43.5829059,115.029037 43.769298,115.029037 C43.9576118,115.029037 44.0930824,114.913743 44.1555333,114.806135 C44.3813176,114.417018 44.8799647,114.283469 45.2719647,114.510214 C45.6610824,114.735998 45.7936706,115.236567 45.5669255,115.626645 C45.195102,116.265567 44.5052588,116.662371 43.7683373,116.662371" id="Fill-51" fill="#999999"></path>
                <path d="M173.849022,0.960111765 L175.203727,3.30538627 L176.558433,0.960111765 L173.849022,0.960111765 Z M175.203727,5.22791569 L172.183982,0.000288235294 L178.223473,0.000288235294 L175.203727,5.22791569 Z" id="Fill-52" fill="#F59D00"></path>
                <polygon id="Fill-53" fill="#F4F4F4" points="59.0901569 58.5530784 87.3871765 58.5530784 87.3871765 56.7237451 59.0901569 56.7237451"></polygon>
                <polygon id="Fill-54" fill="#F4F4F4" points="59.0911176 115.148078 83.0713333 115.148078 83.0713333 108.698333 59.0911176 108.698333"></polygon>
                <polygon id="Fill-55" fill="#F4F4F4" points="85.9930784 115.148078 109.973294 115.148078 109.973294 108.698333 85.9930784 108.698333"></polygon>
                <polygon id="Fill-56" fill="#F4F4F4" points="59.0911176 105.182824 186.695765 105.182824 186.695765 62.9630784 59.0911176 62.9630784"></polygon>
                <polygon id="Fill-57" fill="#F4F4F4" points="91.7606667 58.5530784 120.057686 58.5530784 120.057686 56.7237451 91.7606667 56.7237451"></polygon>
                <polygon id="Fill-58" fill="#F4F4F4" points="125.365059 58.5530784 153.662078 58.5530784 153.662078 56.7237451 125.365059 56.7237451"></polygon>
                <polygon id="Fill-59" fill="#F4F4F4" points="158.035569 58.5530784 186.332588 58.5530784 186.332588 56.7237451 158.035569 56.7237451"></polygon>
                <path d="M190.040735,103.297765 L190.040735,124.244784" id="Fill-60" fill="#FFFFFF"></path>
                <path d="M190.220882,124.740837 C189.874039,124.740837 189.592529,124.518896 189.592529,124.245073 L189.592529,103.298053 C189.592529,103.023269 189.874039,102.802288 190.220882,102.802288 C190.567725,102.802288 190.848275,103.023269 190.848275,103.298053 L190.848275,124.245073 C190.848275,124.518896 190.567725,124.740837 190.220882,124.740837" id="Fill-61" fill="#F59D00"></path>
                <path d="M190.220402,124.916373 C190.082049,124.916373 189.949461,124.854882 189.852422,124.745353 L184.391324,118.617471 C184.187637,118.389765 184.187637,118.019863 184.391324,117.791196 C184.59501,117.562529 184.923598,117.562529 185.127284,117.791196 L190.220402,123.505941 L195.31352,117.791196 C195.517206,117.562529 195.846755,117.562529 196.050441,117.791196 C196.254127,118.019863 196.254127,118.389765 196.050441,118.617471 L190.589343,124.745353 C190.491343,124.854882 190.359716,124.916373 190.220402,124.916373" id="Fill-62" fill="#F59D00"></path>
                <path d="M206.701504,111.571367 L170.176327,111.571367 C166.012288,111.571367 162.625524,108.161543 162.625524,103.969641 C162.625524,99.7796608 166.012288,96.3698373 170.176327,96.3698373 L173.676465,96.3698373 C173.674543,96.3073863 173.673582,96.2458961 173.673582,96.1824843 C173.673582,91.1402882 177.751151,87.0377392 182.761641,87.0377392 C184.057739,87.0377392 185.30868,87.3096412 186.485641,87.8457588 C188.555171,84.1918961 192.377171,81.9417392 196.572916,81.9417392 C202.980386,81.9417392 208.193602,87.1876216 208.193602,93.6354451 C208.193602,94.5895039 208.077347,95.537798 207.846759,96.4630333 C211.485249,97.0241314 214.256151,100.212014 214.256151,103.969641 C214.256151,108.161543 210.866504,111.571367 206.701504,111.571367" id="Fill-64" fill="#FFC569"></path>
                <path d="M205.603231,110.464255 L171.275369,110.464255 C167.361133,110.464255 164.177094,107.446431 164.177094,103.737804 C164.177094,100.029176 167.361133,97.0113529 171.275369,97.0113529 L174.564133,97.0113529 C174.562212,96.9565882 174.561251,96.9018235 174.561251,96.846098 C174.561251,92.3842157 178.39382,88.7534118 183.102624,88.7534118 C184.320898,88.7534118 185.496898,88.9936078 186.603722,89.4682353 C188.548349,86.2351961 192.140722,84.2434902 196.08378,84.2434902 C202.105976,84.2434902 207.005016,88.886 207.005016,94.5911373 C207.005016,95.4356667 206.896447,96.2744314 206.680271,97.0939804 C210.099702,97.5907059 212.703427,100.411569 212.703427,103.737804 C212.703427,107.446431 209.518427,110.464255 205.603231,110.464255" id="Fill-66" fill="#F59D00"></path>
                <path d="M183.988851,105.227788 C184.190616,105.430514 184.433694,105.51122 184.717125,105.51122 C185.000557,105.51122 185.243635,105.430514 185.4454,105.227788 L189.571969,101.060867 L193.73889,105.227788 C193.941616,105.430514 194.184694,105.51122 194.468125,105.51122 C194.750596,105.51122 194.993675,105.430514 195.1964,105.227788 C195.60089,104.823298 195.60089,104.175729 195.1964,103.811592 L190.988165,99.6446706 L195.156047,95.477749 C195.559576,95.0732588 195.559576,94.4256902 195.156047,94.0615529 C194.750596,93.6570627 194.103988,93.6570627 193.73889,94.0615529 L189.571969,98.2284745 L185.405047,94.0615529 C185.000557,93.6570627 184.352988,93.6570627 183.988851,94.0615529 C183.584361,94.4660431 183.584361,95.1136118 183.988851,95.477749 L188.155773,99.6446706 L183.988851,103.811592 C183.584361,104.175729 183.584361,104.823298 183.988851,105.227788" id="Fill-67" fill="#FFFFFF"></path>
            </g>
        </g>
    </g>
</svg>