<?xml version="1.0" encoding="UTF-8"?>
<svg width="244px" height="112px" viewBox="0 0 244 112" version="1.1" xmlns="http://www.w3.org/2000/svg" xmlns:xlink="http://www.w3.org/1999/xlink">
    <!-- Generator: Sketch 46.1 (44463) - http://www.bohemiancoding.com/sketch -->
    <title>No Screenshot</title>
    <desc>Created with Sketch.</desc>
    <defs>
        <polygon id="path-1" points="0.681284906 0.0147924528 144.200436 0.0147924528 144.200436 18.5608302 0.681284906 18.5608302"></polygon>
    </defs>
    <g id="Page-1" stroke="none" stroke-width="1" fill="none" fill-rule="evenodd">
        <g id="Illustrations" transform="translate(-134.000000, -667.000000)">
            <g id="No-Screenshot" transform="translate(133.179688, 666.125000)">
                <g id="Group-14" transform="translate(19.415094, 0.909736)">
                    <path d="M134.392023,111.607762 L9.41890943,111.607762 C4.31921132,111.607762 0.145890566,107.434442 0.145890566,102.334743 C0.145890566,97.2341208 4.31921132,93.0608 9.41890943,93.0608 L134.392023,93.0608 C139.492645,93.0608 143.665042,97.2341208 143.665042,102.334743 C143.665042,107.434442 139.492645,111.607762 134.392023,111.607762" id="Fill-1" fill="#F5F5F5"></path>
                    <path d="M172.302675,92.745166 L47.3295623,92.745166 C42.2298642,92.745166 38.0565434,88.5727698 38.0565434,83.4730717 C38.0565434,78.3724491 42.2298642,74.1991283 47.3295623,74.1991283 L172.302675,74.1991283 C177.403298,74.1991283 181.575694,78.3724491 181.575694,83.4730717 C181.575694,88.5727698 177.403298,92.745166 172.302675,92.745166" id="Fill-3" fill="#F5F5F5"></path>
                    <path d="M188.550058,55.6529981 L63.5769453,55.6529981 C58.4772472,55.6529981 54.3039264,51.4796774 54.3039264,46.3799792 C54.3039264,41.2802811 58.4772472,37.1069604 63.5769453,37.1069604 L188.550058,37.1069604 C193.650681,37.1069604 197.823077,41.2802811 197.823077,46.3799792 C197.823077,51.4796774 193.650681,55.6529981 188.550058,55.6529981" id="Fill-5" fill="#F5F5F5"></path>
                    <g id="Group-9" transform="translate(53.622642, 0.000000)">
                        <mask id="mask-2" fill="white">
                            <use xlink:href="#path-1"></use>
                        </mask>
                        <g id="Clip-8"></g>
                        <path d="M134.927417,18.5608302 L9.95430377,18.5608302 C4.85460566,18.5608302 0.681284906,14.3875094 0.681284906,9.28781132 C0.681284906,4.18718868 4.85460566,0.0138679245 9.95430377,0.0138679245 L134.927417,0.0138679245 C140.02804,0.0138679245 144.200436,4.18718868 144.200436,9.28781132 C144.200436,14.3875094 140.02804,18.5608302 134.927417,18.5608302" id="Fill-7" fill="#F5F5F5" mask="url(#mask-2)"></path>
                    </g>
                    <path d="M134.392023,37.1074226 L9.41890943,37.1074226 C4.31921132,37.1074226 0.145890566,32.9341019 0.145890566,27.8344038 C0.145890566,22.7337811 4.31921132,18.5604604 9.41890943,18.5604604 L134.392023,18.5604604 C139.492645,18.5604604 143.665042,22.7337811 143.665042,27.8344038 C143.665042,32.9341019 139.492645,37.1074226 134.392023,37.1074226" id="Fill-10" fill="#F5F5F5"></path>
                    <path d="M215.629585,74.1995906 L90.6564717,74.1995906 C85.5558491,74.1995906 81.3834528,70.0262698 81.3834528,64.9265717 C81.3834528,59.8259491 85.5558491,55.6526283 90.6564717,55.6526283 L215.629585,55.6526283 C220.729283,55.6526283 224.902604,59.8259491 224.902604,64.9265717 C224.902604,70.0262698 220.729283,74.1995906 215.629585,74.1995906" id="Fill-12" fill="#F5F5F5"></path>
                </g>
                <g id="Group-45" transform="translate(0.000000, 2.758792)">
                    <path d="M184.330604,108.612013 L69.3488679,108.612013 C64.599566,108.612013 60.7489057,104.761353 60.7489057,100.011126 L60.7489057,27.2599943 C60.7489057,22.5097679 64.599566,18.6591075 69.3488679,18.6591075 L184.330604,18.6591075 C189.08083,18.6591075 192.931491,22.5097679 192.931491,27.2599943 L192.931491,100.011126 C192.931491,104.761353 189.08083,108.612013 184.330604,108.612013 Z" id="Fill-18" fill="#FFFFFF"></path>
                    <path d="M184.330604,108.612013 L69.3488679,108.612013 C64.599566,108.612013 60.7489057,104.761353 60.7489057,100.011126 L60.7489057,27.2599943 C60.7489057,22.5097679 64.599566,18.6591075 69.3488679,18.6591075 L184.330604,18.6591075 C189.08083,18.6591075 192.931491,22.5097679 192.931491,27.2599943 L192.931491,100.011126 C192.931491,104.761353 189.08083,108.612013 184.330604,108.612013 Z" id="Stroke-20" stroke="#F59D00"></path>
                    <path d="M62.1167453,30.8884906 C62.1167453,30.8884906 62.9941226,20.0983208 73.6058585,20.0983208 L179.421821,20.0983208 C179.421821,20.0983208 189.787632,19.2283396 190.915557,30.8884906 L62.1167453,30.8884906 Z" id="Fill-22" fill="#FFE3BB"></path>
                    <polygon id="Fill-24" fill="#FFFFFF" points="73.2966038 26.575566 75.4747925 26.575566 75.4747925 24.3973774 73.2966038 24.3973774"></polygon>
                    <polygon id="Fill-26" fill="#FFFFFF" points="77.6529811 26.575566 79.8302453 26.575566 79.8302453 24.3973774 77.6529811 24.3973774"></polygon>
                    <polygon id="Fill-27" fill="#FFFFFF" points="82.008434 26.575566 84.1866226 26.575566 84.1866226 24.3973774 82.008434 24.3973774"></polygon>
                    <polygon id="Fill-28" fill="#FDFFFE" points="59.5960189 73.123717 62.7717736 73.123717 62.7717736 62.1088868 59.5960189 62.1088868"></polygon>
                    <polygon id="Fill-29" fill="#FDFFFE" points="53.1243208 57.3679057 56.3000755 57.3679057 56.3000755 46.3530755 53.1243208 46.3530755"></polygon>
                    <path d="M227.155032,109.094155 L15.7459189,109.094155 C15.4925981,109.094155 15.2836547,109.303098 15.2836547,109.556419 C15.2836547,109.810664 15.4925981,110.018683 15.7459189,110.018683 L227.155032,110.018683 C227.409277,110.018683 227.617296,109.810664 227.617296,109.556419 C227.617296,109.303098 227.409277,109.094155 227.155032,109.094155" id="Fill-30" fill="#9B9B9B"></path>
                    <path d="M12.2689528,110.018683 L1.38633019,110.018683 C1.13300943,110.018683 0.924066038,109.810664 0.924066038,109.556419 C0.924066038,109.303098 1.13300943,109.094155 1.38633019,109.094155 L12.2689528,109.094155 C12.5231981,109.094155 12.731217,109.303098 12.731217,109.556419 C12.731217,109.810664 12.5231981,110.018683 12.2689528,110.018683" id="Fill-31" fill="#9B9B9B"></path>
                    <path d="M243.415543,110.018683 L230.683864,110.018683 C230.430543,110.018683 230.2216,109.810664 230.2216,109.556419 C230.2216,109.303098 230.430543,109.094155 230.683864,109.094155 L243.415543,109.094155 C243.669789,109.094155 243.877808,109.303098 243.877808,109.556419 C243.877808,109.810664 243.669789,110.018683 243.415543,110.018683" id="Fill-32" fill="#9B9B9B"></path>
                    <polygon id="Fill-33" fill="#999999" points="201.994549 54.5515151 204.365964 52.1810245 206.73553 54.5505906 204.364115 56.9210811"></polygon>
                    <path d="M201.849675,23.7134113 L201.849675,26.3196566 L204.107374,25.0160717 L201.849675,23.7134113 Z M200.925147,27.9227887 L200.925147,22.1121283 L205.95643,25.0179208 L200.925147,27.9227887 Z" id="Fill-34" fill="#58DDA0"></path>
                    <polygon id="Fill-35" fill="#999999" points="50.7533679 5.33933585 53.124783 2.96884528 55.4943491 5.33748679 53.122934 7.70890189"></polygon>
                    <path d="M42.0434792,51.8736189 L44.2993283,53.1781283 L44.3002528,50.5709585 L42.0434792,51.8736189 Z M45.2247811,54.7812604 L40.1953472,51.8736189 L45.2257057,48.9687509 L45.2247811,54.7812604 Z" id="Fill-36" fill="#58DDA0"></path>
                    <path d="M220.075642,90.0799358 L222.331491,91.3844453 L222.332415,88.7782 L220.075642,90.0799358 Z M223.256943,92.9875774 L218.227509,90.0799358 L223.257868,87.1750679 L223.256943,92.9875774 Z" id="Fill-37" fill="#58DDA0"></path>
                    <path d="M204.791155,9.09976226 C204.083891,9.09976226 203.422853,8.71793208 203.064136,8.10404528 C202.985551,7.96906415 202.847796,7.88955472 202.6934,7.88955472 C202.513117,7.88955472 202.383683,8.00142264 202.323589,8.10404528 C201.964872,8.71793208 201.302909,9.09976226 200.594721,9.09976226 C199.886532,9.09976226 199.223645,8.71793208 198.864928,8.10404528 C198.786343,7.96906415 198.648589,7.88955472 198.495117,7.88955472 C198.314834,7.88955472 198.184475,8.00142264 198.123457,8.10496981 C197.765664,8.71793208 197.102777,9.09976226 196.395513,9.09976226 C195.687325,9.09976226 195.024438,8.71793208 194.665721,8.10404528 C194.587136,7.96906415 194.449381,7.88955472 194.294985,7.88955472 C194.114702,7.88955472 193.985268,8.00142264 193.924249,8.10496981 C193.566457,8.71793208 192.90357,9.09976226 192.196306,9.09976226 C191.489042,9.09976226 190.827079,8.71793208 190.468362,8.10404528 C190.250174,7.73053585 190.375909,7.24793208 190.751268,7.0297434 C191.126626,6.81063019 191.607381,6.93636604 191.826494,7.31172453 C191.998457,7.60757358 192.457023,7.50587547 192.567966,7.31172453 C192.927608,6.69876226 193.588645,6.3178566 194.295909,6.3178566 C195.007796,6.3178566 195.669758,6.69968679 196.025702,7.31449811 C196.084872,7.41619623 196.21523,7.52806415 196.396438,7.52806415 C196.575796,7.52806415 196.706155,7.41619623 196.766249,7.31172453 C197.125891,6.69876226 197.788777,6.3178566 198.496042,6.3178566 C199.206079,6.3178566 199.867117,6.69968679 200.224909,7.31357358 C200.284079,7.41619623 200.414438,7.52806415 200.595645,7.52806415 C200.775928,7.52806415 200.906287,7.41619623 200.966381,7.31172453 C201.324174,6.69876226 201.98706,6.3178566 202.694325,6.3178566 C203.404362,6.3178566 204.066325,6.69968679 204.424117,7.31357358 C204.483287,7.41619623 204.612721,7.52806415 204.792079,7.52806415 C204.973287,7.52806415 205.103645,7.41712075 205.16374,7.31357358 C205.381004,6.93913962 205.860834,6.81063019 206.238042,7.02881887 C206.612475,7.24608302 206.74006,7.72868679 206.521872,8.10312075 C206.164079,8.71793208 205.500268,9.09976226 204.791155,9.09976226" id="Fill-38" fill="#999999"></path>
                    <path d="M45.2088792,101.876732 C44.5016151,101.876732 43.8405774,101.494902 43.4818604,100.881015 C43.4032755,100.745109 43.2655208,100.6656 43.1111245,100.6656 C42.9308415,100.6656 42.8014075,100.777468 42.7413132,100.881015 C42.3825962,101.494902 41.720634,101.876732 41.0124453,101.876732 C40.3042566,101.876732 39.6413698,101.494902 39.2826528,100.881015 C39.2040679,100.745109 39.0663132,100.6656 38.9128415,100.6656 C38.7325585,100.6656 38.6022,100.777468 38.5411811,100.88194 C38.1833887,101.494902 37.5205019,101.876732 36.8132377,101.876732 C36.1050491,101.876732 35.4421623,101.494902 35.0834453,100.881015 C35.0048604,100.745109 34.8671057,100.6656 34.7127094,100.6656 C34.5324264,100.6656 34.4029925,100.777468 34.3419736,100.88194 C33.9841811,101.494902 33.3212943,101.876732 32.6140302,101.876732 C31.906766,101.876732 31.2448038,101.494902 30.8860868,100.881015 C30.6678981,100.506581 30.793634,100.023977 31.1689925,99.8067132 C31.5443509,99.5866755 32.0251057,99.7124113 32.2442189,100.08777 C32.4161811,100.384543 32.8747472,100.281921 32.9856906,100.08777 C33.3453321,99.4748075 34.0063698,99.0939019 34.713634,99.0939019 C35.4255208,99.0939019 36.087483,99.4757321 36.4434264,100.090543 C36.5025962,100.193166 36.6329547,100.305034 36.8141623,100.305034 C36.9935208,100.305034 37.1238792,100.193166 37.1839736,100.08777 C37.5436151,99.4748075 38.2065019,99.0939019 38.913766,99.0939019 C39.6238038,99.0939019 40.2848415,99.4757321 40.642634,100.089619 C40.7018038,100.193166 40.8321623,100.305034 41.0133698,100.305034 C41.1936528,100.305034 41.3240113,100.193166 41.3841057,100.08777 C41.7418981,99.4748075 42.4047849,99.0939019 43.1120491,99.0939019 C43.8220868,99.0939019 44.4840491,99.4757321 44.8418415,100.089619 C44.9010113,100.193166 45.0304453,100.305034 45.2098038,100.305034 C45.3910113,100.305034 45.5213698,100.194091 45.5814642,100.089619 C45.7987283,99.7151849 46.2785585,99.5866755 46.655766,99.8057887 C47.0302,100.022128 47.1577849,100.504732 46.9395962,100.880091 C46.5818038,101.494902 45.9179925,101.876732 45.2088792,101.876732" id="Fill-39" fill="#F59D00"></path>
                    <polygon id="Fill-40" fill="#58DDA0" points="87.9697925 5.61743396 91.3221321 5.61743396 91.3221321 2.26509434 87.9697925 2.26509434"></polygon>
                    <path d="M144.206538,1.23137925 L145.510123,3.48815283 L146.813708,1.23137925 L144.206538,1.23137925 Z M145.510123,5.33813396 L142.60433,0.307775472 L148.415915,0.307775472 L145.510123,5.33813396 Z" id="Fill-41" fill="#F59D00"></path>
                    <polygon id="Fill-42" fill="#F4F4F4" points="64.8649057 41.0851132 188.167396 41.0851132 188.167396 33.7989057 64.8649057 33.7989057"></polygon>
                    <polygon id="Fill-43" fill="#F4F4F4" points="64.5903208 103.05717 188.167396 103.05717 188.167396 43.708 64.5903208 43.708"></polygon>
                    <path d="M124.502158,75.3840962 C124.297838,75.4229264 124.13697,75.6217 124.140668,75.8278698 L124.140668,79.3882283 C124.140668,79.6212094 124.352385,79.8329264 124.585366,79.8329264 L128.1448,79.8329264 C128.377781,79.8329264 128.589498,79.6212094 128.589498,79.3882283 L128.589498,75.8278698 C128.589498,75.5958132 128.377781,75.3840962 128.1448,75.3840962 L124.502158,75.3840962 Z M123.611838,56.6975302 C123.403819,56.7372849 123.240177,56.9443792 123.250347,57.1560962 L124.140668,73.1726245 C124.148064,73.400983 124.357008,73.6043792 124.585366,73.6043792 L128.1448,73.6043792 C128.377781,73.6043792 128.589498,73.3926623 128.589498,73.1596811 C128.589498,67.8695302 129.479819,62.5313038 129.479819,57.1431528 C129.479819,56.9101717 129.267177,56.6975302 129.034196,56.6975302 L123.611838,56.6975302 Z M126.378951,50.0233604 C136.462781,50.0233604 144.620819,58.1850962 144.620819,68.2652283 C144.620819,78.3444358 136.462781,86.4932283 126.378951,86.4932283 C116.296045,86.4932283 108.123215,78.3444358 108.123215,68.2652283 C108.123215,58.1850962 116.296045,50.0233604 126.378951,50.0233604 L126.378951,50.0233604 Z M126.378951,49.1339642 C115.814366,49.1339642 107.247687,57.7043415 107.247687,68.2652283 C107.247687,78.8261151 115.814366,87.3964925 126.378951,87.3964925 C136.943536,87.3964925 145.510215,78.8261151 145.510215,68.2652283 C145.510215,57.7043415 136.943536,49.1339642 126.378951,49.1339642 L126.378951,49.1339642 Z" id="Fill-44" fill="#4CD093"></path>
                </g>
            </g>
        </g>
    </g>
</svg>