<?xml version="1.0" encoding="UTF-8"?>
<svg width="244px" height="113px" viewBox="0 0 244 113" version="1.1" xmlns="http://www.w3.org/2000/svg" xmlns:xlink="http://www.w3.org/1999/xlink">
    <!-- Generator: Sketch 46.1 (44463) - http://www.bohemiancoding.com/sketch -->
    <title>Under Construction</title>
    <desc>Created with Sketch.</desc>
    <defs>
        <polygon id="path-1" points="0.681284906 0.0147924528 144.200436 0.0147924528 144.200436 18.5608302 0.681284906 18.5608302"></polygon>
        <polygon id="path-3" points="0 8.32143594 0 0.268057979 8.05341357 0.268057979 8.05341357 8.32143594 1.3908602e-16 8.32143594"></polygon>
        <rect id="path-5" x="64.562704" y="28.0366218" width="124.501497" height="29.548682"></rect>
        <rect id="path-6" x="83.6696354" y="56.699707" width="14.2496923" height="56.4517911"></rect>
        <rect id="path-7" x="155.562505" y="56.6542969" width="14.2496923" height="56.4972012"></rect>
        <rect id="path-8" x="97.0864258" y="83.6334723" width="59.4082031" height="13.2348123"></rect>
    </defs>
    <g id="Page-1" stroke="none" stroke-width="1" fill="none" fill-rule="evenodd">
        <g id="Illustration-2" transform="translate(-165.000000, -399.000000)">
            <g id="Under-Construction" transform="translate(163.928223, 398.209717)">
                <g id="404" transform="translate(0.511719, 0.140625)">
                    <g id="Group-14" transform="translate(19.415094, 0.909736)">
                        <path d="M134.392023,111.607762 L9.41890943,111.607762 C4.31921132,111.607762 0.145890566,107.434442 0.145890566,102.334743 C0.145890566,97.2341208 4.31921132,93.0608 9.41890943,93.0608 L134.392023,93.0608 C139.492645,93.0608 143.665042,97.2341208 143.665042,102.334743 C143.665042,107.434442 139.492645,111.607762 134.392023,111.607762" id="Fill-1" fill="#F5F5F5"></path>
                        <path d="M172.302675,92.745166 L47.3295623,92.745166 C42.2298642,92.745166 38.0565434,88.5727698 38.0565434,83.4730717 C38.0565434,78.3724491 42.2298642,74.1991283 47.3295623,74.1991283 L172.302675,74.1991283 C177.403298,74.1991283 181.575694,78.3724491 181.575694,83.4730717 C181.575694,88.5727698 177.403298,92.745166 172.302675,92.745166" id="Fill-3" fill="#F5F5F5"></path>
                        <path d="M188.550058,55.6529981 L63.5769453,55.6529981 C58.4772472,55.6529981 54.3039264,51.4796774 54.3039264,46.3799792 C54.3039264,41.2802811 58.4772472,37.1069604 63.5769453,37.1069604 L188.550058,37.1069604 C193.650681,37.1069604 197.823077,41.2802811 197.823077,46.3799792 C197.823077,51.4796774 193.650681,55.6529981 188.550058,55.6529981" id="Fill-5" fill="#F5F5F5"></path>
                        <g id="Group-9" transform="translate(53.622642, 0.000000)">
                            <mask id="mask-2" fill="white">
                                <use xlink:href="#path-1"></use>
                            </mask>
                            <g id="Clip-8"></g>
                            <path d="M134.927417,18.5608302 L9.95430377,18.5608302 C4.85460566,18.5608302 0.681284906,14.3875094 0.681284906,9.28781132 C0.681284906,4.18718868 4.85460566,0.0138679245 9.95430377,0.0138679245 L134.927417,0.0138679245 C140.02804,0.0138679245 144.200436,4.18718868 144.200436,9.28781132 C144.200436,14.3875094 140.02804,18.5608302 134.927417,18.5608302" id="Fill-7" fill="#F5F5F5" mask="url(#mask-2)"></path>
                        </g>
                        <path d="M134.392023,37.1074226 L9.41890943,37.1074226 C4.31921132,37.1074226 0.145890566,32.9341019 0.145890566,27.8344038 C0.145890566,22.7337811 4.31921132,18.5604604 9.41890943,18.5604604 L134.392023,18.5604604 C139.492645,18.5604604 143.665042,22.7337811 143.665042,27.8344038 C143.665042,32.9341019 139.492645,37.1074226 134.392023,37.1074226" id="Fill-10" fill="#F5F5F5"></path>
                        <path d="M215.629585,74.1995906 L90.6564717,74.1995906 C85.5558491,74.1995906 81.3834528,70.0262698 81.3834528,64.9265717 C81.3834528,59.8259491 85.5558491,55.6526283 90.6564717,55.6526283 L215.629585,55.6526283 C220.729283,55.6526283 224.902604,59.8259491 224.902604,64.9265717 C224.902604,70.0262698 220.729283,74.1995906 215.629585,74.1995906" id="Fill-12" fill="#F5F5F5"></path>
                    </g>
                    <g id="Group-45" transform="translate(0.000000, 4.758792)">
                        <polygon id="Fill-28" fill="#FDFFFE" points="59.5960189 71.123717 62.7717736 71.123717 62.7717736 60.1088868 59.5960189 60.1088868"></polygon>
                        <polygon id="Fill-29" fill="#FDFFFE" points="53.1243208 55.3679057 56.3000755 55.3679057 56.3000755 44.3530755 53.1243208 44.3530755"></polygon>
                        <path d="M227.155032,107.094155 L15.7459189,107.094155 C15.4925981,107.094155 15.2836547,107.303098 15.2836547,107.556419 C15.2836547,107.810664 15.4925981,108.018683 15.7459189,108.018683 L227.155032,108.018683 C227.409277,108.018683 227.617296,107.810664 227.617296,107.556419 C227.617296,107.303098 227.409277,107.094155 227.155032,107.094155" id="Fill-30" fill="#9B9B9B"></path>
                        <path d="M12.2689528,108.018683 L1.38633019,108.018683 C1.13300943,108.018683 0.924066038,107.810664 0.924066038,107.556419 C0.924066038,107.303098 1.13300943,107.094155 1.38633019,107.094155 L12.2689528,107.094155 C12.5231981,107.094155 12.731217,107.303098 12.731217,107.556419 C12.731217,107.810664 12.5231981,108.018683 12.2689528,108.018683" id="Fill-31" fill="#9B9B9B"></path>
                        <path d="M243.415543,108.018683 L230.683864,108.018683 C230.430543,108.018683 230.2216,107.810664 230.2216,107.556419 C230.2216,107.303098 230.430543,107.094155 230.683864,107.094155 L243.415543,107.094155 C243.669789,107.094155 243.877808,107.303098 243.877808,107.556419 C243.877808,107.810664 243.669789,108.018683 243.415543,108.018683" id="Fill-32" fill="#9B9B9B"></path>
                        <polygon id="Fill-33" fill="#999999" points="201.994549 52.5515151 204.365964 50.1810245 206.73553 52.5505906 204.364115 54.9210811"></polygon>
                        <path d="M201.849675,21.7134113 L201.849675,24.3196566 L204.107374,23.0160717 L201.849675,21.7134113 Z M200.925147,25.9227887 L200.925147,20.1121283 L205.95643,23.0179208 L200.925147,25.9227887 Z" id="Fill-34" fill="#58DDA0"></path>
                        <polygon id="Fill-35" fill="#999999" points="50.7533679 3.33933585 53.124783 0.968845283 55.4943491 3.33748679 53.122934 5.70890189"></polygon>
                        <path d="M42.0434792,49.8736189 L44.2993283,51.1781283 L44.3002528,48.5709585 L42.0434792,49.8736189 Z M45.2247811,52.7812604 L40.1953472,49.8736189 L45.2257057,46.9687509 L45.2247811,52.7812604 Z" id="Fill-36" fill="#58DDA0"></path>
                        <path d="M220.075642,88.0799358 L222.331491,89.3844453 L222.332415,86.7782 L220.075642,88.0799358 Z M223.256943,90.9875774 L218.227509,88.0799358 L223.257868,85.1750679 L223.256943,90.9875774 Z" id="Fill-37" fill="#58DDA0"></path>
                        <path d="M204.791155,7.09976226 C204.083891,7.09976226 203.422853,6.71793208 203.064136,6.10404528 C202.985551,5.96906415 202.847796,5.88955472 202.6934,5.88955472 C202.513117,5.88955472 202.383683,6.00142264 202.323589,6.10404528 C201.964872,6.71793208 201.302909,7.09976226 200.594721,7.09976226 C199.886532,7.09976226 199.223645,6.71793208 198.864928,6.10404528 C198.786343,5.96906415 198.648589,5.88955472 198.495117,5.88955472 C198.314834,5.88955472 198.184475,6.00142264 198.123457,6.10496981 C197.765664,6.71793208 197.102777,7.09976226 196.395513,7.09976226 C195.687325,7.09976226 195.024438,6.71793208 194.665721,6.10404528 C194.587136,5.96906415 194.449381,5.88955472 194.294985,5.88955472 C194.114702,5.88955472 193.985268,6.00142264 193.924249,6.10496981 C193.566457,6.71793208 192.90357,7.09976226 192.196306,7.09976226 C191.489042,7.09976226 190.827079,6.71793208 190.468362,6.10404528 C190.250174,5.73053585 190.375909,5.24793208 190.751268,5.0297434 C191.126626,4.81063019 191.607381,4.93636604 191.826494,5.31172453 C191.998457,5.60757358 192.457023,5.50587547 192.567966,5.31172453 C192.927608,4.69876226 193.588645,4.3178566 194.295909,4.3178566 C195.007796,4.3178566 195.669758,4.69968679 196.025702,5.31449811 C196.084872,5.41619623 196.21523,5.52806415 196.396438,5.52806415 C196.575796,5.52806415 196.706155,5.41619623 196.766249,5.31172453 C197.125891,4.69876226 197.788777,4.3178566 198.496042,4.3178566 C199.206079,4.3178566 199.867117,4.69968679 200.224909,5.31357358 C200.284079,5.41619623 200.414438,5.52806415 200.595645,5.52806415 C200.775928,5.52806415 200.906287,5.41619623 200.966381,5.31172453 C201.324174,4.69876226 201.98706,4.3178566 202.694325,4.3178566 C203.404362,4.3178566 204.066325,4.69968679 204.424117,5.31357358 C204.483287,5.41619623 204.612721,5.52806415 204.792079,5.52806415 C204.973287,5.52806415 205.103645,5.41712075 205.16374,5.31357358 C205.381004,4.93913962 205.860834,4.81063019 206.238042,5.02881887 C206.612475,5.24608302 206.74006,5.72868679 206.521872,6.10312075 C206.164079,6.71793208 205.500268,7.09976226 204.791155,7.09976226" id="Fill-38" fill="#999999"></path>
                        <path d="M45.2088792,99.8767321 C44.5016151,99.8767321 43.8405774,99.4949019 43.4818604,98.8810151 C43.4032755,98.7451094 43.2655208,98.6656 43.1111245,98.6656 C42.9308415,98.6656 42.8014075,98.7774679 42.7413132,98.8810151 C42.3825962,99.4949019 41.720634,99.8767321 41.0124453,99.8767321 C40.3042566,99.8767321 39.6413698,99.4949019 39.2826528,98.8810151 C39.2040679,98.7451094 39.0663132,98.6656 38.9128415,98.6656 C38.7325585,98.6656 38.6022,98.7774679 38.5411811,98.8819396 C38.1833887,99.4949019 37.5205019,99.8767321 36.8132377,99.8767321 C36.1050491,99.8767321 35.4421623,99.4949019 35.0834453,98.8810151 C35.0048604,98.7451094 34.8671057,98.6656 34.7127094,98.6656 C34.5324264,98.6656 34.4029925,98.7774679 34.3419736,98.8819396 C33.9841811,99.4949019 33.3212943,99.8767321 32.6140302,99.8767321 C31.906766,99.8767321 31.2448038,99.4949019 30.8860868,98.8810151 C30.6678981,98.5065811 30.793634,98.0239774 31.1689925,97.8067132 C31.5443509,97.5866755 32.0251057,97.7124113 32.2442189,98.0877698 C32.4161811,98.3845434 32.8747472,98.2819208 32.9856906,98.0877698 C33.3453321,97.4748075 34.0063698,97.0939019 34.713634,97.0939019 C35.4255208,97.0939019 36.087483,97.4757321 36.4434264,98.0905434 C36.5025962,98.193166 36.6329547,98.305034 36.8141623,98.305034 C36.9935208,98.305034 37.1238792,98.193166 37.1839736,98.0877698 C37.5436151,97.4748075 38.2065019,97.0939019 38.913766,97.0939019 C39.6238038,97.0939019 40.2848415,97.4757321 40.642634,98.0896189 C40.7018038,98.193166 40.8321623,98.305034 41.0133698,98.305034 C41.1936528,98.305034 41.3240113,98.193166 41.3841057,98.0877698 C41.7418981,97.4748075 42.4047849,97.0939019 43.1120491,97.0939019 C43.8220868,97.0939019 44.4840491,97.4757321 44.8418415,98.0896189 C44.9010113,98.193166 45.0304453,98.305034 45.2098038,98.305034 C45.3910113,98.305034 45.5213698,98.1940906 45.5814642,98.0896189 C45.7987283,97.7151849 46.2785585,97.5866755 46.655766,97.8057887 C47.0302,98.0221283 47.1577849,98.5047321 46.9395962,98.8800906 C46.5818038,99.4949019 45.9179925,99.8767321 45.2088792,99.8767321" id="Fill-39" fill="#F59D00"></path>
                        <polygon id="Fill-40" fill="#58DDA0" points="96.0255285 10.9694505 99.3778681 10.9694505 99.3778681 7.6171109 96.0255285 7.6171109"></polygon>
                        <path d="M145.828267,8.89561692 L147.131852,11.1523905 L148.435437,8.89561692 L145.828267,8.89561692 Z M147.131852,13.0023716 L144.22606,7.97201314 L150.037645,7.97201314 L147.131852,13.0023716 Z" id="Fill-41" fill="#F59D00"></path>
                    </g>
                    <g id="Page-1" transform="translate(108.486020, 60.421875)">
                        <g id="Group-5" transform="translate(-0.000000, 0.163864)">
                            <mask id="mask-4" fill="white">
                                <use xlink:href="#path-3"></use>
                            </mask>
                            <g id="Clip-4"></g>
                        </g>
                    </g>
                </g>
                <g id="Rectangle">
                    <use fill="#FFFFFF" fill-rule="evenodd" xlink:href="#path-5"></use>
                    <rect stroke="#979797" stroke-width="1" x="65.062704" y="28.5366218" width="123.501497" height="28.548682"></rect>
                </g>
                <polygon id="Rectangle-2" fill="#F59D00" points="169.27787 29.0373535 188.13553 28.9975134 169.48291 56.6022949 150.190918 56.5722656"></polygon>
                <polygon id="Rectangle-2" fill="#F59D00" points="134.27787 29.0373535 153.13553 28.9975134 134.48291 56.6022949 115.190918 56.5722656"></polygon>
                <polygon id="Rectangle-2" fill="#F59D00" points="99.2778704 29.0373535 118.13553 28.9975134 99.4829102 56.6022949 80.190918 56.5722656"></polygon>
                <polygon id="Rectangle-2" fill="#F59D00" points="65.5583655 29.034155 83.4199219 29.0568848 65.5589447 56.5766907"></polygon>
                <g id="Rectangle-3">
                    <use fill="#E7EDED" fill-rule="evenodd" xlink:href="#path-6"></use>
                    <rect stroke="#979797" stroke-width="1" x="84.1696354" y="57.199707" width="13.2496923" height="55.4517911"></rect>
                </g>
                <g id="Group" transform="translate(87.272177, 62.195312)" fill="#CEDCDD">
                    <rect id="Rectangle-4" x="0.217048917" y="0.223744754" width="1" height="9.82631091" rx="0.5"></rect>
                    <rect id="Rectangle-4" x="0.217048917" y="14.417305" width="1" height="18.1828334" rx="0.5"></rect>
                    <rect id="Rectangle-4" x="0.147467892" y="37.8711449" width="1" height="10.4480522" rx="0.5"></rect>
                    <rect id="Rectangle-4" x="6.22170327" y="23.3190673" width="1" height="25.0001298" rx="0.5"></rect>
                    <rect id="Rectangle-4" x="3.22783865" y="29.4255928" width="1" height="18.8208346" rx="0.5"></rect>
                    <rect id="Rectangle-4" x="6.00606478" y="0.310375371" width="1" height="19.4336463" rx="0.5"></rect>
                </g>
                <g id="Rectangle-3">
                    <use fill="#E7EDED" fill-rule="evenodd" xlink:href="#path-7"></use>
                    <rect stroke="#979797" stroke-width="1" x="156.062505" y="57.1542969" width="13.2496923" height="55.4972012"></rect>
                </g>
                <g id="Group" transform="translate(159.165047, 61.775391)" fill="#CEDCDD">
                    <rect id="Rectangle-4" x="0.217048917" y="0.225684252" width="1" height="9.9114888" rx="0.5"></rect>
                    <rect id="Rectangle-4" x="0.217048917" y="14.5422792" width="1" height="18.3404486" rx="0.5"></rect>
                    <rect id="Rectangle-4" x="0.147467892" y="38.1994252" width="1" height="10.5386195" rx="0.5"></rect>
                    <rect id="Rectangle-4" x="6.22170327" y="23.5212051" width="1" height="25.2168397" rx="0.5"></rect>
                    <rect id="Rectangle-4" x="3.22783865" y="29.6806641" width="1" height="18.9839802" rx="0.5"></rect>
                    <rect id="Rectangle-4" x="6.00606478" y="0.313065813" width="1" height="19.6021039" rx="0.5"></rect>
                </g>
                <rect id="Rectangle-5" fill-opacity="0.5" fill="#C5C5C5" x="84.6869435" y="57.7040189" width="12.2307811" height="3.12910882"></rect>
                <rect id="Rectangle-5" fill-opacity="0.1" fill="#000000" x="65.5292969" y="53.6239261" width="122.64853" height="2.96502924"></rect>
                <rect id="Rectangle-5" fill-opacity="0.5" fill="#C5C5C5" x="156.571665" y="57.6583341" width="12.2596338" height="3.12910882"></rect>
                <g id="Rectangle-6">
                    <use fill="#E7EEEE" fill-rule="evenodd" xlink:href="#path-8"></use>
                    <rect stroke="#979797" stroke-width="1" x="97.5864258" y="84.1334723" width="58.4082031" height="12.2348123"></rect>
                </g>
                <g id="Group" transform="translate(126.434090, 91.338867) rotate(-270.000000) translate(-126.434090, -91.338867) translate(122.434090, 66.838867)" fill="#CEDCDD">
                    <rect id="Rectangle-4" x="0.217048917" y="0.225684252" width="1" height="9.9114888" rx="0.5"></rect>
                    <rect id="Rectangle-4" x="0.217048917" y="14.5422792" width="1" height="18.3404486" rx="0.5"></rect>
                    <rect id="Rectangle-4" x="0.147467892" y="38.1994252" width="1" height="10.5386195" rx="0.5"></rect>
                    <rect id="Rectangle-4" x="6.22170327" y="23.5212051" width="1" height="25.2168397" rx="0.5"></rect>
                    <rect id="Rectangle-4" x="3.22783865" y="29.6806641" width="1" height="18.9839802" rx="0.5"></rect>
                    <rect id="Rectangle-4" x="6.00606478" y="0.313065813" width="1" height="19.6021039" rx="0.5"></rect>
                </g>
            </g>
        </g>
    </g>
</svg>